<svg width="618" height="402" viewBox="0 0 618 402" fill="none" xmlns="http://www.w3.org/2000/svg">
<path opacity="0.05" d="M309.176 401.859L618 223.402L582.017 161L309 318.762L35.9833 161L0 223.402L308.824 401.859L308.93 402L309 401.965L309.07 402L309.176 401.859Z" fill="white"/>
<path opacity="0.05" d="M444.948 176L513 79.8737L451.999 36L385 130.712C408.009 141.241 428.466 156.696 444.948 176Z" fill="white"/>
<path opacity="0.05" d="M315.111 113.316C327.158 113.354 339.174 114.525 351 116.812V0H273V118C286.818 114.886 300.942 113.315 315.111 113.316Z" fill="white"/>
<path opacity="0.05" d="M240 127.977L170.119 36L110 80.94L180.726 174C196.895 154.588 217.118 138.886 240 127.977Z" fill="white"/>
</svg>
