<svg width="23" height="23" viewBox="0 0 23 23" fill="none" xmlns="http://www.w3.org/2000/svg">
<path d="M19.5622 3.33506C18.5077 2.27336 17.2526 1.43178 15.8699 0.859236C14.487 0.286696 13.004 -0.00534529 11.5072 7.40631e-05C9.50624 0.00202906 7.54078 0.529359 5.80784 1.52925C4.0749 2.52914 2.63526 3.96651 1.63307 5.69738C0.630882 7.42827 0.10135 9.39196 0.0974659 11.3917C0.0935966 13.3915 0.615534 15.3571 1.61101 17.0919L0 23L6.04128 21.4188C7.70946 22.3462 9.58391 22.8406 11.4928 22.8563C14.5274 22.8564 17.4391 21.6585 19.5942 19.5236C21.7493 17.3887 22.9734 14.4895 23 11.4569C22.9899 9.94367 22.681 8.4473 22.0911 7.05359C21.5012 5.65986 20.6417 4.39622 19.5622 3.33506ZM11.5072 20.8869C9.80657 20.888 8.13704 20.4312 6.67417 19.5644L6.32896 19.3488L2.74734 20.2975L3.69669 16.8044L3.46654 16.445C2.24282 14.4709 1.78612 12.1167 2.18294 9.82853C2.57977 7.54039 3.80257 5.47716 5.61968 4.0297C7.43681 2.58223 9.722 1.85108 12.0424 1.97475C14.3628 2.0984 16.5574 3.06829 18.2101 4.70068C20.0168 6.4662 21.051 8.87446 21.0869 11.3994C21.0642 13.9235 20.0448 16.3365 18.2507 18.1134C16.4567 19.8901 14.033 20.887 11.5072 20.8869ZM16.6998 13.7857C16.4121 13.6419 15.0169 12.9519 14.758 12.8657C14.4991 12.7794 14.2977 12.7219 14.1107 13.0094C13.8293 13.3948 13.5267 13.7642 13.2045 14.1163C13.0463 14.3175 12.8737 14.3319 12.586 14.1163C10.9458 13.4685 9.57931 12.2754 8.7167 10.7382C8.41464 10.2351 9.00438 10.2638 9.55097 9.18568C9.59139 9.10791 9.61239 9.02166 9.61239 8.93412C9.61239 8.84657 9.59139 8.76032 9.55097 8.68256C9.55097 8.53879 8.90369 7.13005 8.67355 6.56942C8.4434 6.0088 8.21326 6.09505 8.02627 6.08068H7.46529C7.31994 6.0829 7.17675 6.11612 7.04528 6.17809C6.91381 6.24007 6.7971 6.32938 6.70294 6.44005C6.38019 6.75368 6.12846 7.13281 5.9647 7.55187C5.80093 7.97092 5.72896 8.4202 5.7536 8.86943C5.84378 9.94482 6.24902 10.9698 6.9187 11.8163C8.1445 13.6502 9.82441 15.1359 11.7949 16.1288C12.8284 16.7317 14.0294 16.9838 15.2183 16.8475C15.6141 16.769 15.9891 16.6082 16.3186 16.3753C16.6483 16.1426 16.9252 15.843 17.1313 15.4963C17.3224 15.0731 17.3825 14.6026 17.3039 14.145C17.1745 14.0013 16.9875 13.9294 16.6998 13.7857Z" fill="#8B8787"/>
</svg>
