<svg width="169" height="120" viewBox="0 0 169 120" fill="none" xmlns="http://www.w3.org/2000/svg">
<path d="M91.4407 62.2068L82.6567 61.2555C81.4549 61.1254 80.4386 60.3352 79.9771 59.2183C79.9715 59.2051 79.9659 59.1915 79.9606 59.1783C79.4975 58.0617 79.657 56.7846 80.4148 55.8429L85.9535 48.9591C86.9979 47.6613 86.8965 45.7851 85.7185 44.607L75.3504 34.239C74.1724 33.0609 72.2966 32.9596 70.9984 34.004L64.1116 39.545C63.1722 40.3009 61.8988 40.4613 60.7838 40.0025C60.7716 39.9975 60.7594 39.9926 60.7471 39.9876C59.6262 39.5275 58.833 38.5095 58.7026 37.3047L57.751 28.5168C57.5718 26.8604 56.1736 25.6055 54.5077 25.6055H39.845C38.1791 25.6055 36.7809 26.8604 36.6016 28.5168L35.65 37.3047C35.5196 38.5092 34.7261 39.5275 33.6052 39.9876C33.593 39.9926 33.5808 39.9975 33.5689 40.0025C32.4539 40.4616 31.1804 40.3009 30.241 39.545L23.3536 34.004C22.0558 32.9596 20.1796 33.0609 19.0019 34.239L8.63384 44.607C7.45579 45.7851 7.35446 47.6613 8.39882 48.9591L13.9375 55.8429C14.6954 56.7849 14.8548 58.0617 14.3917 59.1783C14.3861 59.1915 14.3808 59.2051 14.3752 59.2183C13.9134 60.3352 12.8975 61.1254 11.6956 61.2555L2.91128 62.2068C1.25495 62.386 0 63.7842 0 65.4501V80.1128C0 81.7787 1.25495 83.1769 2.91128 83.3562L11.6953 84.3071C12.8971 84.4372 13.9134 85.2274 14.3749 86.3444C14.3805 86.3576 14.3858 86.3711 14.3914 86.3843C14.8545 87.501 14.6951 88.778 13.9372 89.7201L8.39849 96.6038C7.35413 97.9017 7.45546 99.7779 8.63351 100.956L19.0016 111.324C20.1796 112.502 22.0558 112.603 23.3536 111.559L30.2404 106.018C31.1798 105.262 32.4532 105.101 33.5682 105.56C33.5804 105.565 33.5927 105.57 33.6049 105.575C34.7258 106.035 35.519 107.053 35.6494 108.258L36.601 117.046C36.7802 118.703 38.1784 119.957 39.8443 119.957H54.507C56.1729 119.957 57.5711 118.703 57.7504 117.046L58.702 108.258C58.8324 107.054 59.6255 106.035 60.7465 105.575C60.7587 105.57 60.7709 105.565 60.7828 105.56C61.8978 105.101 63.1712 105.262 64.111 106.018L70.9977 111.559C72.2956 112.603 74.1717 112.502 75.3498 111.324L85.7178 100.956C86.8959 99.7779 86.9969 97.9017 85.9529 96.6038L80.4142 89.7201C79.6563 88.7784 79.4969 87.5013 79.96 86.3843C79.9653 86.3711 79.9709 86.3579 79.9765 86.3444C80.4383 85.2274 81.4542 84.4372 82.656 84.3071L91.4401 83.3562C93.0961 83.1766 94.3514 81.7784 94.3514 80.1128V65.4501C94.352 63.7842 93.0971 62.386 91.4407 62.2068ZM47.176 87.4894C39.0531 87.4894 32.4681 80.9044 32.4681 72.7815C32.4681 64.6586 39.0531 58.0735 47.176 58.0735C55.2989 58.0735 61.8839 64.6586 61.8839 72.7815C61.8839 80.9044 55.2989 87.4894 47.176 87.4894Z" fill="#CCD1DC"/>
<path d="M167.503 47.5063L161.473 42.7443C160.512 41.9857 159.979 40.8229 159.978 39.5986C159.978 39.5858 159.978 39.5729 159.978 39.5597C159.976 38.3328 160.51 37.1669 161.473 36.4068L167.503 31.6444C168.884 30.5538 169.373 28.6787 168.699 27.053L166.05 20.6581C165.377 19.0322 163.706 18.0518 161.958 18.2571L154.327 19.1536C153.108 19.2969 151.906 18.8499 151.04 17.9809C151.032 17.9716 151.022 17.9624 151.013 17.9535C150.148 17.0873 149.703 15.8878 149.846 14.6722L150.742 7.04109C150.947 5.29366 149.967 3.62215 148.341 2.94879L141.946 0.300249C140.321 -0.373109 138.445 0.115406 137.355 1.49612L132.592 7.52598C131.834 8.48683 130.671 9.01991 129.447 9.02057C129.434 9.02057 129.421 9.02057 129.408 9.02057C128.181 9.02255 127.015 8.48881 126.255 7.52598L121.493 1.49579C120.402 0.114746 118.527 -0.373769 116.901 0.299589L110.506 2.94846C108.88 3.62182 107.9 5.29333 108.105 7.04109L109.001 14.6725C109.145 15.8908 108.698 17.0926 107.829 17.9587C107.819 17.968 107.81 17.9772 107.801 17.9865C106.935 18.8519 105.736 19.2969 104.52 19.1539L96.8886 18.2575C95.1409 18.0522 93.4697 19.0328 92.7963 20.6584L90.1475 27.0534C89.4741 28.679 89.9626 30.5545 91.3437 31.6451L97.3735 36.4071C98.3344 37.166 98.8674 38.3285 98.8681 39.5527C98.8681 39.5659 98.8681 39.5788 98.8681 39.5917C98.8704 40.8186 98.3364 41.9844 97.3735 42.7446L91.3433 47.507C89.9623 48.5975 89.4738 50.4727 90.1475 52.0983L92.796 58.4933C93.4694 60.1189 95.1409 61.0995 96.8883 60.8942L104.52 59.9977C105.738 59.8545 106.94 60.3014 107.806 61.1705C107.816 61.1798 107.824 61.189 107.834 61.1979C108.699 62.064 109.144 63.2632 109.001 64.4792L108.105 72.1106C107.899 73.8584 108.88 75.5295 110.506 76.2029L116.901 78.8518C118.526 79.5251 120.401 79.0366 121.492 77.6556L126.254 71.6257C127.013 70.6649 128.176 70.1318 129.4 70.1311C129.413 70.1311 129.426 70.1311 129.439 70.1311C130.665 70.1288 131.832 70.6629 132.592 71.6257L137.354 77.6559C138.445 79.037 140.32 79.5255 141.946 78.8521L148.341 76.2032C149.966 75.5299 150.947 73.8584 150.742 72.1109L149.845 64.4795C149.702 63.2612 150.149 62.0591 151.018 61.1933C151.027 61.184 151.037 61.1748 151.046 61.1659C151.912 60.3008 153.111 59.8555 154.327 59.9984L161.958 60.8949C163.706 61.1002 165.377 60.1195 166.051 58.4939L168.7 52.099C169.372 50.4724 168.884 48.5969 167.503 47.5063ZM133.333 50.9685C127.199 53.5094 120.166 50.5965 117.625 44.462C115.084 38.3275 117.998 31.2952 124.132 28.7543C130.266 26.2133 137.299 29.1263 139.84 35.2607C142.38 41.3949 139.467 48.4279 133.333 50.9685Z" fill="#CCD1DC"/>
</svg>
