<svg width="24" height="24" viewBox="0 0 24 24" fill="none" xmlns="http://www.w3.org/2000/svg">
<g clip-path="url(#clip0_1761_8832)">
<path d="M0 10.9961V17.999C0 19.6559 1.34315 20.999 3 20.999H21C22.6569 20.999 24 19.6559 24 17.999V10.9961C23.9725 10.998 23.9447 10.999 23.9167 10.999H0.0833334C0.055294 10.999 0.0275035 10.998 0 10.9961Z" fill="#374161"/>
<path d="M24 9.00291V6C24 4.34315 22.6569 3 21 3H3C1.34315 3 0 4.34315 0 6V9.00291C0.0275035 9.00098 0.055294 9 0.0833334 9H23.9167C23.9447 9 23.9725 9.00098 24 9.00291Z" fill="#374161"/>
</g>
<defs>
<clipPath id="clip0_1761_8832">
<rect width="24" height="24" fill="white"/>
</clipPath>
</defs>
</svg>
