<?xml version="1.0" encoding="utf-8"?>
<!-- Generator: Adobe Illustrator 27.0.1, SVG Export Plug-In . SVG Version: 6.00 Build 0)  -->
<svg version="1.1" id="Capa_1" xmlns="http://www.w3.org/2000/svg" xmlns:xlink="http://www.w3.org/1999/xlink" x="0px" y="0px"
	 viewBox="0 0 1000 450" style="enable-background:new 0 0 1000 450;" xml:space="preserve">
<style type="text/css">
	.st0{fill:#FFFFFF;}
	.st1{fill:#9200AD;}
</style>
<g>
	<path class="st0" d="M307.3,189.3c25.6,0,56.8,9.6,72.4,49.8c16.1-32.2,44.8-49.8,82.5-49.8c59.8,0,89.5,38.7,89.5,97.1v144.3
		h-34.2V300.4c0-49.3-16.6-82.5-60.8-82.5c-49.2,0-66.8,43.9-66.8,87.5v125.2h-34.2V293.4c0-45.8-11-75.4-56.8-75.4
		c-32.7,0-68.3,29.3-68.3,92v120.8h-34.2V247c0-12.6-0.5-35.7-2-51.8h32.7c1,12.6,2,30.2,2,40.3h1c7.5-14,18.6-25.8,32.3-33.9
		C275.8,193.4,291.4,189.2,307.3,189.3z"/>
	<path class="st0" d="M727.6,251.1c-10.1-19.6-31.7-33.2-57.8-33.2c-24.6,0-49.8,10.5-49.8,36.6c0,22,17.6,32.1,56.3,40.3
		c55.3,11.6,81.4,32.2,81.4,68.9c0,53.8-45.2,72.9-88.5,72.9c-35.7,0-71.4-14.1-93-45.8l27.2-20.1c6.9,11.1,16.6,20.3,28,26.7
		c11.4,6.4,24.3,9.8,37.4,9.9c29.3,0,55.3-10.5,55.3-41.2c0-24.6-24.6-34.7-69.6-45.3c-27.7-6.5-67.4-18.6-67.4-63.3
		c0-47.6,41.2-68.4,84-68.4c32.7,0,67.4,15.6,82.4,42.3L727.6,251.1z"/>
	<path class="st0" d="M823.1,301.4h1.5l108.6-106.2h49.3L863.8,302.9l130.7,127.7h-50.3L824.6,307h-1.5v123.7h-34.2V50.5h34.2V301.4
		z"/>
	<path class="st1" d="M118.8,160.6L232,95.3l-13.2-22.8l-100,57.8l-100-57.8L5.5,95.3l113.2,65.4h0.1V160.6L118.8,160.6L118.8,160.6
		z"/>
	<path class="st1" d="M168.7,77.8l25-35l-22.4-16l-24.6,34.5C155.2,65.1,162.7,70.8,168.7,77.8z"/>
	<path class="st1" d="M121,55.1c4.4,0,8.8,0.4,13.1,1.2v-43h-28.6v43.4C110.6,55.6,115.8,55.1,121,55.1z"/>
	<path class="st1" d="M93.4,60.3L67.8,26.4l-22,16.5l25.6,34.2C77.4,70,84.9,64.2,93.4,60.3z"/>
</g>
</svg>
