<svg width="280" height="93" viewBox="0 0 280 93" fill="none" xmlns="http://www.w3.org/2000/svg">
<path d="M89.4268 46.5225C89.4268 71.8811 69.5039 92.4551 44.9478 92.4551C20.3917 92.4551 0.46875 71.8811 0.46875 46.5225C0.46875 21.1638 20.3917 0.589844 44.9478 0.589844C69.5039 0.589844 89.4268 21.1638 89.4268 46.5225Z" fill="white"/>
<path d="M86.805 46.5254C86.805 70.4486 67.9632 89.9062 44.797 89.9062C21.6309 89.9062 2.78906 70.4486 2.78906 46.5254C2.78906 22.6021 21.7853 3.14453 44.9515 3.14453C68.1177 3.14453 86.805 22.6021 86.805 46.5254Z" fill="white"/>
<path d="M44.9488 90.3866C21.4737 90.3866 2.47749 70.7695 2.47749 46.5273C2.32305 22.285 21.4737 2.66797 44.9488 2.66797C68.4239 2.66797 87.4201 22.285 87.4201 46.5273C87.4201 70.7695 68.4239 90.3866 44.9488 90.3866ZM44.9488 3.78439C22.0915 3.78439 3.55858 22.923 3.55858 46.5273C3.55858 70.1315 22.0915 89.2701 44.9488 89.2701C67.8061 89.2701 86.339 70.1315 86.339 46.5273C86.339 22.923 67.8061 3.78439 44.9488 3.78439Z" fill="#CCD1DC"/>
<path d="M87.4192 46.5273C87.4192 70.7695 68.4229 90.3866 44.9479 90.3866C21.4728 90.3866 2.47656 70.7695 2.47656 46.5273C2.47656 22.285 21.4728 2.66797 44.9479 2.66797C68.4229 2.66797 87.4192 22.285 87.4192 46.5273Z" fill="#CCD1DC"/>
<path d="M46.6483 47.6399C46.185 47.4804 42.6328 46.0451 42.6328 45.8856C42.6328 45.7261 42.6328 45.2476 43.0961 45.4071L46.9572 47.002C47.266 47.1615 47.4205 47.7994 46.6483 47.6399Z" fill="white"/>
<path d="M82.0145 46.5233C82.0145 67.7352 65.4893 84.8005 44.9487 84.8005C24.408 84.8005 7.88281 67.7352 7.88281 46.5233C7.88281 25.3113 24.408 8.24609 44.9487 8.24609C65.4893 8.24609 82.0145 25.3113 82.0145 46.5233Z" fill="white"/>
<path d="M44.9511 85.2809C24.256 85.2809 7.42188 67.8966 7.42188 46.5252C7.42188 25.1538 24.1015 7.76953 44.9511 7.76953C65.8006 7.76953 82.4802 25.1538 82.4802 46.5252C82.4802 67.8966 65.6462 85.2809 44.9511 85.2809ZM44.9511 8.88595C24.7193 8.88595 8.34852 25.6322 8.34852 46.5252C8.34852 67.4182 24.7193 84.1644 44.7966 84.1644C65.0284 84.1644 81.2447 67.2587 81.2447 46.5252C81.3992 25.7917 65.0284 8.88595 44.9511 8.88595Z" fill="#CCD1DC"/>
<path d="M78.3087 46.523C78.3087 65.6616 63.3279 81.132 44.795 81.132C26.262 81.132 11.2812 65.6616 11.2812 46.523C11.2812 27.3844 26.262 11.9141 44.795 11.9141C63.3279 11.9141 78.3087 27.3844 78.3087 46.523Z" fill="white"/>
<mask id="mask0_14451_28273" style="mask-type:luminance" maskUnits="userSpaceOnUse" x="11" y="11" width="68" height="71">
<path d="M78.3087 46.523C78.3087 65.6616 63.3279 81.132 44.795 81.132C26.262 81.132 11.2812 65.6616 11.2812 46.523C11.2812 27.3844 26.262 11.9141 44.795 11.9141C63.3279 11.9141 78.3087 27.3844 78.3087 46.523Z" fill="white"/>
</mask>
<g mask="url(#mask0_14451_28273)">
<path d="M36.7457 11.9158C37.3635 12.0753 37.9813 12.2347 38.599 12.2347C38.9079 12.2347 38.9079 11.9158 38.7535 11.9158C38.599 11.9158 36.5913 11.4373 36.2824 11.4373C35.9735 11.4373 35.8191 11.2778 35.5102 11.1183C35.3558 11.1183 35.0469 10.7994 35.0469 11.1183V11.2778C35.3558 11.5968 36.5913 11.7563 36.7457 11.9158Z" fill="#CCD1DC"/>
<path d="M62.0751 70.6085C62.384 70.4491 62.5385 70.1301 62.2296 70.2896C61.4574 70.6085 60.8396 70.768 60.0674 70.768C59.7585 70.6085 59.2952 71.087 59.7585 71.087C60.3763 71.087 61.3029 70.9275 62.0751 70.6085Z" fill="#CCD1DC"/>
<path d="M65.9414 69.8127C66.0958 69.3342 65.7869 69.9722 65.478 70.2911C61.617 72.8429 56.9838 73.9594 52.505 73.6404C51.4239 73.6404 50.4972 73.6404 49.4162 73.6404C49.2617 73.6404 49.1073 73.9594 48.9528 73.9594C48.7984 73.9594 48.3351 74.1189 48.9528 74.2783C49.5706 74.4378 52.0417 74.1189 52.1961 74.2783C55.1305 74.4378 58.0649 73.9594 60.8448 73.1619C61.4626 72.843 65.3236 71.0886 65.9414 69.8127Z" fill="#CCD1DC"/>
<path d="M41.691 33.1296C41.691 32.8106 41.9999 32.9701 42.3088 32.8106C42.6177 32.6511 43.8532 33.4486 44.3165 33.2891C45.0887 33.1296 45.7065 33.2891 46.3243 33.6081C46.942 34.0865 47.7142 34.4055 48.4864 34.565C48.7953 34.565 48.9498 34.884 48.7953 35.0435C48.6409 35.203 49.722 36.4789 49.8764 36.7978C50.0309 37.1168 50.4942 37.7548 50.9575 38.7117C51.4208 39.6686 53.1197 40.1471 53.4286 40.1471C53.7374 40.1471 53.8919 40.6256 54.2008 40.4661C54.5096 40.3066 54.2008 40.1471 54.2008 39.9876C54.2008 39.8281 54.3552 39.9876 54.5097 39.9876C54.6641 39.9876 54.8185 40.3066 54.973 40.1471C55.1274 39.9876 55.1274 39.9876 55.2819 40.1471C55.4363 40.3066 55.5907 40.4661 55.7452 40.4661C55.8996 40.4661 55.8996 40.4661 55.7452 40.1471C55.5907 39.8281 55.7452 39.8281 56.0541 39.9876C56.3629 40.1471 56.6718 40.6256 56.8263 40.6256C56.9807 40.6256 56.8263 40.3066 56.6718 40.1471C56.5174 39.9876 56.8263 39.9876 56.9807 40.1471C57.1351 40.3066 57.5985 40.9445 58.0618 40.9445C58.5251 40.9445 58.0618 40.6256 58.0618 40.3066C58.0618 39.9876 58.2162 40.3066 58.3707 40.4661C58.5251 40.6256 59.4518 42.0609 59.6062 41.9015C59.7606 41.742 60.8417 43.8153 61.1506 44.7722C61.4595 45.7292 61.6139 45.5697 61.6139 45.4102C60.3784 40.4661 58.834 40.1471 58.3707 39.8281C57.9074 39.5091 51.1119 37.9143 51.1119 37.5953C50.6486 36.9573 50.1853 36.1599 49.722 35.6814C49.722 35.6814 48.7953 34.246 48.4864 34.0865C47.5598 33.2891 46.4787 32.6511 45.3976 32.0132C44.6254 31.6942 43.8532 31.5347 43.081 31.3752C41.9999 31.0563 41.9999 31.0563 41.3822 30.8968C40.7644 30.7373 40.1466 31.6942 39.9922 31.8537C40.4555 32.3322 41.2277 33.1296 41.8455 33.927C42.1544 34.0865 42.4632 34.0865 42.6177 34.0865C42.7721 34.246 41.691 33.4486 41.691 33.1296Z" fill="#CCD1DC"/>
<path d="M50.1888 67.2571L49.4166 67.0977C49.1077 67.0977 48.9532 67.4166 49.2621 67.4166C49.571 67.5761 49.8799 67.5761 50.1888 67.5761C50.3432 67.5761 50.4976 67.2571 50.1888 67.2571Z" fill="#CCD1DC"/>
<path d="M48.333 65.0249C48.6419 64.8654 48.4874 64.7059 48.4874 64.5464C48.1785 64.3869 47.7152 64.2274 47.4063 64.2274C47.0975 64.0679 46.7886 64.5464 47.2519 64.7059C47.7152 64.8654 47.8697 65.0249 48.333 65.0249Z" fill="#CCD1DC"/>
<path d="M48.9584 66.1406C48.6495 66.1406 48.1862 65.9811 47.8773 65.8216C47.5684 65.6621 47.414 66.1406 47.5684 66.1406C47.8773 66.3001 48.3406 66.3001 48.6495 66.4596C48.8039 66.4596 49.1128 66.1406 48.9584 66.1406Z" fill="#CCD1DC"/>
<path d="M49.878 68.6906C50.4958 68.8504 51.268 69.0102 51.8858 68.8504C52.1946 68.8504 52.1946 68.5309 52.1946 68.5309C52.1946 68.5309 52.0402 68.3711 51.7313 68.5309C51.268 68.5309 50.6502 68.5309 50.1869 68.3711C50.0325 68.3711 49.7236 68.5309 49.878 68.6906Z" fill="#CCD1DC"/>
<path d="M50.0343 69.9719C50.652 70.1316 51.4243 70.2914 52.042 70.1316C52.3509 70.1316 52.3509 69.8121 52.3509 69.8121C52.3509 69.8121 52.042 69.6523 51.8876 69.8121C51.4243 69.8121 50.8065 69.8121 50.3432 69.6523C50.1887 69.6523 49.8798 69.9719 50.0343 69.9719Z" fill="#CCD1DC"/>
<path d="M50.8155 71.0852C51.4333 71.2449 52.2055 71.4047 52.8233 71.2449C53.1322 71.2449 53.1321 70.9254 53.1321 70.9254C53.1321 70.9254 52.9777 70.7656 52.6688 70.9254C52.2055 70.9254 51.5877 70.9254 51.1244 70.7656C50.97 70.7656 50.6611 70.9254 50.8155 71.0852Z" fill="#CCD1DC"/>
<path d="M64.8589 32.4911C60.9979 28.8229 55.9013 26.7495 50.6503 26.909C50.8048 26.1116 50.9592 25.1546 51.1136 23.8787C51.7314 23.8787 52.8125 23.8787 53.5847 24.0382C53.8936 24.0382 54.3569 23.8787 54.2025 23.5597C54.048 23.2408 53.7391 22.4433 53.1214 22.2838C52.8125 22.2838 51.8858 21.6459 51.2681 21.4864C51.4225 19.2536 51.577 16.7017 51.577 14.4689C51.7314 9.68426 49.1059 5.85654 44.936 5.69705C44.1638 5.69705 43.8549 5.21859 44.0093 4.26166C44.3182 2.66677 44.7816 1.07189 45.3993 -0.522994C45.7082 -1.00146 45.2449 -1.7989 44.6271 -1.63941C44.1638 -1.47992 43.7005 -1.47992 43.2371 -1.63941C42.9283 -1.63941 42.6194 -1.63941 42.3105 -1.32044C41.8472 -1.16095 41.5383 -0.682482 41.3838 -0.204017C41.2294 0.274448 40.3028 2.50728 40.1483 2.98575C39.9939 3.46421 39.8394 4.89961 39.5306 4.42114C39.3761 4.26166 39.2217 4.10217 39.0672 3.94268C38.9128 2.3478 38.7583 0.752913 38.6039 0.114959C38.6039 -0.363506 38.1406 -0.841971 37.6773 -0.841971C37.3684 -0.841971 37.0595 -0.682482 36.9051 -0.363506C36.5962 -0.0445291 36.4417 0.274447 36.1328 0.593424C35.824 0.912401 35.3606 1.07189 34.8973 0.912401C34.434 0.752913 33.9707 0.912401 33.6618 1.39087C33.3529 1.86933 32.7351 1.86933 32.2718 1.55035C31.9629 1.55035 31.6541 1.23138 31.3452 1.23138C31.0363 1.23138 30.7274 1.39087 30.8819 1.70984C31.0363 3.14524 31.1907 4.74012 31.3452 6.335L31.4996 9.04631C31.4996 10.1627 31.4996 11.1197 31.3452 12.2361C31.3452 13.0335 31.3452 13.9904 31.3452 14.9474C31.3452 15.4258 31.3452 15.9043 31.1907 16.3828C30.8819 17.6587 30.7274 18.7751 30.7274 20.051C30.7274 21.4864 30.7274 23.8787 30.7274 25.7926C30.7274 27.8659 30.4185 31.3747 30.573 34.4049C30.1096 34.7239 29.6463 34.8834 29.3374 35.2024L29.4919 35.0429C29.183 32.0126 29.6463 28.3444 29.0286 24.8357C28.7197 23.2408 27.1753 23.2408 26.7119 24.6762C26.5575 25.1546 26.4031 25.4736 26.2486 25.9521C26.0942 26.59 25.6309 26.909 25.0131 26.909C24.2409 27.0685 23.3142 27.228 22.542 27.547C22.2332 27.7064 22.0787 28.1849 22.0787 28.5039C22.2332 29.7798 22.3876 32.6506 22.542 36.4783C22.0787 36.6378 21.7698 36.7973 21.4609 37.2757C20.6887 38.2327 20.5343 39.6681 20.9976 40.944C21.6154 42.5389 21.6154 44.2932 20.9976 45.8881C19.9165 49.2374 20.5343 52.9056 22.6965 55.6169C22.6965 55.6169 22.6965 55.7764 22.8509 55.7764C23.0054 55.9359 23.1598 56.0954 23.4687 56.2549C23.7776 64.8672 24.0864 72.8416 24.0864 76.1909C24.0864 76.6694 24.3953 77.3073 24.8586 77.4668C25.4764 77.7858 26.4031 77.6263 26.8664 77.1478C27.3297 76.6694 27.793 76.9883 27.793 77.6263C27.9475 78.1048 28.2564 78.5832 28.5652 78.9022C28.8741 79.2212 29.3374 79.5401 29.6463 79.8591C30.2641 80.3376 30.8819 80.1781 31.0363 79.6996C31.0363 76.1909 30.8819 70.6088 30.573 66.9406H30.4185C33.044 70.2898 36.4417 72.6822 40.3028 74.1175C41.075 77.3073 42.1561 83.5274 42.1561 83.6869C42.3105 84.3248 42.9283 84.9628 44.1638 85.1222C44.936 85.1222 45.5538 84.9628 46.326 84.6438C46.9437 84.4843 47.5615 84.6438 48.0248 85.1222C48.9515 85.6007 50.187 85.7602 51.2681 85.2817C51.7314 85.1222 52.0403 84.6438 51.8858 84.1653L49.8781 75.7124H50.187C51.1136 75.8719 52.0403 75.8719 52.9669 75.5529C56.2102 75.7124 59.299 75.0745 62.2334 73.7986C64.3956 72.8416 66.4033 71.2468 67.6388 69.1734C68.411 67.738 68.7199 65.9836 68.411 64.3888C68.2566 63.2723 67.7933 62.3154 67.3299 61.518V61.3585C65.3222 58.8067 63.9322 55.7764 63.16 52.5866C63.0056 51.1512 63.0056 49.8753 63.16 48.4399C63.3145 47.3235 63.3145 46.0476 63.16 44.9312C62.8512 43.4958 62.3878 42.0604 61.6156 40.7845C61.6156 40.7845 63.4689 41.5819 65.0133 42.3794C65.6311 42.6983 65.94 42.2199 65.6311 41.7414C65.4767 41.4224 65.1678 41.1035 65.0133 40.625C64.7045 40.306 64.55 39.8276 64.55 39.3491C64.7045 38.2327 64.3956 37.2757 63.9322 36.3188C63.16 34.4049 63.6234 33.2885 64.55 33.129C65.0133 33.129 65.0133 32.8101 64.8589 32.4911ZM50.0325 26.7495C49.1059 26.7495 46.1715 27.0685 45.2449 27.3875C45.2449 27.0685 45.3993 25.1546 45.8626 24.9951C46.326 24.8357 48.4881 24.6762 48.797 24.6762C49.4148 24.6762 49.8781 24.5167 50.3414 24.5167C50.187 25.3141 50.187 25.9521 50.0325 26.7495ZM33.3529 21.8054C33.6618 21.8054 33.9707 21.8054 34.2796 21.8054C34.8973 21.9649 34.434 21.6459 34.2796 21.4864C33.9707 21.3269 33.6618 21.3269 33.1985 21.3269C31.9629 21.1674 32.2718 20.37 32.5807 20.37C32.8896 20.37 34.1251 20.5295 34.7429 20.5295C35.3606 20.5295 35.0518 20.37 34.7429 20.2105C34.434 20.051 33.5074 20.051 33.044 19.8915C31.6541 19.5725 31.9629 18.7751 32.2718 18.9346C32.5807 19.0941 33.8162 19.0941 34.1251 19.2536C34.434 19.413 34.434 18.9346 34.1251 18.7751L32.2718 18.2966C32.1174 18.2966 31.8085 17.4992 32.7351 17.4992C33.1985 17.4992 34.7429 17.8182 35.2062 17.8182C35.6695 17.8182 35.5151 17.6587 35.2062 17.4992C34.8973 17.3397 33.1985 17.0207 32.7351 16.8612C32.2718 16.7017 31.8085 16.2233 32.5807 16.2233C33.3529 16.2233 34.1251 16.3828 34.7429 16.5423C35.3606 16.7017 35.0518 16.2233 34.7429 16.2233C34.434 16.2233 33.044 15.7448 32.5807 15.5853C32.1174 15.4258 31.9629 14.9474 32.2718 14.9474C32.5807 14.9474 34.434 15.4258 34.8973 15.5853C35.3606 15.7448 35.3606 15.2663 34.8973 15.1069L32.1174 14.3094C31.4996 14.1499 31.6541 13.831 32.1174 13.9904C32.5807 14.1499 34.434 14.4689 35.0518 14.4689C35.6695 14.4689 35.2062 14.1499 34.8973 13.9904C33.9707 13.831 33.1985 13.6715 32.4263 13.3525C32.1174 13.193 32.1174 12.874 32.4263 13.0335C32.7351 13.193 33.8162 13.0335 33.5073 12.874C33.1985 12.7145 33.1985 12.7145 33.5073 12.7145C33.8162 12.7145 34.1251 13.0335 34.5884 13.0335C35.0518 13.0335 34.8973 13.0335 34.5884 12.7145C34.1251 12.555 33.6618 12.3956 33.1985 12.2361C32.8896 12.0766 32.5807 11.5981 33.044 11.7576C33.5074 11.9171 34.2796 12.0766 34.8973 12.2361C35.5151 12.3956 35.2062 12.0766 34.8973 12.0766C34.1251 11.9171 33.5074 11.5981 32.8896 11.2791C32.1174 10.9602 32.5807 10.8007 32.8896 10.8007C33.3529 10.9602 33.8162 11.1197 34.1251 11.2791C34.2796 11.2791 34.5884 11.2791 34.1251 11.1197C33.6618 10.9602 33.044 10.6412 32.7351 10.4817C32.4263 10.3222 32.2718 10.0032 32.7351 10.1627C33.1985 10.3222 34.1251 10.6412 34.7429 10.6412C35.3606 10.6412 35.5151 10.4817 34.8973 10.3222C34.1251 10.1627 33.5074 9.84375 32.8896 9.68426C32.7351 9.68426 32.5807 9.36528 32.8896 9.36528C33.1985 9.36528 33.9707 9.68426 34.2796 9.68426C34.5884 9.68426 34.7429 9.52477 34.1251 9.52477C33.5073 9.52477 33.3529 9.20579 32.7351 9.04631C32.1174 8.88682 32.5807 8.56784 32.8896 8.56784C33.1985 8.56784 33.9707 8.88682 34.434 8.88682C34.8973 8.88682 34.5884 8.72733 33.9707 8.72733C33.3529 8.56784 32.7351 8.24886 32.2718 7.92989C31.9629 7.7704 31.9629 7.61091 32.2718 7.61091C32.7351 7.7704 33.3529 7.92989 33.8162 8.08938C34.2796 8.24886 34.434 7.92989 34.1251 7.7704C33.8162 7.61091 32.5807 7.13245 32.2718 6.97296C31.9629 6.81347 31.8085 6.65398 32.1174 6.65398C32.5807 6.81347 33.044 6.81347 33.3529 6.97296C33.6618 7.13245 34.1251 6.81347 33.6618 6.65398C33.1985 6.49449 32.2718 6.17552 31.8085 6.01603C31.3452 5.85654 31.6541 5.69705 31.8085 5.69705C31.9629 5.69705 33.1985 6.01603 33.5073 6.01603C33.9707 6.01603 33.8162 5.69705 33.5073 5.69705C32.8896 5.53756 32.2718 5.37807 31.6541 4.89961C31.3452 4.58063 31.4996 4.58063 31.8085 4.74012C32.1174 4.74012 32.5807 4.89961 32.7351 4.89961C32.8896 4.89961 33.3529 4.74012 32.7351 4.74012C32.7351 4.74012 32.2718 4.74012 31.9629 4.42114C31.6541 4.26166 31.6541 4.10217 31.8085 4.10217C31.9629 4.10217 32.2718 4.10217 32.4263 4.26166C32.5807 4.26166 33.5074 4.26166 32.8896 4.10217C32.2718 3.94268 32.4263 3.78319 32.1174 3.6237C31.8085 3.46421 31.3452 3.30473 31.6541 3.30473C31.9629 3.30473 32.1174 3.30473 32.5807 3.46421C33.044 3.6237 33.5073 3.78319 33.3529 3.46421C33.1985 3.14524 33.044 3.30473 31.8085 3.14524C30.573 2.98575 31.0363 2.82626 31.1907 2.50728C31.3452 2.18831 31.4996 2.3478 31.8085 2.3478C32.4263 2.66677 33.1985 2.50728 33.6618 2.02882C33.9707 1.55035 34.2796 1.39087 34.5884 1.55035C35.2062 1.70984 35.6695 1.55035 36.1328 1.07189C36.2873 0.752913 36.5962 0.593424 36.7506 0.274448L36.9051 -0.0445292C37.0595 -0.204018 37.2139 -0.363506 37.5228 -0.363506C37.6773 -0.363506 37.8317 -0.0445291 37.9861 0.274448C38.1406 0.593424 38.1406 1.39087 38.1406 2.18831C38.1406 2.98575 38.295 4.10217 38.4495 5.21859C38.6039 6.335 39.0672 6.17552 39.2217 6.17552C39.685 6.17552 39.9939 5.85654 39.9939 5.53756C40.1483 5.53756 40.3028 5.37807 40.1483 5.21859C40.1483 5.0591 40.3028 4.74012 40.3028 4.74012C40.6116 4.58063 40.6116 4.26166 40.6116 4.10217C40.6116 3.94268 40.7661 3.46421 40.9205 3.14524C41.075 2.82626 40.9205 2.66677 40.9205 2.3478C40.9205 2.02882 41.075 1.86933 41.2294 1.55035C41.2294 1.55035 41.3838 1.55035 41.5383 1.70984C41.6927 1.86933 42.1561 1.39087 42.1561 1.23138C42.3105 0.752913 42.4649 0.433936 42.6194 -0.0445292C42.7738 -0.363506 42.9283 -0.682482 42.9283 -1.00146C43.3916 -0.841971 44.0093 -0.841971 44.4727 -1.00146C44.6271 -1.00146 44.7816 -1.00146 44.7816 -0.841971C44.7816 -0.682482 44.936 -0.682482 44.936 -0.522994C44.936 -0.363506 44.936 -0.204018 44.936 -0.0445292L44.7816 0.433936C44.3182 1.70984 44.0093 3.14524 43.7005 4.58063C43.7005 4.89961 43.7005 5.0591 43.7005 5.37807C43.7005 5.53756 43.8549 5.85654 44.0093 6.01603C44.3182 6.335 44.6271 6.49449 44.936 6.49449C48.0248 6.65398 50.3414 9.0463 50.9592 12.555C51.1136 13.3525 51.1136 13.9904 51.1136 14.7879C51.1136 16.8612 50.9592 19.2536 50.8048 21.6459C50.4959 21.6459 50.187 21.6459 50.0325 21.6459C49.5692 21.6459 49.1059 21.6459 48.6426 21.4864C47.7159 21.1674 46.4804 21.1674 45.5538 21.4864C45.5538 20.689 45.5538 19.732 45.5538 18.9346H45.7082C45.7082 18.9346 45.8626 19.0941 45.8626 19.413C45.8626 19.732 45.8626 20.8484 45.8626 21.0079C45.8626 21.1674 46.1715 21.0079 46.1715 20.8484C46.1715 20.689 46.1715 20.37 46.1715 19.8915C46.1715 19.413 46.1715 18.1371 46.0171 17.6587C46.0171 17.3397 46.0171 16.8612 46.0171 16.5423C45.8626 16.2233 45.7082 16.3828 45.7082 16.7017C45.7082 17.0207 45.7082 17.3397 45.7082 17.6587C45.7082 17.9777 45.5538 17.8182 45.3993 17.8182C45.3993 17.4992 45.3993 17.3397 45.3993 17.0207C45.3993 16.7017 45.2449 16.2233 45.2449 15.9043C45.0904 14.7879 44.7815 13.6715 44.1638 12.7145C44.0093 12.3956 43.7005 12.2361 43.3916 12.2361C43.3916 11.9171 43.0827 11.9171 42.9283 11.9171C42.7738 11.7576 42.6194 11.5981 42.6194 11.4386C42.6194 11.2791 42.9283 11.1197 42.4649 10.9602C42.0016 10.8007 42.1561 10.9602 42.0016 11.1197C41.8472 11.2791 41.3838 11.2791 41.6927 11.4386C42.0016 11.5981 42.3105 11.7576 42.3105 11.7576C42.3105 11.7576 42.1561 12.0766 42.0016 11.9171C41.8472 11.7576 41.3838 11.7576 41.075 11.7576C40.7661 11.7576 40.6116 11.9171 40.7661 12.0766C40.9205 12.0766 41.5383 12.0766 41.6927 12.2361C41.8472 12.3956 42.1561 12.2361 41.8472 13.3525C41.6927 13.512 39.9939 16.7017 39.9939 16.7017C39.9939 16.7017 37.5228 19.413 37.5228 19.5725L36.7506 20.37C35.6695 21.4864 34.5884 22.7623 33.5073 24.0382L32.8896 23.7192C31.8085 22.9218 32.2718 21.9649 33.3529 21.8054ZM33.6618 25.4736C34.5884 23.5597 35.9784 21.9649 37.5228 20.5295C39.8394 18.4561 41.6927 15.9043 42.9283 12.874C42.9283 12.7145 43.0827 12.7145 43.0827 12.7145C43.2371 12.874 43.3916 13.193 43.546 13.512C43.546 13.512 43.8549 14.4689 43.7005 14.4689C43.546 14.4689 43.3916 14.3094 43.0827 14.3094C42.7738 14.3094 42.7738 14.4689 43.0827 14.6284C43.3916 14.7879 43.7005 15.1069 43.8549 15.2664C44.0093 15.4258 44.0093 15.9043 43.8549 15.7448C43.3916 15.5853 43.0827 15.2663 42.7738 14.9474C42.4649 14.6284 42.3105 15.1069 42.4649 15.2664C42.6194 15.4258 43.3916 16.2233 43.7005 16.3828C44.0093 16.5423 43.7005 16.7017 43.8549 17.1802C42.7738 18.4561 42.0016 19.8915 41.5383 21.4864C41.5383 21.6459 41.5383 21.6459 41.5383 21.8054C41.5383 21.9649 41.6927 22.1243 41.8472 22.2838C42.0016 22.4433 42.4649 22.4433 42.6194 22.2838C43.0827 21.9649 43.8549 21.8054 44.4727 21.9649C44.7816 22.1243 45.2449 22.1243 45.5538 21.8054C46.326 21.4864 47.2526 21.4864 48.0248 21.8054C48.4881 21.9649 49.1059 21.9649 49.5692 21.9649C49.8781 21.9649 50.187 21.9649 50.3414 21.9649L51.4225 22.2838C51.7314 22.4433 51.8858 22.6028 52.1947 22.7623C52.1947 22.9218 52.0403 22.9218 51.8858 22.9218C51.7314 22.9218 49.5692 23.2408 49.5692 23.2408H49.1059C48.797 22.9218 47.8704 22.4433 47.8704 22.1243C47.8704 21.8054 47.407 22.1243 47.5615 22.2838C47.7159 22.4433 48.3337 22.9218 48.4881 23.2408H47.8704C47.5615 22.9218 47.2526 22.6028 46.9437 22.2838C46.7893 22.1243 46.4804 22.2838 46.7893 22.4433C46.9437 22.6028 47.2526 22.9218 47.407 23.2408H47.2526C47.0982 23.2408 47.0982 23.2408 46.9437 23.0813C46.6348 22.9218 46.326 22.6028 46.0171 22.4433C45.8626 22.2838 45.5538 22.4433 45.5538 22.6028C45.5538 22.7623 46.326 23.2408 46.4804 23.4003V23.5597H46.326C46.1715 23.5597 46.0171 23.5597 46.0171 23.4003C45.7082 23.2408 45.3993 22.7623 45.2449 22.6028C45.0904 22.4433 44.936 22.7623 45.0904 22.9218C45.2449 23.0813 45.5538 23.2408 45.7082 23.5597V23.7192L45.3993 23.8787L45.2449 24.1977C45.0904 23.8787 44.7816 23.7192 44.4727 23.5597C44.1638 23.4003 44.0093 23.4003 44.1638 23.7192C44.3182 24.0382 44.936 24.1977 44.936 24.3572V24.5167H44.7816C44.6271 24.3572 44.6271 24.3572 44.3182 24.1977C44.0093 24.0382 44.1638 24.6762 44.3182 24.8357L44.0093 25.1546C43.7005 24.8356 43.3916 24.6762 43.0827 24.5167C43.0827 24.5167 42.6194 24.3572 42.9283 24.6762C43.2371 24.9951 43.546 25.3141 43.546 25.4736C43.3916 25.6331 42.9283 25.3141 42.6194 25.1546C42.3105 24.9951 42.1561 25.1546 42.3105 25.3141C42.4649 25.4736 43.2371 25.6331 43.2371 25.9521C43.2371 26.271 43.2371 26.4305 42.7738 26.271C42.4649 26.1116 42.0016 25.9521 41.6927 25.7926C41.3838 25.6331 41.3838 25.9521 41.5383 26.1116C41.6927 26.271 42.4649 26.7495 42.3105 27.0685C42.1561 27.3875 41.2294 26.909 40.9205 26.7495C40.6116 26.59 40.4572 26.7495 40.6116 26.909C40.7661 27.0685 41.8472 27.547 41.6927 27.8659C41.5383 28.1849 40.6116 27.547 40.3028 27.228C39.9939 26.909 39.9939 27.228 40.1483 27.3875C40.3028 27.547 41.3838 28.0254 41.2294 28.3444C41.075 28.6634 39.8394 27.8659 39.5306 27.7064C39.2217 27.547 39.0672 27.8659 39.3761 28.0254C39.685 28.1849 41.075 28.8229 40.7661 29.3013C40.4572 29.7798 39.3761 28.8229 38.9128 28.5039C38.4495 28.1849 38.295 28.5039 38.6039 28.6634C38.9128 28.8229 39.685 29.3013 39.8394 29.4608C39.9939 29.6203 40.1483 29.9393 39.685 29.7798C39.0672 29.3013 38.295 28.9823 37.5228 28.8229C37.2139 28.8229 37.2139 29.1418 37.5228 29.3013C38.1406 29.4608 38.6039 29.7798 39.2217 30.0988C39.3761 30.2583 39.0672 30.2583 38.7583 30.2583C38.295 29.9393 37.8317 29.7798 37.3684 29.6203C37.2139 29.6203 36.7506 29.6203 37.2139 29.9393C37.6773 30.2583 38.4495 30.4177 38.1406 30.5772C37.6773 30.7367 37.2139 30.7367 36.7506 30.5772C35.2062 31.3747 33.8162 32.3316 32.5807 33.448C31.3452 33.767 30.4185 31.6936 31.9629 28.5039C32.2718 27.7064 33.5074 25.6331 33.6618 25.4736ZM30.573 36.3188C30.7274 36.3188 30.8819 36.3188 30.8819 36.3188C31.1907 36.4783 32.5807 37.2757 32.8896 37.4352C33.044 37.4352 33.044 37.5947 33.044 37.7542C33.044 37.9137 32.7351 37.9137 32.5807 37.9137C32.2718 37.7542 31.8085 37.4352 31.4996 37.2757C31.1907 37.1163 31.0363 36.9568 30.7274 36.9568L30.573 36.7973C30.4185 36.4783 30.4185 36.3188 30.573 36.3188ZM29.183 37.4352C29.183 37.4352 29.183 37.2757 29.3374 37.2757C29.4919 37.2757 29.6463 37.2757 29.6463 37.4352C30.573 37.9137 31.4996 38.3922 32.4263 38.7111C32.8896 38.8706 32.8896 38.8706 32.8896 38.8706C32.8896 38.8706 32.7351 39.1896 32.2718 39.1896C31.3452 39.0301 30.573 38.5516 29.8008 38.0732L29.3374 37.9137C29.183 37.7542 29.183 37.5947 29.183 37.4352ZM35.3606 48.1209C35.5151 48.1209 35.6695 48.2804 35.5151 48.2804C35.3606 48.2804 35.2062 48.4399 34.8973 48.4399C34.434 48.2804 33.9707 48.1209 33.5073 47.9615L33.044 47.802C32.8896 47.802 32.8896 47.6425 32.8896 47.483V47.3235C32.8896 47.3235 33.044 47.3235 33.1985 47.3235C33.3529 47.3235 35.0518 48.1209 35.3606 48.1209ZM31.6541 61.199C31.6541 61.199 31.9629 61.199 33.6618 61.8369C34.1251 61.9964 34.5884 62.1559 34.7429 62.3154C34.8973 62.4749 36.2873 62.7939 36.4417 63.1129C36.4417 63.2723 36.4417 63.2723 36.4417 63.4318C36.4417 63.4318 36.2873 63.7508 36.1328 63.7508C35.6695 63.5913 35.2062 63.4318 34.7429 63.2723C33.8162 62.9534 33.044 62.6344 32.1174 62.3154C31.8085 62.1559 31.4996 61.8369 31.6541 61.518C31.6541 61.3585 31.6541 61.3585 31.6541 61.199ZM37.2139 62.7939L36.9051 62.6344C36.7506 62.6344 36.7506 62.4749 36.7506 62.3154C36.7506 62.3154 36.7506 62.1559 36.9051 62.1559C37.0595 62.1559 37.2139 62.1559 37.2139 62.1559L37.5228 62.3154C37.8317 62.4749 39.0672 62.7939 39.0672 62.9534C39.0672 62.9534 39.0672 63.1129 39.0672 63.2723L38.9128 63.4318C38.4495 63.2723 37.8317 63.1129 37.2139 62.7939ZM38.7583 60.4016C38.7583 60.561 38.6039 60.561 38.4495 60.561C37.5228 60.4016 36.5962 60.0826 35.6695 59.7636H35.5151H35.3606C35.2062 59.7636 35.0518 59.6041 35.0518 59.4446C35.0518 59.2851 35.0518 58.9662 35.0518 58.9662C35.0518 58.9662 37.3684 59.6041 37.6773 59.6041C37.9861 59.6041 38.1406 59.6041 38.4495 59.7636C38.6039 59.9231 38.7583 60.2421 38.7583 60.4016ZM37.9861 58.6472C36.9051 58.4877 35.824 58.0092 34.8973 57.5308L34.1251 57.2118C33.1985 56.7333 32.4263 56.4143 32.1174 56.4143C31.1907 56.0954 29.8008 55.9359 29.9552 55.1384C29.9552 54.9789 30.1096 54.8195 30.1096 54.66C30.1096 54.66 30.2641 54.66 30.4185 54.66C30.573 54.8195 30.7274 54.8195 31.0363 54.9789C31.4996 55.1384 32.7351 55.7764 33.1985 55.9359C33.6618 56.0954 37.2139 57.5308 37.3684 57.5308C37.6773 57.5308 37.8317 57.6903 37.9861 57.8497V58.0092V58.3282C37.9861 58.3282 38.1406 58.6472 37.9861 58.6472ZM25.9397 49.2374C25.9397 49.0779 25.9397 48.9184 26.4031 49.0779L31.4996 51.1512C31.4996 51.3107 31.6541 51.4702 31.6541 51.4702C31.6541 51.6297 31.3452 51.6297 31.1907 51.6297L27.9475 50.3538C27.3297 50.1943 26.5575 49.8753 26.0942 49.5563C25.9397 49.3969 25.7853 49.3969 25.9397 49.2374ZM25.7853 54.1815C26.5575 54.5005 27.1753 54.8195 27.9475 55.2979C28.4108 55.6169 28.5652 56.7333 28.5652 56.7333C28.1019 56.5738 27.4841 56.4143 27.0208 56.2549C26.5575 56.0954 26.0942 55.9359 25.6309 55.6169C25.6309 55.4574 25.6309 55.2979 25.6309 55.1384C25.4764 54.9789 25.4764 54.1815 25.7853 54.1815ZM25.7853 57.5308C25.7853 57.3713 25.7853 56.8928 25.9397 56.8928C26.0942 56.8928 28.5652 57.6903 28.7197 57.6903C29.183 58.0092 29.183 58.9662 29.183 58.9662L29.0286 59.1256C28.8741 59.1256 26.8664 58.3282 26.7119 58.3282C26.4031 58.3282 26.2486 58.1687 25.9397 58.0092C25.7853 58.0092 25.6309 57.8497 25.7853 57.5308ZM27.3297 51.1512C27.3297 50.9917 27.4841 50.8323 27.4841 50.8323C28.2564 50.9917 28.8741 51.3107 29.4919 51.6297L30.2641 51.9487C30.2641 52.1082 30.4185 52.1082 30.2641 52.2676C30.2641 52.2676 30.2641 52.5866 30.1096 52.5866C29.9552 52.5866 29.9552 52.5866 29.9552 52.4271C29.9552 52.2677 27.3297 51.4702 27.3297 51.1512ZM37.5228 56.4143C37.5228 56.5738 37.5228 56.7333 37.3684 56.7333C35.824 56.2549 34.2796 55.6169 32.7351 54.9789C32.7351 54.9789 30.7274 54.022 30.4185 53.8625C30.1096 53.703 30.573 53.5436 30.573 53.3841C30.7274 53.2246 30.8819 53.2246 31.0363 53.3841C31.1907 53.5436 33.3529 54.1815 33.6618 54.341L34.2796 54.66C34.7429 54.8195 36.2873 55.4574 36.4417 55.4574H36.5962C36.9051 55.4574 37.0595 55.6169 37.2139 55.7764C37.5228 55.7764 37.5228 56.4143 37.5228 56.4143ZM37.2139 54.8195C37.2139 54.979 36.9051 54.9789 36.7506 54.9789C36.5962 54.9789 32.8896 53.3841 32.4263 53.2246C31.9629 53.0651 31.1907 52.9056 31.1907 52.7461C31.1907 52.5866 31.3452 51.6297 32.8896 52.2676C33.1985 52.4271 36.7506 53.5436 36.7506 53.5436C37.0595 53.703 37.0595 54.022 37.0595 54.341C37.0595 54.341 37.2139 54.5005 37.2139 54.8195ZM25.9397 42.2199C26.0942 42.0604 26.4031 41.9009 26.7119 42.0604C26.8664 42.2199 31.8085 44.1337 32.2718 44.2932C32.4263 44.2932 32.4263 44.4527 32.5807 44.4527C32.5807 44.7717 32.5807 45.2502 32.5807 45.5691C32.4263 45.7286 32.2718 45.7286 32.1174 45.7286C31.8085 45.5691 26.5575 43.3363 26.2486 43.0173C25.9397 42.6983 26.0942 42.8578 26.0942 42.8578C25.9397 42.6983 25.9397 42.3794 25.9397 42.2199ZM25.9397 44.2932L26.7119 44.6122L27.1753 44.7717L30.573 46.2071L31.1907 46.5261C31.3452 46.5261 31.3452 46.6856 31.3452 46.845C31.3452 47.0045 31.3452 47.0045 31.3452 47.164C31.3452 47.164 31.3452 47.483 30.4185 47.3235C29.183 47.0045 25.322 45.8881 25.6309 44.7717C25.6309 44.4527 25.9397 44.1337 25.9397 44.2932ZM35.0518 49.5563L34.5884 49.3969C33.9707 49.2374 33.3529 49.0779 32.7351 48.7589C32.4263 48.5994 32.4263 48.4399 32.4263 48.4399C32.4263 48.4399 32.5807 48.2804 32.8896 48.2804C33.1985 48.2804 33.9707 48.5994 34.5884 48.7589C34.8973 48.7589 35.0518 48.9184 35.3606 49.0779C35.5151 49.0779 35.6695 49.2374 35.6695 49.2374V49.3969C35.3606 49.7158 35.2062 49.7158 35.0518 49.5563ZM32.1174 43.0173C31.1907 42.6983 30.2641 42.3794 29.4919 42.0604C28.7197 41.7414 28.1019 41.5819 27.3297 41.2629C27.1753 41.2629 27.1753 41.1035 27.1753 40.944C27.1753 40.7845 27.3297 40.306 27.4841 40.306C27.6386 40.306 27.793 40.306 27.9475 40.306C28.5652 40.625 29.3374 40.944 29.9552 41.2629C30.4185 41.4224 30.7274 41.5819 31.1907 41.7414C31.6541 41.9009 31.9629 42.0604 32.1174 42.0604C32.2718 42.0604 32.2718 42.2199 32.2718 42.2199C32.2718 42.5389 32.2718 42.6983 32.1174 43.0173ZM28.2564 38.7111C28.4108 38.7111 28.5652 38.7111 28.7197 38.8706C28.8741 39.0301 30.8819 39.8276 31.9629 40.306C32.1174 40.306 32.4263 40.4655 32.4263 40.625C32.4263 40.944 32.1174 41.1035 31.9629 41.1035C30.7274 40.625 29.3374 40.1465 28.2564 39.3491L28.1019 39.0301L28.2564 38.7111ZM23.0054 28.5039L25.1675 29.3013C25.322 29.3013 25.4764 29.1418 25.1675 28.9823C24.8586 28.8229 23.932 28.1849 23.6231 28.0254C23.3142 27.8659 23.7776 27.8659 23.932 27.8659C24.0864 27.8659 24.8586 28.1849 25.1675 28.1849C25.4764 28.1849 25.6309 28.0254 25.4764 28.0254C25.322 27.8659 25.1675 27.7064 25.0131 27.7064C25.6309 27.547 26.2486 27.0685 26.4031 26.4305C26.5575 25.9521 26.7119 25.6331 26.8664 25.1546C27.0208 24.5167 27.4841 24.1977 27.793 24.3572C28.1019 24.5167 28.4108 24.6762 28.5652 25.3141C28.8741 27.3875 29.0286 29.4608 28.8741 31.5342C28.8741 32.8101 28.8741 34.086 29.0286 35.3619C28.4108 35.8403 27.9475 36.3188 27.3297 36.9568C27.1753 36.9568 27.0208 36.9568 26.8664 36.9568C26.5575 36.9568 26.2486 36.6378 26.5575 36.6378C26.8664 36.6378 27.0208 36.3188 26.8664 36.3188C26.5575 36.3188 26.4031 36.3188 26.0942 36.1593C25.6309 35.9998 25.7853 35.8403 25.9397 35.6809C26.2486 35.6809 26.5575 35.8403 26.7119 35.9998C27.0208 36.1593 27.3297 35.6809 26.8664 35.6809C26.4031 35.6809 25.7853 35.2024 25.322 35.0429C24.8587 34.8834 24.7042 34.5644 25.0131 34.7239C25.4764 34.8834 25.9397 34.8834 26.4031 34.8834C26.8664 34.8834 26.7119 34.5644 26.4031 34.5644C26.0942 34.5644 25.1675 34.4049 24.8586 34.2455C24.5498 34.086 24.5498 33.767 24.8586 33.767C25.4764 33.9265 26.0942 34.086 26.7119 34.4049C27.0208 34.5644 27.1753 34.086 26.5575 33.9265C25.9397 33.767 25.322 33.448 24.7042 33.2885C24.5498 33.2885 24.3953 32.9696 24.8586 32.9696C25.322 32.9696 26.2486 33.2885 26.5575 33.448C26.8664 33.6075 26.8664 33.2885 26.4031 33.2885C25.9397 33.2885 25.0131 32.6506 24.7042 32.4911C24.3953 32.3316 24.3953 32.1721 24.7042 32.1721C25.0131 32.1721 26.0942 32.6506 26.4031 32.6506C26.7119 32.6506 26.8664 32.4911 26.2486 32.3316C25.6309 32.1721 24.8586 31.8531 24.2409 31.5342C23.7776 31.3747 23.932 31.0557 24.2409 31.2152C24.5498 31.3747 25.322 31.8531 25.6309 31.6936C25.9397 31.5342 25.7853 31.5342 25.6309 31.5342C25.1675 31.3747 24.7042 31.0557 24.2409 30.8962C24.0864 30.7367 24.0864 30.7367 24.2409 30.5772C24.3953 30.4177 24.8586 30.8962 25.0131 30.8962C25.1675 30.8962 25.322 30.7367 25.1675 30.5772C25.0131 30.4177 24.2409 30.2583 23.932 30.0988C23.6231 29.9393 23.7776 29.7798 23.932 29.7798C24.0864 29.7798 24.8586 30.0988 25.1675 30.0988C25.4764 30.0988 25.4764 30.0988 25.1675 29.9393C24.5498 29.6203 23.932 29.4608 23.3142 28.9823C22.6965 28.6634 22.8509 28.3444 23.0054 28.5039ZM26.4031 46.6856C28.1019 47.164 29.8008 47.802 31.4996 48.5994C32.4263 48.9184 31.8085 49.2374 32.1174 49.3969C32.7351 49.7158 33.3529 50.0348 33.9707 50.1943C34.8973 50.5133 35.6695 50.8323 35.824 50.9917C35.9784 51.1512 36.1328 51.4702 36.1328 51.6297C36.1328 51.7892 36.1328 51.7892 35.9784 51.7892C35.824 51.7892 35.824 51.7892 35.6695 51.6297C34.8973 51.3107 34.1251 50.9917 33.3529 50.6728C32.4263 50.3538 31.6541 50.0348 30.8819 49.7158C30.4185 49.5563 29.8008 49.2374 29.3374 49.0779C29.0286 48.9184 28.5652 48.9184 28.2564 48.7589C27.4841 48.2804 26.5575 48.1209 25.9397 47.6425C25.7853 47.802 25.9397 46.6856 26.4031 46.6856ZM22.2332 54.5005C22.3876 54.5005 22.2332 54.022 21.9243 53.8625C21.6154 53.703 21.3065 53.0651 21.6154 53.2246L22.8509 54.022C23.1598 54.1815 23.3142 54.022 22.8509 53.703C22.3876 53.3841 21.9243 52.9056 21.4609 52.5866C21.3065 52.4271 21.1521 51.7892 21.3065 51.9487C21.7698 52.2676 22.0787 52.5866 22.542 52.9056C22.6965 53.0651 22.8509 52.9056 22.6965 52.5866C22.542 52.2676 21.7698 51.7892 21.4609 51.3107C20.6887 50.6728 20.9976 49.5563 21.1521 49.7158C21.9243 50.1943 22.542 50.8322 23.3142 51.4702C23.4687 51.6297 23.6231 51.4702 23.4687 51.1512C23.1598 50.8322 21.7698 49.5563 21.4609 49.3969C21.1521 49.0779 20.9976 48.5994 21.1521 48.1209C21.1521 47.9615 21.4609 47.802 21.4609 47.9615C21.4609 48.1209 22.8509 49.3969 23.0054 49.5563C23.1598 49.7158 23.3142 49.5563 23.1598 49.3969C23.0054 49.2374 22.0787 48.4399 21.7698 48.1209C21.4609 47.802 21.7698 47.6425 22.0787 47.802C22.3876 47.9615 23.3142 48.9184 23.4687 49.0779C23.6231 49.2374 23.6231 48.9184 23.4687 48.9184C23.3142 48.9184 21.7698 47.3235 21.6154 47.164C21.4609 47.0045 21.3065 46.845 21.4609 46.6856C21.6154 46.5261 21.6154 46.0476 22.0787 46.3666C22.2332 46.5261 22.542 46.6856 22.6965 46.845C22.8509 47.0045 23.0054 46.845 22.8509 46.6856C22.6965 46.5261 22.0787 46.0476 21.9243 45.8881C21.7698 45.7286 21.7698 45.4096 22.0787 45.5691C22.542 45.8881 22.8509 46.2071 23.3142 46.6856C23.4687 46.845 23.932 46.6856 23.4687 46.5261C22.8509 46.0476 22.2332 45.4096 21.7698 44.7717C21.6154 44.2932 21.6154 42.8578 21.9243 43.0173C22.2332 43.1768 22.6965 43.4958 23.0054 43.8148C23.3142 44.1337 23.1598 43.6553 23.0054 43.3363C22.3876 42.8578 21.7698 42.2199 21.3065 41.4224C21.3065 41.2629 21.1521 41.1035 21.1521 41.1035C20.5343 39.987 20.9976 38.3922 22.0787 37.7542C22.2332 37.7542 22.3876 37.5947 22.542 37.5947C23.0054 37.4352 23.3142 37.4352 23.7776 37.5947C24.0864 37.7542 24.2409 37.9137 24.2409 38.0732C24.2409 38.2327 24.0864 38.2327 23.7776 38.2327C23.1598 38.2327 22.6965 38.5516 22.3876 39.1896C22.2332 39.6681 22.2332 40.1465 22.3876 40.625C22.542 40.944 22.8509 41.4224 23.1598 41.9009L23.932 43.0173C24.8586 44.7717 25.1675 46.845 24.8586 48.7589C24.7042 49.8753 24.7042 51.1512 24.8586 52.2676C25.1675 53.5436 24.8586 54.8195 24.2409 55.9359C24.0864 56.2549 23.7776 56.4143 23.4687 56.4143C23.1598 56.4143 23.0054 56.2549 22.8509 56.0954C22.542 55.6169 21.7698 54.66 22.2332 54.5005ZM26.7119 76.8288C26.5575 76.8288 26.4031 76.9883 26.4031 77.1478C26.0942 77.4668 25.6309 77.6263 25.1675 77.6263V77.4668C25.0131 77.1478 25.322 76.8288 25.4764 76.9883C25.7853 76.9883 26.0942 76.8288 26.2486 76.6694C26.2486 76.5099 26.7119 76.5099 26.7119 76.6694V76.8288ZM30.4185 80.0186C30.2641 80.0186 30.1096 80.0186 29.6463 79.8591C29.6463 79.6996 29.8008 79.5402 29.9552 79.5402C30.2641 79.5402 30.2641 79.6996 30.4185 80.0186ZM30.1096 75.5529C30.1096 76.6694 30.2641 77.6263 30.4185 78.7427L30.1096 78.4237H29.8008C29.6463 78.2642 24.7042 73.9581 24.2409 74.4365L24.0864 74.7555C24.0864 74.7555 24.3953 74.277 24.2409 74.1175C24.0864 73.9581 24.2409 73.3201 24.3953 73.1606C24.5498 73.0011 24.5498 73.1606 24.8586 73.3201C25.1675 73.4796 25.0131 73.1606 24.8586 73.0011C24.7042 72.8416 24.5498 72.8416 24.3953 72.6822C24.2409 72.5227 24.2409 72.2037 24.3953 72.3632C24.5498 72.5227 24.8586 72.5227 25.0131 72.6822C25.322 72.8416 25.1675 72.5227 25.0131 72.3632C24.7042 72.2037 24.5498 72.0442 24.3953 71.8847C24.2409 71.7252 24.2409 71.4062 24.5498 71.5657C24.8587 71.7252 25.1675 71.8847 25.4764 72.0442C25.7853 72.2037 25.7853 71.7252 25.4764 71.7252C25.1675 71.5657 24.8587 71.4062 24.5498 71.0873C24.2409 70.9278 24.0864 70.1303 24.5498 70.1303C24.8587 70.2898 25.1675 70.4493 25.4764 70.6088C25.7853 70.7683 25.9397 70.4493 25.6309 70.2898C25.322 69.9708 24.8587 69.8114 24.5498 69.4924C24.2409 69.3329 24.3953 68.6949 24.7042 68.6949C25.0131 68.6949 25.1675 68.8544 25.322 69.0139C25.4764 69.1734 25.6309 68.8544 25.4764 68.8544L24.8586 68.376C24.7042 68.2165 24.7042 67.5785 25.0131 67.8975C25.322 68.057 25.4764 68.2165 25.7853 68.2165C26.0942 68.376 25.9397 67.8975 25.9397 67.8975C25.9397 67.8975 25.322 67.5785 25.0131 67.419C24.7042 67.2596 24.8586 66.9406 25.1675 67.1001C25.4764 67.2595 25.7853 67.419 25.9397 67.5785C26.0942 67.738 26.4031 67.5785 26.2486 67.419C26.0942 67.2596 25.7853 67.1001 25.6309 66.9406C24.5498 66.6216 25.0131 62.7939 27.0208 64.2293C27.4841 64.5482 29.183 66.6216 29.6463 66.6216C30.1096 66.6216 30.1096 75.3935 30.1096 75.5529ZM26.8664 61.199C26.5575 61.199 26.0942 59.9231 26.4031 59.7636C26.7119 59.6041 28.8741 60.561 29.3374 60.561C30.1096 60.7205 30.1096 62.1559 29.6463 61.9964C29.183 61.8369 27.1753 61.199 26.8664 61.199ZM38.6039 71.2468C38.4495 71.2468 35.3606 69.9709 35.2062 69.6519C35.0518 69.3329 35.0518 68.6949 35.6695 68.8544L39.0672 70.2898C40.3028 70.9278 40.1483 71.7252 38.6039 71.2468ZM33.044 64.3888C32.7351 64.2293 32.4263 64.0698 32.2718 63.7508C32.2718 63.5913 32.4263 63.2723 33.3529 63.4318C34.1251 63.7508 34.7429 63.9103 35.5151 64.2293L35.9784 64.3888L36.2873 64.5482L38.4495 65.3457C38.9128 65.5052 40.3028 66.1431 40.7661 66.1431C40.9205 66.1431 40.9205 66.6216 40.9205 66.7811C40.4572 67.5785 33.3529 64.5482 33.044 64.3888ZM46.0171 84.4843C45.0904 84.6438 44.3182 84.8033 43.546 84.9628C42.9283 85.1222 42.9283 84.6438 43.0827 84.4843C43.2371 84.3248 43.7005 83.6869 44.0093 83.5274C44.3182 83.3679 45.0904 82.8894 45.3993 83.2084C45.8626 83.5274 46.326 83.8463 46.7893 84.1653C47.407 84.4843 46.6348 84.4843 46.0171 84.4843ZM50.187 84.8033C50.187 85.1222 49.2603 85.2817 48.9515 85.4412C48.3337 85.4412 47.7159 85.1222 47.2526 84.8033C46.9437 84.4843 47.407 84.1653 47.5615 84.0058C47.8704 83.8463 48.1793 83.8463 48.4881 84.0058C48.6426 84.0058 49.4148 83.8463 49.5692 84.0058C50.187 84.1653 50.3414 84.4843 50.187 84.8033ZM48.0248 82.8894C47.7159 83.0489 47.4071 83.0489 47.0982 83.0489C47.0982 82.8894 47.2526 82.7299 47.0982 82.7299C46.6348 82.5704 46.326 82.2515 46.0171 81.9325C45.8626 81.773 45.8626 81.9325 45.7082 81.9325C45.3993 81.9325 45.0904 81.9325 44.7816 81.9325C44.3182 81.9325 44.3182 79.5402 44.3182 79.2212C44.4727 78.5832 45.2449 78.1048 45.8626 78.2642C46.326 78.2642 46.7893 78.1048 46.7893 77.7858C46.7893 77.4668 46.7893 76.8288 46.9437 76.8288C47.7159 76.8288 47.407 76.1909 47.407 75.8719C48.0248 75.8719 48.6426 75.8719 49.2603 75.7124H49.4148C49.4148 76.0314 50.4959 80.9755 50.8048 82.8894C49.8781 82.5704 48.9515 82.5704 48.0248 82.8894ZM62.3878 48.2804V48.1209C62.3878 48.2804 62.3878 48.2804 62.3878 48.2804ZM62.3878 46.5261V46.3666C62.3878 46.3666 62.3878 46.3666 62.3878 46.5261ZM62.3878 46.2071V46.0476C62.3878 46.0476 62.3878 46.0476 62.3878 46.2071ZM61.3068 42.0604C61.3068 42.0604 61.3067 41.9009 61.1523 41.9009L61.3068 42.0604ZM62.2334 44.4527V44.2932C62.2334 44.2932 62.079 44.2932 62.079 44.4527H62.2334ZM62.2334 44.1337V43.9743L62.079 44.1337H62.2334ZM62.079 43.4958V43.3363L61.7701 43.4958H62.079ZM61.6156 42.3794C61.6156 42.3794 61.6156 42.2199 61.4612 42.0604C61.3067 41.9009 61.3068 42.2199 61.3068 42.3794H61.6156ZM61.3068 41.5819V41.4224C61.3068 41.4224 61.1523 41.4224 61.1523 41.5819H61.3068ZM61.7701 48.4399C60.9979 53.8625 63.4689 58.0092 65.94 61.9964V62.1559C66.4033 62.9534 66.7122 63.7508 67.0211 64.5482C67.1755 65.3457 67.1755 65.9836 67.1755 66.7811C66.8666 67.738 66.5577 68.6949 66.0944 69.4924C65.7855 69.9708 65.4767 70.4493 65.0133 70.7683C65.0133 70.7683 61.6156 76.5099 46.326 75.0745C45.5538 74.915 44.936 74.1175 44.6271 73.3201C44.0093 72.6822 43.0827 72.3632 42.3105 72.0442C41.8472 72.0442 42.0016 71.7252 42.3105 71.5657C42.6194 71.4062 42.0016 71.0873 41.6927 70.9278C40.1483 70.2898 40.9205 69.1734 41.3838 69.3329C42.1561 69.6519 43.0827 69.9708 44.0093 70.1303C44.6271 70.1303 44.1638 69.8114 44.0093 69.8114C43.8549 69.8114 42.4649 69.3329 42.1561 69.1734C40.7661 68.376 42.3105 67.5785 42.7738 67.5785C42.9283 67.5785 44.4727 68.057 45.0904 68.2165C45.7082 68.376 45.3993 68.057 44.936 67.8975L43.7005 67.419C43.0827 67.2596 43.7005 67.1001 43.8549 67.1001C44.0093 67.1001 45.0904 67.419 44.936 67.2596C44.7815 67.1001 44.0093 66.7811 43.3916 66.4621C42.7738 66.1431 39.685 62.7939 44.0093 64.0698C44.1638 64.0698 44.3182 64.0698 44.3182 63.9103C44.3182 63.7508 44.3182 63.7508 44.3182 63.5913C44.1638 63.4318 41.8472 62.4749 41.3838 62.4749C40.3028 62.1559 40.1483 60.88 40.4572 61.0395C41.2294 61.3585 42.1561 61.6775 42.9283 61.9964C43.2371 61.9964 43.2371 61.518 42.9283 61.518C42.6194 61.518 40.9205 60.7205 40.6116 60.7205C40.3028 60.7205 39.8394 60.4016 39.9939 60.2421C40.1483 60.0826 39.8394 60.0826 39.5306 59.7636C39.2217 59.4446 39.5306 59.2851 40.1483 59.4446C40.7661 59.6041 40.4572 59.1256 40.3028 59.1256C39.9939 58.9662 39.5306 58.6472 39.2217 58.3282C38.9128 58.0092 38.7583 57.0523 38.6039 56.7333C38.4495 56.4143 38.9128 56.5738 39.2217 56.7333C39.5306 56.8928 39.2217 56.4143 38.9128 56.4143C38.6039 56.4143 38.4495 56.0954 38.295 55.7764C38.1406 55.4574 38.9128 55.7764 39.2217 55.7764C39.5306 55.7764 39.3761 55.6169 39.0672 55.4574C38.7583 55.2979 38.4495 55.1384 38.4495 54.8195C38.4495 54.5005 38.7583 54.8195 39.3761 54.8195C39.9939 54.8195 39.5306 54.5005 39.2217 54.341C38.9128 54.341 38.6039 54.1815 38.295 54.022C37.9861 53.8625 38.1406 53.703 38.1406 53.3841C38.1406 53.0651 38.295 53.0651 38.7583 53.0651C39.2217 53.0651 39.3761 53.0651 39.2217 52.9056C39.0672 52.7461 38.4495 52.5866 38.295 52.5866C38.1406 52.5866 37.8317 52.2676 37.9861 52.1082C38.1406 51.9487 37.8317 51.6297 37.6773 51.4702C37.5228 51.3107 37.8317 51.3107 38.1406 51.3107C38.4495 51.3107 38.295 50.6728 37.6773 50.8323C37.0595 50.9917 37.3684 50.1943 37.3684 49.5563C37.3684 48.9184 37.5228 49.0779 37.3684 48.7589C37.2139 48.4399 36.4417 49.3969 36.4417 48.7589C36.5962 48.4399 36.4417 48.1209 36.1328 47.9615C35.9784 47.9615 36.1328 47.6425 35.9784 47.483C35.824 47.3235 33.9707 46.845 33.5073 46.6856C33.044 46.5261 33.5074 45.5691 34.5884 45.8881C35.0518 46.0476 35.5151 46.0476 35.5151 45.7286C35.5151 45.4096 35.2062 45.5691 34.434 45.0907C33.6618 44.6122 33.8162 43.9743 34.7429 44.1337C35.0518 44.1337 35.3606 43.9743 35.2062 43.8148C35.0518 43.6553 34.7429 43.6553 34.434 43.4958C34.1251 43.3363 33.044 41.4224 34.434 41.5819C34.7429 41.5819 34.8973 41.2629 34.434 41.2629C34.2796 41.2629 33.9707 41.1035 33.8162 41.1035C33.5074 41.1035 33.8162 39.8276 34.1251 39.6681C34.434 39.5086 34.7429 39.8276 35.0518 39.987C35.3606 40.1465 35.3606 39.8276 35.0518 39.6681L34.2796 39.1896C34.1251 39.0301 34.2796 39.0301 34.434 38.8706C34.5884 38.7111 35.0518 39.0301 35.5151 39.1896C35.9784 39.3491 35.9784 38.8706 35.5151 38.7111C35.0518 38.5516 34.434 38.3922 34.5884 38.2327C34.7429 38.0732 34.5884 37.4352 34.8973 37.4352C35.2062 37.4352 35.6695 37.5947 35.9784 37.5947C35.9784 37.5947 36.4417 37.1162 35.9784 37.1162C35.6695 37.1162 35.3606 36.9568 35.0518 36.7973C34.434 36.4783 35.0518 35.8403 35.3606 35.9998C35.824 36.1593 36.4417 36.3188 36.9051 36.1593C37.5228 35.9998 37.3684 35.6809 36.9051 35.5214C36.2873 35.3619 35.6695 35.2024 35.0518 34.8834C34.7429 34.7239 35.3606 33.448 35.824 33.2885C36.2873 33.129 37.6773 32.0126 38.9128 33.767C39.0672 34.086 39.685 34.405 39.9939 34.5644C40.4572 34.8834 40.9205 35.2024 41.3838 35.5214C41.5383 35.8403 42.0016 35.8403 42.4649 35.5214C42.9283 35.2024 42.3105 34.7239 41.5383 33.9265C41.2294 33.767 40.9205 33.767 40.6116 33.6075C40.3028 33.448 39.5306 32.1721 39.685 31.8531L39.0672 31.0557L38.295 30.4177C40.9205 30.0988 43.546 30.4177 46.0171 31.2152C46.0171 31.2152 50.4959 36.3188 50.6503 36.4783C50.8048 36.6378 51.4225 36.7973 51.577 36.6378C51.7314 36.4783 51.577 35.6809 51.1136 35.6809C50.6503 35.6809 50.3414 34.4049 50.0325 34.086C49.7237 33.767 48.1793 31.8531 47.8704 31.5342C47.5615 31.2152 48.0248 31.2152 48.1793 31.3747C48.3337 31.5342 48.9515 32.1721 49.1059 32.0126C49.2603 31.8531 49.1059 31.8531 48.797 31.3747C48.4881 30.8962 49.1059 31.3747 49.1059 31.0557C50.8048 31.3747 52.3492 32.0126 53.5847 32.9696C55.7469 34.405 57.4457 36.4783 58.5268 38.8706V39.0301C60.9979 41.4224 62.079 44.9312 61.7701 48.4399ZM62.5423 40.7845V41.1035L62.079 40.7845C61.7701 40.1465 61.3067 39.5086 60.8434 39.0301C60.689 38.8706 60.9979 38.5516 61.6156 39.0301C61.9245 39.5086 62.2334 40.1465 62.5423 40.7845ZM60.9979 32.1721C60.5345 32.1721 60.2257 32.4911 60.3801 32.9696C60.3801 33.448 60.3801 33.9265 60.3801 34.4049C60.3801 34.7239 60.689 35.2024 60.8434 35.3619C60.9979 35.5214 61.1523 36.1593 60.9979 36.3188C60.8434 36.4783 60.5345 36.4783 60.5345 36.7973C60.5345 37.1163 60.3801 37.5947 60.2257 37.2757C60.0712 36.9568 60.0712 36.7973 59.9168 36.4783C59.7623 36.1593 59.4535 35.9998 59.6079 36.3188C59.7623 36.6378 59.7623 36.9568 59.9168 37.2757C60.0712 37.5947 59.7623 37.7542 59.6079 37.2757C59.4535 36.7973 59.1446 36.4783 59.1446 35.9998C59.1446 35.5214 58.8357 35.8403 58.9901 36.1593C59.1446 36.4783 58.8357 36.7973 58.6813 36.3188C58.5268 35.8403 58.0635 34.5644 57.909 34.086C57.7546 33.6075 57.6002 33.767 57.6002 33.9265C57.7546 34.086 57.7546 34.4049 57.7546 34.7239C57.7546 34.8834 57.4457 35.2024 57.4457 34.7239C57.4457 34.2455 57.1368 33.9265 57.1368 33.6075C57.1368 33.2885 56.5191 32.9696 56.6735 33.2885C56.828 33.6075 56.828 33.9265 56.828 34.2455C56.828 34.5644 56.5191 34.4049 56.5191 34.086C56.5191 33.767 56.3646 33.6075 56.2102 33.2885C56.0557 32.9696 55.9013 32.8101 55.9013 32.9696C55.9013 33.129 55.9013 33.448 55.7469 33.2885C55.5924 33.129 55.5924 32.9696 55.438 32.6506C55.2835 32.3316 55.1291 31.8531 54.9747 31.5342C54.8202 31.2152 54.5113 31.2152 54.6658 31.3747C54.8202 31.6936 54.8202 32.0126 54.9747 32.4911C54.9747 32.8101 54.6658 32.6506 54.5113 32.4911C54.3569 32.3316 54.048 31.3747 53.8936 31.0557C53.7391 30.7367 53.5847 31.0557 53.5847 31.2152C53.7391 31.5342 53.8936 31.8531 53.8936 32.1721C53.8936 32.4911 53.5847 32.0126 53.4303 31.8531C53.2758 31.5342 53.1214 31.2152 52.9669 30.8962C52.8125 30.5772 52.5036 30.7367 52.658 30.8962C52.8125 31.0557 52.8125 31.2152 52.8125 31.5342C52.8125 31.8531 52.5036 31.5342 52.3492 31.3747C52.1947 31.2152 51.8858 30.4177 51.7314 30.2583C51.577 30.0988 51.2681 30.2583 51.4225 30.5772C51.577 30.8962 51.577 31.0557 51.577 31.2152C51.577 31.3747 50.9592 31.0557 50.9592 30.8962C50.9592 30.7367 50.4959 30.0988 50.187 29.6203C49.8781 29.1418 49.8781 29.6203 50.0325 29.7798C50.187 30.0988 50.3414 30.2583 50.3414 30.5772C50.3414 30.8962 50.0325 30.7367 50.0325 30.5772C50.0325 30.4177 49.7237 29.9393 49.5692 29.7798C49.4148 29.6203 48.9515 29.4608 49.2603 30.0988C49.5692 30.7367 49.4148 30.7367 49.1059 30.7367C48.797 30.7367 48.6426 30.5772 48.6426 30.5772C48.6426 30.5772 48.4881 30.0988 48.4881 29.7798C48.4881 29.4608 48.1793 29.6203 48.3337 29.7798C48.4881 29.9393 48.3337 30.0988 48.3337 30.4177C48.3337 30.7367 48.0248 30.4177 48.0248 30.4177C47.8704 30.0988 47.8704 29.9393 47.7159 29.6203C47.7159 29.4608 47.407 29.4608 47.5615 29.6203C47.7159 29.7798 47.7159 29.9393 47.7159 30.2583C47.7159 30.5772 47.7159 30.5772 47.5615 30.4177C47.407 30.2583 47.2526 29.9393 46.9437 29.7798C46.7893 29.4608 46.4804 29.9393 46.1715 29.9393C45.8626 29.9393 45.5538 29.4608 45.3993 29.3013C45.2449 29.1418 45.0904 29.3013 45.2449 29.4608C45.3993 29.6203 45.5538 29.9393 45.5538 30.0988C45.5538 30.2583 45.5538 30.5772 45.2449 30.7367C44.936 30.8962 44.6271 30.0988 44.3182 30.0988C44.0093 30.0988 43.546 30.0988 43.3916 30.4177C43.0827 30.4177 42.7738 30.2583 42.4649 30.2583L41.6927 29.9393C41.5383 29.9393 41.5383 29.7798 41.5383 29.6203C48.4881 26.271 56.6735 27.228 62.5423 32.3316H62.3878C62.0789 32.1721 61.7701 32.1721 61.6156 32.1721C62.0789 32.0126 61.3067 32.1721 60.9979 32.1721ZM63.7778 33.2885C63.6234 33.448 63.3145 33.6075 63.3145 33.9265C63.16 34.4049 63.0056 35.0429 63.16 35.5214C63.16 35.9998 63.3145 36.3188 63.4689 36.7973C63.6234 37.4352 63.7778 37.9137 63.7778 38.5516C63.7778 38.8706 63.7778 39.1896 63.7778 39.6681C63.7778 39.8276 63.7778 39.987 63.7778 40.306C63.9322 40.625 64.0867 40.944 64.2411 41.2629C64.3956 41.5819 64.7045 41.9009 64.8589 42.2199C64.8589 42.2199 64.8589 42.2199 64.8589 42.3794C64.7045 42.3794 64.55 42.3794 64.55 42.2199C64.0867 41.9009 63.7778 41.4224 63.4689 40.944C63.3145 40.7845 63.3145 40.4655 63.16 40.1465C63.16 39.987 63.16 39.6681 63.16 39.5086C63.4689 38.7111 62.5423 36.9568 62.3878 36.7973C62.2334 36.4783 62.079 36.1593 61.9245 35.8403C61.9245 35.6809 61.6156 34.5644 62.079 33.9265C62.3878 33.6075 62.8512 33.2885 63.16 33.129C63.4689 33.129 63.6234 33.129 63.7778 33.2885Z" fill="#CCD1DC"/>
<path d="M46.7852 31.5324C46.6308 31.3729 46.4764 31.3729 46.3219 31.2134C45.5497 30.8944 44.7775 30.5755 44.0053 30.2565C43.6964 30.097 43.542 30.097 43.2331 30.097L42.4609 29.9375H41.5342C40.9165 29.9375 40.2987 29.9375 39.6809 29.9375C39.3721 29.9375 39.2176 30.097 38.9087 30.097C37.6732 30.2565 36.5921 30.7349 35.511 31.3729C34.8933 31.6919 34.43 32.1703 33.9666 32.6488C33.5033 32.9678 33.04 33.2868 32.5767 33.4462C29.4878 34.4032 27.0168 36.636 25.7812 39.6663C25.7812 39.8258 25.9357 39.9853 25.9357 39.8258C27.4801 37.274 29.9512 35.3601 32.7311 34.4032C33.1944 34.2437 33.6577 34.4032 33.8122 34.8816C33.8122 35.0411 33.8122 35.0411 33.8122 35.2006C33.9666 35.9981 33.9666 36.955 33.8122 37.9119C33.6577 38.5499 33.3489 39.1878 33.1944 39.8258C32.8855 40.6232 32.8855 41.2612 32.8855 42.0586C33.3489 43.9725 33.04 46.0458 32.2678 47.8002C32.1133 48.1192 32.2678 48.2787 32.5767 47.9597C33.9666 46.5243 33.9666 44.4509 33.8122 42.3776C33.8122 41.7396 33.8122 40.9422 34.1211 40.3042C34.8933 39.1878 35.2022 37.9119 35.2022 36.636C35.2022 35.8386 35.2022 35.2006 35.0477 34.5627C34.8933 34.0842 35.2022 33.4462 35.511 33.1273C36.1288 32.4893 36.901 32.1703 37.8277 31.8514C38.291 31.8514 38.7543 32.0108 38.9087 32.4893C39.9898 34.2437 41.6887 35.6791 43.6964 36.1575C44.4686 36.317 44.9319 37.1145 44.6231 37.9119C44.6231 38.8688 44.3142 39.6663 43.6964 40.4637C42.4609 41.5801 41.5342 43.0155 40.9165 44.6104C40.762 45.2484 40.2987 45.7268 39.5265 46.0458C36.901 46.6838 35.2022 48.7571 36.1288 50.99C36.7466 52.2659 37.2099 53.7013 37.5188 55.1367C37.9821 56.891 38.4454 58.8049 39.0632 60.5593C39.681 62.4731 40.4532 64.387 41.5342 66.1413C41.6887 66.4603 41.9976 66.3008 41.8431 65.9819C40.762 63.749 39.8354 61.3567 39.2176 58.8049C39.2176 58.6454 39.2176 58.3264 39.3721 58.3264H39.5265C41.2254 58.6454 42.7698 59.1239 44.1597 59.7618C44.4686 59.9213 44.6231 59.6023 44.3142 59.4428C42.7698 58.4859 40.9165 57.848 39.2176 57.3695C38.9087 57.3695 38.7543 56.891 38.5999 56.5721C38.291 54.6582 37.8277 52.9038 37.2099 50.99C36.7466 50.033 37.0555 48.9166 37.9821 48.4381C38.5999 47.9597 39.2176 47.8002 39.9898 47.6407C40.1443 47.6407 40.2987 47.6407 40.2987 47.6407L40.4532 47.8002C40.4532 47.9597 40.6076 47.9597 40.6076 48.1192C40.9165 49.3951 41.5342 50.5115 42.3064 51.4684C42.9242 52.1064 43.3875 52.9038 43.6964 53.8607C43.8509 54.3392 44.0053 54.1797 44.0053 53.8607C43.8509 52.9038 43.542 51.9469 42.9242 51.1494C42.3064 50.1925 41.8431 49.2356 41.5342 48.1192C41.3798 47.1622 41.3798 46.3648 41.6887 45.4079C42.152 43.813 43.0787 42.5371 44.3142 41.5801C45.3953 40.6232 46.013 39.1878 45.8586 37.7524C45.8586 37.274 46.3219 37.1145 46.6308 37.5929C47.2486 39.1878 48.3297 40.4637 49.7196 41.4207C52.654 43.3345 52.8084 46.3648 50.3374 47.9597C47.0941 50.1925 47.0941 53.0633 48.6385 55.9341C49.1019 56.7315 49.5652 57.6885 50.1829 58.3264C50.6463 58.9644 50.6463 59.6023 50.3374 60.2403C49.4107 61.9947 49.4107 64.068 50.4918 65.6629C51.1096 66.4603 51.5729 67.2578 51.8818 68.2147C52.0362 68.6932 52.3451 68.5337 52.1907 68.2147C51.8818 67.2578 51.4185 66.3008 50.9552 65.5034C50.4918 64.2275 50.4918 62.9516 50.9552 61.6757C51.264 61.0377 51.4185 60.5593 51.5729 60.0808C51.7274 59.6023 52.0362 59.4428 52.3451 59.7618C52.9629 60.5593 53.4262 61.5162 53.8895 62.6326C54.1984 63.2706 54.6617 63.749 55.2795 64.068C56.515 64.5465 57.4417 65.5034 58.0594 66.6198C58.2139 66.9388 58.3683 66.7793 58.3683 66.6198C58.0594 65.1844 57.1328 64.5465 55.7428 63.5895C55.1251 63.2706 54.6617 62.6326 54.3529 61.9947C53.7351 60.3998 53.4262 59.1239 52.3451 58.3264C51.5729 57.848 51.1096 57.848 50.6463 57.21C49.4107 55.9341 48.793 54.1797 48.793 52.4254C48.9474 50.99 49.8741 49.7141 51.264 48.9166C52.654 48.1192 53.5807 46.5243 53.5807 44.9294C53.5807 44.4509 53.8895 44.2914 54.3529 44.4509C56.3606 44.7699 57.7506 46.3648 58.0594 48.4381C58.0594 48.9166 58.5228 48.7571 58.5228 48.4381C58.5228 46.3648 57.2872 44.6104 55.5884 43.813C55.4339 43.6535 55.2795 43.494 54.9706 43.494H54.8162L54.3529 43.3345C53.8895 43.3345 53.4262 43.3345 53.1173 42.6966C52.4996 41.5801 51.7274 40.7827 50.6463 40.1448C49.7196 39.3473 48.9474 38.3904 48.3297 37.274C47.7119 35.9981 47.0941 35.2006 45.8586 35.0411C43.8509 35.0411 41.8431 33.9247 40.6076 32.1703C40.4532 31.8514 40.6076 31.3729 41.0709 31.3729C43.542 31.3729 46.013 32.1703 47.8663 33.7652C48.9474 34.7222 49.8741 35.9981 50.6463 37.274C51.8818 39.0283 54.044 39.8258 56.0517 39.6663C58.3683 39.6663 59.9127 40.6232 60.9938 43.6535C61.9205 45.5674 61.9205 47.8002 60.9938 49.5546C60.0672 50.99 59.7583 52.9038 60.0672 54.6582C60.3761 55.7746 60.2216 56.2531 60.3761 57.3695C60.6849 58.6454 61.3027 59.6023 62.2294 60.5593C62.8471 61.1972 63.156 61.9947 63.3104 62.7921C63.4649 63.749 63.9282 64.5465 64.3915 65.1844C64.546 65.3439 64.8548 65.1844 64.7004 64.8654C64.2371 64.2275 64.0826 63.2706 64.0826 62.4731C63.9282 61.5162 63.6193 60.7187 63.0016 59.9213C62.5382 59.4428 62.2294 58.8049 61.9205 58.1669C61.766 57.529 62.2294 57.3695 62.6927 57.6885C64.7004 59.1239 66.2448 61.1972 66.8626 63.5895C67.017 63.9085 67.1715 63.9085 67.1715 63.5895C66.7081 60.8782 65.3182 58.4859 63.3104 56.891C62.2294 56.0936 61.4571 54.9772 60.9938 53.7013C60.8394 52.2659 61.1483 50.671 61.9205 49.5546C62.6927 48.1192 62.8471 45.7268 61.766 42.6966C61.3027 40.9422 60.2216 39.5068 58.6772 38.5499L58.5228 38.3904C57.5961 38.0714 56.6695 37.9119 55.7428 37.9119C54.1984 38.0714 52.4996 37.4335 51.4185 36.1575C50.4918 34.8816 49.4107 33.6057 48.3297 32.4893" fill="white"/>
<path d="M39.534 29.7779L38.7618 29.9374C37.5262 30.0969 36.2907 30.5754 35.3641 31.2133C34.7463 31.5323 34.283 32.0107 33.8197 32.4892C33.5108 32.8082 33.0475 33.1272 32.4297 33.2867C29.3409 34.2436 26.8698 36.6359 25.6343 39.6662C25.4798 39.8257 25.6343 39.9852 25.7887 40.1447C25.9432 40.1447 26.0976 40.1447 26.0976 39.9852C27.642 37.4334 29.9586 35.5195 32.7386 34.7221C32.893 34.5626 33.0475 34.5626 33.3563 34.7221C33.5108 34.8815 33.6652 35.041 33.6652 35.36C33.8197 36.1574 33.8197 37.1144 33.6652 37.9118C33.5108 38.3903 33.3563 38.7093 33.2019 39.1877L33.0475 39.6662C32.7386 40.4636 32.7386 41.2611 32.7386 42.0585V42.3775C33.0475 44.1319 32.893 46.0457 32.1208 47.6406C31.9664 47.8001 31.9664 47.9596 32.1208 48.1191C32.2753 48.1191 32.4297 48.2786 32.5841 47.9596C33.9741 46.5242 34.1285 44.4508 33.9741 42.218C33.9741 41.5801 33.9741 40.7826 34.283 40.3041C35.0552 39.1877 35.3641 37.9118 35.3641 36.4764V35.679V34.4031C35.3641 33.9246 35.5185 33.4461 35.8274 33.1272C36.4452 32.4892 37.2174 32.1702 37.9896 32.0108C38.4529 31.8513 38.7618 32.1702 38.9162 32.6487C39.9973 34.5626 41.5417 35.8385 43.5495 36.6359C44.3217 36.9549 44.4761 37.2739 44.4761 38.0713V38.2308C44.4761 39.0282 44.1672 39.8257 43.5495 40.4636C42.3139 41.5801 41.2328 43.0154 40.7695 44.6103C40.6151 45.2483 40.1517 45.5673 39.534 45.7267C38.144 46.0457 36.9085 47.0027 36.2907 48.2786C35.8274 49.076 35.8274 50.1924 36.2907 50.9899L36.5996 51.6278C37.0629 52.7442 37.3718 53.8607 37.6807 55.1366C37.9896 56.572 38.6073 58.9643 39.2251 60.5592C39.8429 62.473 40.6151 64.3869 41.6962 66.1413C41.8506 66.4602 42.005 66.4602 42.1595 66.3007C42.3139 66.1413 42.3139 65.8223 42.1595 65.6628C41.0784 63.43 40.1517 61.0376 39.534 58.4858C39.534 58.4858 39.534 58.3263 39.534 58.1668H39.6884C41.2328 58.4858 42.7772 58.9643 44.3217 59.6022C44.4761 59.7617 44.6305 59.6022 44.785 59.4427C44.9394 59.2833 44.785 59.1238 44.6305 58.9643C42.9317 58.0074 41.2328 57.3694 39.3795 56.8909C39.0707 56.8909 39.0707 56.4125 38.9162 56.0935L38.7618 55.2961C38.4529 53.7012 37.9896 52.1063 37.5263 50.5114C37.0629 49.714 37.3718 48.5975 38.144 48.1191C38.7618 47.6406 39.3795 47.4811 39.9973 47.3216C40.1518 47.3216 40.1517 47.3216 40.3062 47.3216L40.4606 47.4811C40.4606 47.6406 40.6151 47.6406 40.6151 47.8001C40.924 49.076 41.5417 50.1924 42.3139 51.1493C42.9317 51.7873 43.395 52.5847 43.7039 53.5417C43.8583 54.0201 44.0128 54.0201 44.1672 54.0201C44.3217 54.0201 44.4761 53.8607 44.4761 53.5417C44.3217 52.5847 44.0128 51.4683 43.395 50.6709C42.7772 49.8734 42.3139 48.757 42.005 47.6406C41.8506 46.8432 42.005 46.0457 42.1595 45.2483C42.6228 43.8129 43.5495 42.3775 44.6305 41.4206C45.8661 40.4636 46.4838 39.0282 46.3294 37.4334C46.3294 37.2739 46.3294 37.2739 46.4838 37.1144C46.6383 37.1144 46.6383 37.1144 46.6383 37.2739C47.256 38.8687 48.1827 40.3041 49.5727 41.2611C51.1171 42.218 52.0437 43.3344 52.0437 44.6103C52.0437 45.7267 51.426 46.8432 50.4993 47.4811C46.7927 50.0329 47.4105 53.2227 48.646 55.615C49.1093 56.4125 49.5727 57.2099 50.1904 58.0074C50.6537 58.4858 50.6537 59.2833 50.3449 59.7617C49.4182 61.5161 49.4182 63.5894 50.4993 65.3438C51.1171 66.1413 51.5804 66.9387 51.8893 67.7361C52.0437 68.0551 52.1982 68.2146 52.3526 68.0551C52.507 67.8956 52.6615 67.8956 52.507 67.4172C52.1982 66.4602 51.8893 65.6628 51.426 64.8654L51.2715 64.7059C50.8082 63.43 50.8082 62.154 51.2715 61.0376L51.7348 59.9212L51.8893 59.4427C51.8893 59.2833 52.0437 59.1238 52.1982 59.1238C52.3526 59.1238 52.3526 59.1238 52.3526 59.2833C52.9704 60.0807 53.4337 61.0376 53.897 61.9946V62.154C54.2059 62.792 54.8237 63.43 55.4414 63.5894C56.6769 64.0679 57.6036 64.8654 58.0669 65.9818C58.2214 66.3007 58.3758 66.3007 58.5302 66.3007C58.6847 66.3007 58.8391 65.9818 58.6847 65.8223C58.3758 64.3869 57.4492 63.7489 56.2136 62.792C55.4414 62.3135 55.1325 61.9946 54.9781 61.3566L54.5148 60.8781C54.2059 59.7617 53.5881 58.6453 52.6615 58.0074L52.0437 57.6884C51.5804 57.5289 51.2715 57.2099 50.9626 56.8909C49.8815 55.615 49.2638 54.0201 49.1093 52.2658C49.2638 50.8304 50.1904 49.5545 51.2715 48.9165C52.6615 48.1191 53.5881 46.5242 53.5881 44.7698C53.5881 44.6103 53.5881 44.6103 53.7426 44.4508C53.897 44.4508 54.0515 44.4508 54.2059 44.4508C56.0592 44.7698 57.6036 46.3647 57.758 48.2786C57.758 48.5975 58.0669 48.757 58.2214 48.757C58.3758 48.757 58.5302 48.438 58.5302 48.2786C58.5302 46.2052 57.2947 44.2914 55.4414 43.4939C55.287 43.3344 54.9781 43.1749 54.8237 43.1749H54.6692L54.2059 43.0154H54.0515C53.7426 43.0154 53.2792 42.856 53.1248 42.537C52.507 41.4206 51.5804 40.4636 50.4993 39.9852C49.5727 39.1877 48.8005 38.2308 48.3371 36.9549C47.7194 35.8385 47.1016 34.8815 45.7116 34.7221C43.7039 34.7221 41.6962 33.6056 40.4606 32.0108V31.8513V31.6918C40.4606 31.5323 40.6151 31.5323 40.7695 31.5323C43.2406 31.3728 45.5572 32.3297 47.4105 33.9246C48.4916 34.8815 49.4182 36.1574 50.1904 37.2739C51.426 39.0282 53.5881 39.9852 55.7503 39.6662C57.758 39.6662 59.3025 40.3041 60.538 43.4939C61.4646 45.2483 61.4646 47.4811 60.538 49.2355C59.4569 50.8304 59.148 52.7442 59.6113 54.4986C59.7658 54.9771 59.7658 55.4555 59.7658 55.7745C59.7658 56.253 59.9202 56.7314 59.9202 57.0504C60.2291 58.3263 60.8469 59.4427 61.7735 60.3997C62.2368 61.0376 62.7002 61.6756 62.8546 62.473C63.009 63.43 63.4724 64.2274 64.0901 65.0248C64.2446 65.1843 64.399 65.1843 64.5534 65.0248C64.7079 64.8653 64.7079 64.7059 64.5534 64.5464C64.0901 63.9084 63.9357 63.111 63.7812 62.3135C63.6268 61.3566 63.3179 60.3997 62.7002 59.7617C62.2368 59.2833 61.928 58.8048 61.7735 58.1668C61.7735 58.0074 61.7735 57.8479 61.7735 57.8479C61.928 57.8479 62.0824 57.8479 62.2368 58.0074C64.2446 59.4427 65.6345 61.5161 66.4067 63.9084C66.4067 64.2274 66.7156 64.3869 66.8701 64.2274C67.0245 64.2274 67.1789 63.9084 67.1789 63.7489C66.7156 61.0376 65.3257 58.6453 63.3179 56.8909H63.1635C62.0824 56.253 61.4646 55.1366 61.0013 53.8607C61.0013 53.5417 60.8469 53.2227 60.8469 52.9037C60.8469 51.7873 61.3102 50.6709 61.9279 49.714C62.3913 48.9165 62.5457 47.8001 62.5457 46.8432C62.5457 45.4078 62.2368 44.1319 61.7735 42.6965C61.3102 40.9421 60.2291 39.3472 58.6847 38.5498L58.5302 38.2308C57.6036 37.7523 56.677 37.5928 55.7503 37.5928H55.5959C53.897 37.4334 52.507 37.7523 51.426 36.3169V35.998C50.6537 34.8815 49.7271 33.7651 48.646 32.6487C48.1827 32.1702 47.5649 31.6918 46.9472 31.3728C46.9472 31.3728 46.7927 31.2133 46.3294 31.0538C45.5572 30.7348 44.785 30.4159 44.0128 30.0969C43.7039 29.9374 43.5495 29.9374 43.2406 29.9374L42.4684 29.7779H41.5417C40.7695 29.7779 40.1517 29.6184 39.534 29.7779ZM35.5185 31.3728C36.5996 30.7348 37.6807 30.4159 38.9162 30.2564L39.6884 30.0969C40.3062 30.0969 40.924 30.0969 41.5417 30.0969L42.4684 30.2564H43.2406C43.5495 30.2564 43.7039 30.4159 44.0128 30.4159C44.785 30.5754 45.5572 30.8943 46.3294 31.2133C46.4838 31.2133 46.7927 31.3728 46.7927 31.3728C47.4105 31.6918 47.8738 32.1702 48.4916 32.6487C49.4182 33.6056 50.3449 34.7221 51.2715 35.8385L51.5804 36.3169C52.6615 37.5928 54.3603 38.2308 55.9047 38.0713H56.0592C56.9858 38.0713 57.758 38.2308 58.6847 38.5498H58.8391C60.3835 39.5067 61.3102 40.9421 61.7735 42.537C62.2368 43.8129 62.3913 45.0888 62.5457 46.5242C62.5457 47.4811 62.3913 48.438 61.9279 49.2355C61.3102 50.3519 61.0013 51.6278 61.0013 52.9037C61.0013 53.2227 61.0013 53.5417 61.1557 53.8607C61.4646 55.1366 62.2368 56.253 63.3179 57.0504H63.4724C65.4801 58.6453 66.8701 61.0376 67.1789 63.5894C67.1789 63.5894 67.1789 63.5894 67.1789 63.43C66.4067 61.0376 65.0168 58.8048 62.8546 57.3694C62.7002 57.2099 62.2368 57.0504 62.0824 57.2099C61.928 57.3694 61.9279 57.5289 61.9279 57.6884C61.9279 57.8479 61.9279 57.8479 61.9279 58.0074C62.0824 58.6453 62.5457 59.2833 63.009 59.7617C63.6268 60.3997 63.9357 61.3566 63.9357 62.154C63.9357 62.9515 64.2446 63.9084 64.7079 64.5464C64.0901 63.9084 63.7812 63.111 63.6268 62.154C63.4724 61.3566 63.009 60.5592 62.5457 59.9212C61.6191 58.9643 61.0013 58.0073 60.6924 56.7314C60.538 56.253 60.538 55.934 60.538 55.4555C60.538 54.9771 60.3835 54.4986 60.3835 54.0201C60.2291 53.5417 60.2291 52.9037 60.2291 52.4253C60.2291 51.1494 60.538 50.0329 61.3102 48.9165C61.7735 48.1191 62.0824 47.1621 62.0824 46.3647C62.0824 45.2483 61.7735 44.1319 61.4646 43.0154C60.3835 40.1447 58.8391 39.0282 56.3681 39.0282C54.3603 39.3472 52.3526 38.3903 51.1171 36.7954C50.3449 35.5195 49.4182 34.4031 48.1827 33.2867C46.3294 31.6918 43.8583 30.7348 41.2328 30.8943C40.924 30.8943 40.7695 31.0538 40.6151 31.2133C40.6151 31.3728 40.6151 31.3728 40.6151 31.5323C40.6151 31.6918 40.6151 31.8513 40.7695 31.8513C42.005 33.6056 44.0128 34.7221 46.175 34.7221C47.4105 34.8815 48.0282 35.679 48.4916 36.7954C48.9549 37.9118 49.8815 39.0282 50.8082 39.8257C51.8893 40.4636 52.6615 41.2611 53.2792 42.3775C53.5881 42.856 53.897 43.0154 54.3603 43.0154H54.5148L55.1325 43.1749H55.287C55.4414 43.1749 55.5959 43.3344 55.7503 43.3344C57.4492 44.1319 58.6847 45.8862 58.6847 47.9596C58.6847 48.1191 58.6847 48.1191 58.6847 48.1191V47.9596C58.3758 45.8862 56.8314 44.1319 54.8237 43.8129C54.5148 43.8129 54.2059 43.8129 54.0515 43.9724C53.897 44.1319 53.7426 44.2914 53.7426 44.4508V44.6103C53.7426 46.2052 52.8159 47.4811 51.5804 48.2786C50.3449 49.076 49.4182 50.3519 49.1093 51.7873C49.1093 51.9468 49.1093 51.9468 49.1093 52.1063C49.2638 53.8607 49.8815 55.4555 50.9626 56.7314C51.2715 57.0504 51.5804 57.3694 52.0437 57.5289L52.6615 57.8479C53.5881 58.4858 54.0515 59.4427 54.3603 60.5592L54.6692 61.3566C54.9781 61.9946 55.4414 62.6325 56.0592 62.9515L56.2136 63.111C57.4492 63.9084 58.2214 64.5464 58.5302 65.9818C57.9125 64.7059 56.9858 63.7489 55.7503 63.2705C55.1325 62.9515 54.6692 62.6325 54.3603 61.9946V62.154C53.897 61.1971 53.4337 60.2402 52.8159 59.4427C52.6615 59.2833 52.507 59.2833 52.3526 59.2833C52.0437 59.2833 51.8893 59.6022 51.8893 59.7617L51.426 60.2402L50.9626 61.3566C50.8082 61.9946 50.6537 62.6325 50.6537 63.43C50.6537 64.0679 50.8082 64.7059 50.9626 65.3438L51.1171 65.6628C51.5804 66.4602 51.8893 67.2577 52.1982 68.0551V68.2146C52.1982 68.2146 52.1982 68.0551 52.0437 68.0551C51.5804 67.2577 51.1171 66.3007 50.6537 65.5033C50.1904 64.8653 49.8815 63.9084 49.7271 63.111C49.7271 62.154 50.036 61.1971 50.3449 60.3997C50.4993 60.0807 50.4993 59.7617 50.4993 59.4427C50.4993 58.9643 50.3449 58.6453 50.036 58.1668C49.4182 57.3694 48.9549 56.572 48.4916 55.7745C47.256 53.5417 46.6383 50.3519 50.1904 48.1191C51.2715 47.4811 51.8893 46.3647 52.0437 45.0888C51.8893 43.4939 50.9626 42.0585 49.5727 41.2611C48.1827 40.3041 47.1016 39.0282 46.4838 37.4334C46.3294 37.1144 46.175 36.9549 45.8661 37.1144C45.7116 37.1144 45.5572 37.4334 45.5572 37.5928C45.5572 37.7523 45.5572 37.7523 45.5572 37.9118C45.5572 39.1877 44.9394 40.4636 44.0128 41.2611C42.7773 42.218 41.8506 43.6534 41.3873 45.2483C41.2328 45.8862 41.0784 46.3647 41.0784 47.0027C41.0784 47.3216 41.0784 47.4811 41.0784 47.8001C41.3873 48.9165 41.8506 50.0329 42.4684 50.9899C43.0861 51.7873 43.395 52.7442 43.5495 53.7012V53.5417C43.2406 52.5847 42.7772 51.7873 42.1595 51.1493C41.3873 50.1924 40.7695 49.076 40.4606 47.9596C40.4606 47.8001 40.3062 47.6406 40.3062 47.4811L40.1518 47.3216C39.9973 47.3216 39.8429 47.1621 39.6884 47.1621C38.9162 47.1621 38.144 47.4811 37.5263 47.9596C36.9085 48.438 36.5996 49.076 36.5996 49.714C36.5996 50.0329 36.754 50.3519 36.754 50.6709C37.3718 52.2658 37.6807 53.8607 37.9896 55.4555L38.144 56.253C38.2985 56.8909 38.4529 57.2099 38.9162 57.2099C40.6151 57.6884 42.4684 58.3263 44.0128 59.2833C42.4684 58.6453 40.924 58.1668 39.2251 57.8479C39.0707 57.8479 38.9162 57.8479 38.7618 58.0074C38.6073 58.1668 38.6073 58.3263 38.6073 58.4858C39.2251 61.0376 40.1517 63.43 41.2328 65.6628C40.1517 63.9084 39.3795 62.154 38.7618 60.2402C38.144 58.4858 37.6807 56.7314 37.2174 54.9771C36.9085 53.8607 36.5996 52.5847 36.1363 51.4683L35.8274 50.8304C35.9818 50.3519 35.9818 50.0329 35.9818 49.5545C35.9818 49.076 36.1363 48.5975 36.2907 48.2786C37.0629 47.1621 38.144 46.2052 39.534 46.0457C40.1517 45.8862 40.7695 45.2483 40.924 44.6103C41.3873 43.0154 42.4684 41.5801 43.7039 40.4636C44.3217 39.8257 44.785 38.8687 44.785 37.9118C44.785 37.7523 44.785 37.5928 44.785 37.4334C44.785 36.7954 44.3217 36.1574 43.7039 35.8385C41.6962 35.2005 39.9973 33.9246 38.9162 32.1702C38.7618 31.6918 38.144 31.3728 37.5263 31.3728C36.5996 31.5323 35.8274 32.0108 35.2096 32.6487C34.9008 32.9677 34.7463 33.4461 34.7463 33.9246V34.0841V35.36V36.1574C34.7463 36.3169 34.7463 36.3169 34.7463 36.4764C34.5919 37.5928 34.283 38.8687 33.6652 39.8257C33.3563 40.4636 33.2019 41.1016 33.2019 41.5801C33.2019 41.7395 33.2019 41.7395 33.2019 41.899C33.2019 42.3775 33.2019 42.856 33.2019 43.3344C33.3563 44.7698 32.893 46.2052 31.9664 47.3216C32.5841 46.2052 32.893 45.0888 32.7386 43.9724C32.7386 43.3344 32.7386 42.537 32.5841 41.899V41.5801C32.5841 41.4206 32.5841 41.2611 32.5841 41.1016C32.5841 40.4636 32.7386 39.9852 32.893 39.3472L33.0475 38.8687C33.2019 38.3903 33.3563 38.0713 33.5108 37.5928C33.6652 37.2739 33.6652 36.9549 33.6652 36.6359C33.6652 36.1574 33.6652 35.5195 33.5108 34.8815C33.5108 34.5626 33.3563 34.2436 33.0475 34.0841C32.7386 33.9246 32.4297 33.9246 32.2753 33.9246C29.6498 34.7221 27.3331 36.4764 25.6343 38.8687C26.8698 36.1574 29.3409 34.0841 32.1208 33.1272C32.7386 32.9677 33.2019 32.6487 33.5108 32.3297C34.283 32.1702 34.7463 31.6918 35.5185 31.3728Z" fill="#CCD1DC"/>
<path d="M36.1354 61.1967C35.5176 61.0372 35.2087 60.5587 34.591 59.7613C34.4365 59.6018 34.2821 59.6018 34.1276 59.4423C33.6643 58.9639 33.201 58.4854 32.7377 58.0069C32.1199 57.5285 31.5021 57.2095 30.8844 56.731C29.4944 56.2526 29.0311 54.8172 28.7222 54.1792C28.4133 53.5413 27.95 52.9033 27.6411 52.2653C27.6411 52.4248 27.0233 51.3084 26.8689 51.1489C26.7145 50.9894 26.0967 50.511 26.2511 50.83C26.4056 51.3084 26.56 51.6274 26.7145 51.9464C27.0233 52.4248 27.3322 52.9033 27.4867 53.3818C27.7956 53.8602 28.1044 54.3387 28.4133 54.9767C28.8766 55.7741 29.34 56.5715 29.6488 57.05C29.9577 57.688 30.2666 58.4854 30.421 59.1233C30.7299 60.2398 31.0388 61.5157 31.5021 62.6321C31.6566 62.7916 31.6566 62.7916 31.6566 62.7916C31.6566 62.7916 31.6566 62.6321 31.6566 62.4726C31.1933 61.1967 30.8844 59.7613 30.7299 58.3259C30.7299 58.0069 30.7299 57.8474 30.8844 57.8474C31.0388 57.8474 31.1933 57.8474 31.6566 58.0069C32.5832 58.6449 33.3554 59.4423 34.1276 60.2398C34.591 60.8777 35.3632 61.3562 36.2898 61.5157C36.4443 61.5157 36.5987 61.5157 36.5987 61.5157C36.2898 61.8346 36.2898 61.1967 36.1354 61.1967Z" fill="white"/>
</g>
<path d="M44.7955 81.7673C25.9537 81.7673 10.6641 65.9779 10.6641 46.5204C10.6641 27.0628 25.9537 11.2734 44.7955 11.2734C63.6374 11.2734 78.927 27.0628 78.927 46.5204C78.927 65.9779 63.6374 81.7673 44.7955 81.7673ZM44.7955 12.3899C26.5715 12.3899 11.7452 27.7007 11.7452 46.5204C11.7452 65.34 26.5715 80.6509 44.7955 80.6509C63.0196 80.6509 77.8459 65.34 77.8459 46.5204C77.8459 27.7007 63.0196 12.5493 44.7955 12.3899Z" fill="#CCD1DC"/>
<path d="M103.791 11.2734H106.57L114.293 29.6146H111.049L109.196 25.1489H100.856L99.0029 29.6146H95.9141L103.791 11.2734ZM108.269 22.4376L105.181 15.1012L102.092 22.4376H108.269Z" fill="#CCD1DC"/>
<path d="M117.686 11.4375H120.929L126.334 20.0499L131.74 11.4375H134.983V29.6192H131.894V16.5411L126.334 25.1535H126.18L120.62 16.7006V29.7787H117.531L117.686 11.4375Z" fill="#CCD1DC"/>
<path d="M139.773 11.4375H152.746V14.3083H142.862V19.0929H151.665V21.9637H142.862V26.9079H152.901V29.7787H139.773V11.4375Z" fill="#CCD1DC"/>
<path d="M156.758 11.4303H164.634C166.488 11.2708 168.341 11.9088 169.731 13.1847C170.658 14.3011 171.275 15.577 171.121 17.1719C171.275 19.8832 169.422 22.1161 166.951 22.5945L171.739 29.4525H168.032L163.708 23.073H159.847V29.4525H156.758V11.4303ZM164.48 20.5212C166.642 20.5212 168.032 19.2453 168.032 17.4909C168.032 15.577 166.642 14.4606 164.325 14.4606H159.847V20.5212H164.48Z" fill="#CCD1DC"/>
<path d="M175.438 11.4375H178.526V29.6192H175.438V11.4375Z" fill="#CCD1DC"/>
<path d="M182.715 20.5264C182.561 15.4228 186.422 11.2761 191.364 11.1166C191.519 11.1166 191.673 11.1166 191.673 11.1166C194.299 10.9571 196.77 12.0736 198.623 13.9874L196.615 16.3797C195.38 14.9444 193.526 14.1469 191.673 14.1469C188.43 14.1469 185.804 17.0177 185.804 20.367V20.5264C185.65 23.8757 188.275 26.7465 191.519 26.906H191.673C193.526 26.906 195.38 26.1085 196.77 24.5137L198.777 26.587C196.924 28.6604 194.299 29.9363 191.673 29.7768C186.731 29.7768 182.715 25.7896 182.715 20.6859C182.715 20.6859 182.715 20.6859 182.715 20.5264Z" fill="#CCD1DC"/>
<path d="M208.503 11.2734H211.438L219.16 29.6146H215.916L214.063 25.1489H205.723L203.87 29.6146H200.781L208.503 11.2734ZM212.982 22.4376L209.893 15.1012L206.804 22.4376H212.982Z" fill="#CCD1DC"/>
<path d="M222.406 11.4375H225.341L234.762 24.0371V11.4375H237.85V29.6192H235.225L225.495 16.7006V29.6192H222.406V11.4375Z" fill="#CCD1DC"/>
<path d="M96.684 46.5186C96.5296 41.415 100.545 37.2683 105.333 37.1088C105.487 37.1088 105.642 37.1088 105.642 37.1088C108.267 36.9493 110.738 38.0658 112.591 39.9796L110.584 42.2125C109.348 40.7771 107.495 39.9796 105.642 39.9796C102.398 39.9796 99.7728 42.8504 99.7728 46.1997V46.3591C99.6184 49.7084 102.244 52.5792 105.487 52.7387H105.642C107.495 52.7387 109.348 51.9412 110.738 50.3464L112.746 52.4197C110.893 54.4931 108.267 55.769 105.642 55.6095C100.699 55.6095 96.684 51.6223 96.684 46.5186C96.684 46.6781 96.684 46.6781 96.684 46.5186Z" fill="#CCD1DC"/>
<path d="M115.062 46.5217C115.68 41.2586 120.314 37.5903 125.41 38.2283C129.58 38.7067 132.978 42.2155 133.441 46.5217C132.823 51.7848 128.19 55.453 123.093 54.8151C118.924 54.3366 115.526 50.9873 115.062 46.5217ZM130.198 46.5217C130.352 43.0129 127.727 40.1421 124.483 40.1421H124.329C121.086 40.1421 118.46 42.8534 118.46 46.3622V46.5217C118.306 49.8709 120.931 52.7417 124.329 52.9012H124.483C127.727 52.9012 130.352 50.1899 130.352 46.8406C130.198 46.6812 130.198 46.6812 130.198 46.5217Z" fill="#CCD1DC"/>
<path d="M137.461 37.4297H140.55V52.7406H149.816V55.6114H137.461V37.4297Z" fill="#CCD1DC"/>
<path d="M153.367 37.4297H156.456V52.7406H165.722V55.6114H153.367V37.4297Z" fill="#CCD1DC"/>
<path d="M169.109 37.4297H182.082V40.3005H172.198V45.0851H181.001V47.9559H172.198V52.9001H182.237V55.7708H169.109V37.4297Z" fill="#CCD1DC"/>
<path d="M185.483 46.5208C185.483 41.4172 189.344 37.2705 194.286 37.111C194.441 37.111 194.441 37.111 194.595 37.111C197.066 36.9515 199.537 37.9085 201.39 39.5033L199.383 42.0552C197.993 40.7792 196.294 39.9818 194.441 40.1413C191.197 40.3008 188.572 43.1716 188.726 46.5208C188.572 49.8701 190.888 52.7409 194.132 53.0599C194.286 53.0599 194.441 53.0599 194.595 53.0599C196.139 53.0599 197.529 52.5814 198.919 51.6245V48.2752H194.441V45.4044H202.008V53.0599C200 54.8142 197.375 55.9306 194.595 55.9306C189.807 56.0901 185.637 52.2624 185.483 47.3183C185.329 46.9993 185.329 46.8398 185.483 46.5208Z" fill="#CCD1DC"/>
<path d="M206.188 37.4297H219.161V40.3005H209.276V45.0851H218.079V47.9559H209.276V52.9001H219.315V55.7708H206.188V37.4297Z" fill="#CCD1DC"/>
<path d="M229.969 48.753C229.969 44.7658 233.058 41.576 236.919 41.576H237.073C240.934 41.4166 244.023 44.6063 244.177 48.434V48.5935C244.023 52.5807 240.625 55.7705 236.764 55.611C233.058 55.611 230.123 52.5807 229.969 48.753ZM241.089 48.753C241.243 46.3607 239.39 44.4468 237.227 44.2873H237.073C234.911 44.2873 233.058 46.0417 233.058 48.434C233.058 48.5935 233.058 48.5935 233.058 48.753C232.903 51.1453 234.602 53.0592 236.919 53.2187H237.073C239.235 53.2187 241.089 51.4643 241.089 49.072C241.089 49.072 241.089 48.9125 241.089 48.753Z" fill="#CCD1DC"/>
<path d="M248.199 44.6033H246.5V42.0515H248.199V41.0946C248.044 39.8187 248.508 38.7023 249.28 37.7453C250.052 36.9479 251.133 36.6289 252.214 36.6289C252.987 36.6289 253.913 36.7884 254.685 36.9479V39.6592C254.068 39.4997 253.45 39.3402 252.832 39.3402C251.597 39.3402 251.133 39.9782 251.133 41.4136V42.211H254.685V44.6033H251.288V55.608H248.199V44.6033Z" fill="#CCD1DC"/>
<path d="M96.684 72.5225C96.5296 67.4189 100.545 63.2722 105.333 63.1127C105.487 63.1127 105.642 63.1127 105.642 63.1127C108.267 62.9532 110.738 64.0697 112.591 65.9835L110.584 68.3758C109.348 66.9405 107.495 66.143 105.642 66.143C102.398 66.143 99.7728 69.0138 99.7728 72.3631V72.5225C99.6184 75.8718 102.244 78.7426 105.487 78.9021H105.642C107.495 78.9021 109.348 78.1046 110.738 76.5098L112.746 78.5831C110.893 80.6564 108.267 81.9324 105.642 81.7729C100.854 81.7729 96.8384 77.6262 96.684 72.5225Z" fill="#CCD1DC"/>
<path d="M122.634 63.2656H125.414L133.136 81.6068H129.893L128.04 77.1411H119.7L117.847 81.6068H114.758L122.634 63.2656ZM126.959 74.4298L123.87 67.0933L120.935 74.4298H126.959Z" fill="#CCD1DC"/>
<path d="M136.531 63.4225H144.408C146.261 63.263 148.114 63.901 149.504 65.1769C150.431 66.2933 151.049 67.5692 151.049 69.1641C151.049 71.8754 149.35 74.1082 146.879 74.7462L151.666 81.6042H147.96L143.636 75.2247H139.775V81.6042H136.686L136.531 63.4225ZM144.099 72.3539C146.261 72.3539 147.651 71.2375 147.651 69.3236C147.651 67.4097 146.261 66.2933 143.944 66.2933H139.466V72.3539H144.099Z" fill="#CCD1DC"/>
<path d="M154.914 63.4258H161.401C166.96 63.4258 170.821 67.413 170.821 72.5166C170.821 77.4608 166.96 81.6075 162.018 81.6075C161.864 81.6075 161.709 81.6075 161.401 81.6075H154.914V63.4258ZM158.003 66.2966V78.7367H161.401C164.489 79.0556 167.269 76.5038 167.578 73.3141C167.578 73.1546 167.578 72.8356 167.578 72.6761C167.733 69.3268 165.262 66.6156 162.018 66.4561C161.864 66.4561 161.555 66.4561 161.401 66.4561L158.003 66.2966Z" fill="#CCD1DC"/>
<path d="M174.977 63.4258H178.065V81.6075H174.977V63.4258Z" fill="#CCD1DC"/>
<path d="M182.25 72.5199C182.25 67.4163 186.265 63.1101 191.208 63.1101C191.362 63.1101 191.362 63.1101 191.516 63.1101C196.459 62.9506 200.474 66.9378 200.629 72.0414C200.629 72.2009 200.629 72.2009 200.629 72.3604C200.629 77.464 196.613 81.7702 191.671 81.7702C191.516 81.7702 191.516 81.7702 191.362 81.7702C186.42 81.9297 182.404 77.783 182.25 72.6794C182.25 72.6794 182.25 72.6794 182.25 72.5199ZM197.385 72.5199C197.54 69.0112 195.069 66.1404 191.671 65.9809C191.516 65.9809 191.516 65.9809 191.362 65.9809C188.119 65.9809 185.493 68.6922 185.493 72.2009V72.3604C185.339 75.7097 187.964 78.5805 191.362 78.74H191.516C194.76 78.74 197.385 76.0286 197.385 72.5199Z" fill="#CCD1DC"/>
<path d="M204.641 63.4258H207.729V78.7367H216.996V81.6075H204.641V63.4258Z" fill="#CCD1DC"/>
<path d="M218.703 72.5199C218.703 67.4163 222.719 63.1101 227.661 63.1101C227.815 63.1101 227.815 63.1101 227.97 63.1101C232.912 62.9506 236.927 66.9378 237.082 72.0414C237.082 72.2009 237.082 72.2009 237.082 72.3604C236.464 77.6235 231.831 81.4513 226.734 80.8133C222.564 80.3348 219.166 76.8261 218.703 72.5199ZM233.838 72.5199C233.993 69.0112 231.522 66.1404 228.124 65.9809C227.97 65.9809 227.97 65.9809 227.815 65.9809C224.572 65.9809 221.792 68.6922 221.792 72.0414C221.792 72.2009 221.792 72.2009 221.792 72.3604C221.638 75.8692 224.263 78.5805 227.661 78.74H227.815C231.213 78.74 233.838 76.0286 233.838 72.5199Z" fill="#CCD1DC"/>
<path d="M240.32 72.5247C240.32 67.4211 244.181 63.2744 249.123 63.1149C249.278 63.1149 249.278 63.1149 249.432 63.1149C251.903 62.9554 254.374 63.9124 256.228 65.5072L254.22 67.8996C252.83 66.6237 251.131 65.8262 249.278 65.8262C246.035 65.9857 243.409 68.8565 243.564 72.2058C243.409 75.555 245.726 78.4258 248.969 78.7448C249.123 78.7448 249.278 78.7448 249.587 78.7448C251.131 78.7448 252.521 78.2663 253.911 77.3094V73.9601H249.432V71.2488H257V78.9043C254.992 80.8181 252.367 81.7751 249.587 81.7751C244.799 81.9345 240.629 78.1068 240.475 73.1627C240.32 73.1627 240.32 72.8437 240.32 72.5247Z" fill="#CCD1DC"/>
<path d="M265.489 74.4305L258.539 63.4258H262.246L267.188 71.4002L272.13 63.4258H275.682L268.732 74.4305V81.6075H265.643L265.489 74.4305Z" fill="#CCD1DC"/>
<path d="M272.295 78.2659C272.295 76.352 273.839 74.5977 275.693 74.5977C277.546 74.5977 279.09 76.1925 279.09 78.1064C279.245 80.0203 277.701 81.7746 275.847 81.9341C273.994 82.0936 272.295 80.4987 272.141 78.5849C272.295 78.5849 272.295 78.4254 272.295 78.2659ZM278.782 78.2659C278.782 76.5115 277.392 75.0761 275.693 75.0761C273.994 75.0761 272.604 76.5115 272.604 78.2659C272.604 80.0203 273.994 81.4557 275.693 81.4557C277.392 81.4557 278.782 79.8608 278.782 78.2659ZM274.303 76.352H276.002C276.928 76.352 277.546 76.671 277.546 77.6279C277.546 78.1064 277.237 78.5849 276.774 78.7444L277.701 80.0203H276.619L275.847 78.9038H275.229V80.0203H274.303V76.352ZM276.002 78.1064C276.465 78.1064 276.619 77.9469 276.619 77.6279C276.619 77.309 276.311 77.1495 276.002 77.1495H275.229V78.1064H276.002Z" fill="#CCD1DC"/>
</svg>
