<svg width="416" height="53" viewBox="0 0 416 53" fill="none" xmlns="http://www.w3.org/2000/svg">
<path d="M139.301 15.4688H141.476L147.612 29.3443H144.738L143.418 26.1597H137.281L135.961 29.3443H133.164L139.301 15.4688ZM142.486 24.0367L140.311 18.4258L138.058 24.0367H142.486Z" fill="#CCD1DC"/>
<path d="M148.469 19.9423H150.721V21.3829H150.799C151.188 20.4731 152.12 19.7148 153.751 19.7148C155.227 19.7148 156.237 20.3214 156.78 21.4588C157.48 20.2456 158.489 19.7148 159.965 19.7148C162.529 19.7148 163.461 21.5346 163.461 23.7334V29.3443H161.053V24.0367C161.053 22.8994 160.664 21.8379 159.266 21.8379C157.79 21.8379 157.169 23.051 157.169 24.2642V29.3443H154.761V23.7334C154.761 22.5961 154.295 21.8379 153.13 21.8379C151.576 21.8379 150.955 22.9752 150.955 24.2642V29.4201H148.546L148.469 19.9423Z" fill="#CCD1DC"/>
<path d="M167.111 25.4774C167.266 26.8422 168.354 27.6762 169.674 27.6762C170.917 27.6762 171.694 27.1455 172.238 26.3872L173.947 27.6762C172.781 29.041 171.383 29.5718 169.83 29.5718C166.955 29.5718 164.625 27.6004 164.625 24.6433C164.625 21.6862 166.955 19.7148 169.83 19.7148C172.548 19.7148 174.335 21.5346 174.335 24.795V25.4774H167.111ZM172.082 23.7334C172.082 22.3686 171.15 21.5346 169.597 21.5346C168.198 21.5346 167.266 22.4445 167.111 23.7334H172.082Z" fill="#CCD1DC"/>
<path d="M175.891 19.9423H178.299V21.4588C178.842 20.3972 179.852 19.7148 181.173 19.7148C181.484 19.7148 181.794 19.7907 182.027 19.8665V22.1412C181.639 22.0653 181.251 21.9895 180.862 21.9895C178.609 21.9895 178.299 23.8851 178.299 24.34V29.3443H175.891V19.9423Z" fill="#CCD1DC"/>
<path d="M184.507 15.3164C185.361 15.3164 186.06 15.923 186.06 16.757C186.06 17.5911 185.361 18.1977 184.507 18.1977C183.652 18.1977 182.953 17.5153 182.953 16.757C183.031 15.9988 183.652 15.3164 184.507 15.3164ZM183.342 19.9416H185.75V29.3436H183.342V19.9416Z" fill="#CCD1DC"/>
<path d="M194.295 22.7454C193.752 22.1389 193.13 21.8356 192.431 21.8356C190.644 21.8356 189.635 23.2004 189.635 24.641C189.635 26.0816 190.722 27.4464 192.431 27.4464C193.208 27.4464 193.829 27.1432 194.295 26.5366L195.927 28.2047C194.917 29.1904 193.286 29.4937 192.431 29.4937C189.557 29.4937 187.227 27.5223 187.227 24.5652C187.227 21.6081 189.557 19.6367 192.431 19.6367C193.674 19.6367 194.995 20.0917 195.927 21.0773L194.295 22.7454Z" fill="#CCD1DC"/>
<path d="M203.001 28.0537C202.224 29.1152 201.136 29.5702 199.816 29.5702C198.029 29.5702 196.32 28.5845 196.32 26.7647C196.32 23.7318 199.971 23.5044 202.379 23.5044H203.001V23.2769C203.001 22.1396 202.069 21.533 200.826 21.533C199.816 21.533 198.884 21.9121 198.262 22.5187L197.019 21.3055C198.107 20.244 199.583 19.7891 201.136 19.7891C205.253 19.7891 205.253 22.6703 205.253 24.0351V29.4185H203.078L203.001 28.0537ZM202.923 25.1725H202.457C201.136 25.1725 198.806 25.2483 198.806 26.6131C198.806 27.4471 199.738 27.8263 200.515 27.8263C202.146 27.8263 202.923 26.9922 202.923 25.7032V25.1725Z" fill="#CCD1DC"/>
<path d="M207.352 19.9423H209.682V21.4588C210.148 20.5489 211.003 19.7148 212.634 19.7148C215.197 19.7148 216.129 21.5346 216.129 23.4302V29.3443H213.721V24.5675C213.721 23.506 213.644 21.8379 211.935 21.8379C210.381 21.8379 209.76 22.9752 209.76 24.2642V29.4201H207.352V19.9423Z" fill="#CCD1DC"/>
<path d="M232.439 18.7277C231.43 17.6662 230.42 17.3629 229.41 17.3629C226.458 17.3629 224.516 19.5618 224.516 22.2914C224.516 25.2485 226.458 27.4473 229.41 27.4473C230.575 27.4473 231.663 26.9166 232.595 25.7792L234.692 27.2199C233.372 28.9638 231.507 29.722 229.41 29.722C225.06 29.722 221.875 26.8407 221.875 22.5189C221.875 18.0453 224.982 15.1641 229.41 15.1641C231.352 15.1641 232.983 15.7706 234.381 17.3629L232.439 18.7277Z" fill="#CCD1DC"/>
<path d="M240.517 19.7148C243.391 19.7148 245.722 21.6862 245.722 24.6433C245.722 27.6004 243.391 29.5718 240.517 29.5718C237.565 29.5718 235.312 27.6004 235.312 24.6433C235.312 21.6862 237.643 19.7148 240.517 19.7148ZM240.517 27.4487C242.304 27.4487 243.314 26.0839 243.314 24.6433C243.314 23.2027 242.226 21.8379 240.517 21.8379C238.73 21.8379 237.721 23.2027 237.721 24.6433C237.721 26.1598 238.73 27.4487 240.517 27.4487Z" fill="#CCD1DC"/>
<path d="M247.273 14.5586H249.681V29.344H247.273V14.5586Z" fill="#CCD1DC"/>
<path d="M252.094 14.5586H254.502V29.344H252.094V14.5586Z" fill="#CCD1DC"/>
<path d="M258.775 25.4774C258.93 26.8422 260.018 27.6762 261.338 27.6762C262.581 27.6762 263.358 27.1455 263.902 26.3872L265.611 27.6762C264.445 29.041 263.047 29.5718 261.571 29.5718C258.619 29.5718 256.289 27.6004 256.289 24.6433C256.289 21.6862 258.619 19.7148 261.571 19.7148C264.29 19.7148 266.077 21.5346 266.077 24.795V25.4774H258.775ZM263.746 23.7334C263.746 22.3686 262.814 21.5346 261.261 21.5346C259.862 21.5346 258.93 22.4445 258.775 23.7334H263.746Z" fill="#CCD1DC"/>
<path d="M277.495 19.9423V28.5103C277.495 31.9223 275.786 34.0453 272.057 34.0453C270.27 34.0453 268.639 33.6662 267.241 32.5289L268.717 30.6333C269.649 31.4673 270.659 31.9981 272.057 31.9981C274.387 31.9981 275.086 30.7091 275.086 28.8136V28.1312H275.009C274.31 29.041 273.067 29.496 271.824 29.496C268.95 29.496 267.008 27.3729 267.008 24.6433C267.008 21.8379 268.794 19.7148 271.746 19.7148C273.067 19.7148 274.387 20.2456 275.086 21.3829V19.9423C275.164 19.9423 277.495 19.9423 277.495 19.9423ZM269.494 24.6433C269.494 26.1598 270.736 27.3729 272.29 27.3729C274.077 27.3729 275.164 26.1598 275.164 24.6433C275.164 23.051 274.077 21.9137 272.29 21.9137C270.659 21.8379 269.494 22.9752 269.494 24.6433Z" fill="#CCD1DC"/>
<path d="M281.299 25.4774C281.454 26.8422 282.542 27.6762 283.862 27.6762C285.105 27.6762 285.882 27.1455 286.426 26.3872L288.134 27.6762C287.047 29.041 285.571 29.5718 284.095 29.5718C281.143 29.5718 278.891 27.6004 278.891 24.6433C278.891 21.6862 281.221 19.7148 284.095 19.7148C286.814 19.7148 288.601 21.5346 288.601 24.795V25.4774H281.299ZM286.27 23.7334C286.27 22.3686 285.338 21.5346 283.784 21.5346C282.386 21.5346 281.454 22.4445 281.299 23.7334H286.27Z" fill="#CCD1DC"/>
<path d="M300.019 19.7148C302.971 19.7148 305.301 21.6862 305.301 24.6433C305.301 27.6004 302.971 29.5718 300.019 29.5718C297.145 29.5718 294.814 27.6004 294.814 24.6433C294.737 21.6862 297.067 19.7148 300.019 19.7148ZM300.019 27.4487C301.806 27.4487 302.815 26.0839 302.815 24.6433C302.815 23.2027 301.728 21.8379 300.019 21.8379C298.232 21.8379 297.222 23.2027 297.222 24.6433C297.145 26.1598 298.232 27.4487 300.019 27.4487Z" fill="#CCD1DC"/>
<path d="M307.168 21.912H305.148V19.9406H307.168V18.5758C307.168 15.9978 307.79 14.2539 310.741 14.2539C311.285 14.2539 311.751 14.3297 312.295 14.4056L312.14 16.3769C311.829 16.3011 311.44 16.2253 311.13 16.2253C309.809 16.2253 309.576 17.1352 309.576 18.1967V19.8648H311.829V21.8362H309.576V29.2668H307.168V21.912Z" fill="#CCD1DC"/>
<path d="M318.742 15.4688H323.558C326.277 15.4688 328.763 16.3786 328.763 19.4873C328.763 22.9752 326.122 23.5818 323.092 23.5818H321.306V29.3443H318.742V15.4688ZM322.782 21.5346C324.257 21.5346 326.122 21.4587 326.122 19.5632C326.122 17.8193 324.49 17.5918 323.092 17.5918H321.306V21.4587H322.782V21.5346Z" fill="#CCD1DC"/>
<path d="M332.338 21.2294C332.727 20.4712 333.736 19.7129 335.212 19.7129C337.776 19.7129 338.708 21.5327 338.708 23.4282V29.3424H336.378V24.5656C336.378 23.5041 336.3 21.836 334.591 21.836C333.037 21.836 332.416 22.9733 332.416 24.2623V29.4182H330.008V14.6328H332.416L332.338 21.2294Z" fill="#CCD1DC"/>
<path d="M339.328 19.9414H341.969L344.688 26.4622H344.766L347.174 19.9414H349.66L345.076 31.3906C344.377 33.1345 343.523 34.0444 341.425 34.0444C340.804 34.0444 340.183 33.9686 339.561 33.8169L339.872 31.6939C340.26 31.8456 340.649 31.9214 341.115 31.9214C342.28 31.9214 342.591 31.5423 343.057 30.5566L343.523 29.4192L339.328 19.9414Z" fill="#CCD1DC"/>
<path d="M355.403 22.518C354.937 21.9114 354.316 21.5323 353.539 21.5323C352.917 21.5323 352.141 21.8356 352.141 22.518C352.141 24.1861 357.345 22.8213 357.345 26.4608C357.345 28.6596 355.17 29.4937 353.15 29.4937C351.675 29.4937 350.354 29.1145 349.422 28.053L351.053 26.6124C351.675 27.2948 352.296 27.7497 353.306 27.7497C354.005 27.7497 354.937 27.4464 354.937 26.6882C354.937 24.7168 349.733 26.3091 349.733 22.6696C349.733 20.5466 351.675 19.6367 353.617 19.6367C354.937 19.6367 356.258 20.0158 357.034 21.0773L355.403 22.518Z" fill="#CCD1DC"/>
<path d="M359.991 15.3164C360.846 15.3164 361.545 15.923 361.545 16.757C361.545 17.5911 360.846 18.1977 359.991 18.1977C359.137 18.1977 358.438 17.5153 358.438 16.757C358.515 15.9988 359.137 15.3164 359.991 15.3164ZM358.826 19.9416H361.234V29.3436H358.826V19.9416Z" fill="#CCD1DC"/>
<path d="M369.78 22.7454C369.236 22.1389 368.615 21.8356 367.915 21.8356C366.129 21.8356 365.119 23.2004 365.119 24.641C365.119 26.0816 366.207 27.4464 367.915 27.4464C368.692 27.4464 369.314 27.1432 369.78 26.5366L371.411 28.2047C370.401 29.1904 368.77 29.4937 367.915 29.4937C365.041 29.4937 362.711 27.5223 362.711 24.5652C362.711 21.6081 365.041 19.6367 367.915 19.6367C369.158 19.6367 370.479 20.0917 371.411 21.0773L369.78 22.7454Z" fill="#CCD1DC"/>
<path d="M373.272 15.3164C374.127 15.3164 374.826 15.923 374.826 16.757C374.826 17.5911 374.127 18.1977 373.272 18.1977C372.418 18.1977 371.719 17.5153 371.719 16.757C371.796 15.9988 372.418 15.3164 373.272 15.3164ZM372.107 19.9416H374.515V29.3436H372.107V19.9416Z" fill="#CCD1DC"/>
<path d="M382.516 28.0537C381.74 29.1152 380.652 29.5702 379.332 29.5702C377.545 29.5702 375.836 28.5845 375.836 26.7647C375.836 23.7318 379.487 23.5044 381.895 23.5044H382.516V23.2769C382.516 22.1396 381.584 21.533 380.341 21.533C379.332 21.533 378.399 21.9121 377.778 22.5187L376.535 21.3055C377.623 20.244 379.098 19.7891 380.652 19.7891C384.769 19.7891 384.769 22.6703 384.769 24.0351V29.4185H382.594V28.0537H382.516ZM382.361 25.1725H381.895C380.574 25.1725 378.244 25.2483 378.244 26.6131C378.244 27.4471 379.176 27.8263 379.953 27.8263C381.584 27.8263 382.361 26.9922 382.361 25.7032V25.1725Z" fill="#CCD1DC"/>
<path d="M386.867 19.9423H389.12V21.4588H389.198C389.664 20.5489 390.518 19.7148 392.149 19.7148C394.713 19.7148 395.645 21.5346 395.645 23.4302V29.3443H393.237V24.5675C393.237 23.506 393.159 21.8379 391.45 21.8379C389.897 21.8379 389.275 22.9752 389.275 24.2642V29.4201H386.867V19.9423Z" fill="#CCD1DC"/>
<path d="M402.716 22.518C402.25 21.9114 401.628 21.5323 400.851 21.5323C400.23 21.5323 399.453 21.8356 399.453 22.518C399.453 24.1861 404.658 22.8213 404.658 26.4608C404.658 28.6596 402.483 29.4937 400.463 29.4937C398.987 29.4937 397.667 29.1145 396.734 28.053L398.366 26.6124C398.987 27.2948 399.609 27.7497 400.618 27.7497C401.317 27.7497 402.25 27.4464 402.25 26.6882C402.25 24.7168 397.045 26.3091 397.045 22.6696C397.045 20.5466 398.987 19.6367 400.929 19.6367C402.25 19.6367 403.57 20.0158 404.347 21.0773L402.716 22.518Z" fill="#CCD1DC"/>
<path d="M133.632 38.7461H135.031V47.6173H139.769V48.9063H133.555V38.7461H133.632Z" fill="#CCD1DC"/>
<path d="M141.789 46.0225C141.789 47.2357 142.954 47.9939 144.119 47.9939C144.896 47.9939 145.517 47.6148 146.061 47.0082L147.071 47.7664C146.372 48.6763 145.284 49.1312 143.964 49.1312C141.789 49.1312 140.391 47.6148 140.391 45.5676C140.391 43.5204 141.867 42.0039 143.964 42.0039C146.45 42.0039 147.382 43.8236 147.382 45.5676V46.0225H141.789ZM145.906 44.961C145.906 43.8236 145.207 42.9896 143.886 42.9896C142.566 42.9896 141.711 44.0511 141.711 44.961H145.906Z" fill="#CCD1DC"/>
<path d="M148.858 42.9896C149.557 42.3072 150.644 42.0039 151.654 42.0039C153.674 42.0039 154.528 43.0654 154.528 44.2786V47.7664C154.528 48.2214 154.528 48.6763 154.606 48.9796H153.441C153.441 48.6005 153.363 48.2972 153.363 47.9181C152.742 48.8279 151.965 49.1312 150.955 49.1312C149.634 49.1312 148.547 48.4488 148.547 47.084C148.547 45.3401 150.256 44.7335 152.353 44.7335H153.285V44.4302C153.285 43.7478 152.742 42.9896 151.654 42.9896C150.644 42.9896 150.178 43.4445 149.634 43.7478L148.858 42.9896ZM152.586 45.6434C151.343 45.6434 149.79 45.8709 149.79 46.9324C149.79 47.6906 150.411 48.0697 151.266 48.0697C152.742 48.0697 153.285 47.0082 153.285 46.0983V45.6434H152.586Z" fill="#CCD1DC"/>
<path d="M163.31 48.9051H161.989V47.9194C161.445 48.6777 160.513 49.0568 159.581 49.0568C157.406 49.0568 156.008 47.4645 156.008 45.4931C156.008 43.4459 157.406 41.9295 159.581 41.9295C160.591 41.9295 161.523 42.3844 161.989 43.0668V38.0625H163.31V48.9051ZM161.989 45.4931C161.989 44.1283 161.135 43.1426 159.659 43.1426C158.183 43.1426 157.328 44.1283 157.328 45.4931C157.328 46.8579 158.183 47.8436 159.659 47.8436C161.135 47.8436 161.989 46.9337 161.989 45.4931Z" fill="#CCD1DC"/>
<path d="M165.948 38.7461C166.492 38.7461 166.881 39.201 166.881 39.656C166.881 40.1867 166.415 40.5658 165.948 40.5658C165.405 40.5658 165.016 40.1109 165.016 39.656C164.939 39.201 165.405 38.7461 165.948 38.7461ZM165.249 42.1581H166.57V48.9821H165.249V42.1581Z" fill="#CCD1DC"/>
<path d="M168.586 42.1555H169.907V43.2171C170.217 42.5347 171.149 42.0039 172.237 42.0039C173.557 42.0039 174.8 42.7621 174.8 44.5819V48.9796H173.48V44.961C173.48 43.672 172.703 43.2171 171.926 43.2171C170.839 43.2171 169.984 43.8995 169.984 45.4917V48.9796H168.586V42.1555Z" fill="#CCD1DC"/>
<path d="M183.27 48.8279C183.27 50.8752 181.717 52.3158 179.464 52.3158C178.143 52.3158 177.056 52.0125 176.046 51.1026L176.978 50.0411C177.677 50.7235 178.454 51.1784 179.464 51.1784C181.406 51.1784 181.95 49.9653 181.95 48.8279V47.8422H181.872C181.406 48.6763 180.396 49.0554 179.464 49.0554C177.444 49.0554 175.891 47.539 175.891 45.5676C175.891 43.5204 177.289 42.0039 179.464 42.0039C180.396 42.0039 181.406 42.4588 181.872 43.1412V42.1555H183.193L183.27 48.8279ZM177.367 45.4917C177.367 46.8566 178.221 47.7664 179.697 47.7664C181.095 47.7664 181.95 46.8566 181.95 45.4917C181.95 44.1269 181.095 43.1412 179.697 43.1412C178.299 43.1412 177.367 44.1269 177.367 45.4917Z" fill="#CCD1DC"/>
<path d="M189.172 38.7461H190.57V48.9063H189.172V38.7461Z" fill="#CCD1DC"/>
<path d="M192.828 42.1555H194.149V43.2171C194.459 42.5347 195.392 42.0039 196.401 42.0039C197.722 42.0039 198.965 42.7621 198.965 44.5819V48.9796H197.644V44.961C197.644 43.672 196.867 43.2171 196.091 43.2171C195.003 43.2171 194.149 43.8995 194.149 45.4917V48.9796H192.828V42.1555Z" fill="#CCD1DC"/>
<path d="M204.324 43.2165H202.46V46.3252C202.46 47.0834 202.46 47.9175 203.47 47.9175C203.781 47.9175 204.169 47.8417 204.402 47.69V48.8274C204.091 48.979 203.47 49.0548 203.237 49.0548C201.217 49.0548 201.14 47.8417 201.14 46.7802V43.2165H199.586V42.0792H201.14V40.1836H202.46V42.0792H204.324V43.2165Z" fill="#CCD1DC"/>
<path d="M206.883 46.0225C206.883 47.2357 208.048 47.9939 209.213 47.9939C209.99 47.9939 210.611 47.6148 211.155 47.0082L212.165 47.7664C211.466 48.6763 210.378 49.1312 209.058 49.1312C206.883 49.1312 205.484 47.6148 205.484 45.5676C205.484 43.5204 206.96 42.0039 209.058 42.0039C211.543 42.0039 212.476 43.8236 212.476 45.5676V46.0225H206.883ZM211.077 44.961C211.077 43.8236 210.378 42.9896 209.058 42.9896C207.737 42.9896 206.883 44.0511 206.883 44.961H211.077Z" fill="#CCD1DC"/>
<path d="M213.641 42.1555H214.961V43.2171C215.272 42.5347 216.204 42.0039 217.059 42.0039C217.292 42.0039 217.447 42.0039 217.68 42.0797L217.602 43.4445C217.369 43.3687 217.136 43.3687 216.981 43.3687C215.66 43.3687 214.961 44.0511 214.961 45.5676V48.9796H213.641V42.1555Z" fill="#CCD1DC"/>
<path d="M218.922 42.1555H220.242V43.2171C220.553 42.5347 221.485 42.0039 222.495 42.0039C223.816 42.0039 225.059 42.7621 225.059 44.5819V48.9796H223.738V44.961C223.738 43.672 222.961 43.2171 222.184 43.2171C221.097 43.2171 220.242 43.8995 220.242 45.4917V48.9796H218.922V42.1555Z" fill="#CCD1DC"/>
<path d="M226.694 42.9896C227.393 42.3072 228.48 42.0039 229.49 42.0039C231.51 42.0039 232.364 43.0654 232.364 44.2786V47.7664C232.364 48.2214 232.364 48.6763 232.442 48.9796H231.277C231.277 48.6005 231.199 48.2972 231.199 47.9181C230.578 48.8279 229.801 49.1312 228.791 49.1312C227.47 49.1312 226.383 48.4488 226.383 47.084C226.383 45.3401 228.092 44.7335 230.189 44.7335H231.121V44.4302C231.121 43.7478 230.578 42.9896 229.49 42.9896C228.48 42.9896 228.014 43.4445 227.47 43.7478L226.694 42.9896ZM230.422 45.6434C229.179 45.6434 227.626 45.8709 227.626 46.9324C227.626 47.6906 228.247 48.0697 229.102 48.0697C230.578 48.0697 231.121 47.0082 231.121 46.0983V45.6434H230.422Z" fill="#CCD1DC"/>
<path d="M234.227 38.0625H235.547V48.9051H234.227V38.0625Z" fill="#CCD1DC"/>
<path d="M241.219 38.7461H243.316L246.656 46.4042H246.734L249.997 38.7461H252.094V48.9063H250.696V40.5658L247.2 48.9063H246.268L242.772 40.5658V48.9063H241.374L241.219 38.7461Z" fill="#CCD1DC"/>
<path d="M254.812 46.0225C254.812 47.2357 255.977 47.9939 257.143 47.9939C257.919 47.9939 258.541 47.6148 259.085 47.0082L260.095 47.7664C259.395 48.6763 258.308 49.1312 256.987 49.1312C254.812 49.1312 253.414 47.6148 253.414 45.5676C253.414 43.5204 254.89 42.0039 256.987 42.0039C259.473 42.0039 260.405 43.8236 260.405 45.5676V46.0225H254.812ZM259.007 44.961C259.007 43.8236 258.308 42.9896 256.987 42.9896C255.667 42.9896 254.812 44.0511 254.812 44.961H259.007Z" fill="#CCD1DC"/>
<path d="M268.56 48.9051H267.239V47.9194C266.695 48.6777 265.763 49.0568 264.831 49.0568C262.656 49.0568 261.258 47.4645 261.258 45.4931C261.258 43.4459 262.656 41.9295 264.831 41.9295C265.841 41.9295 266.773 42.3844 267.239 43.0668V38.0625H268.56V48.9051ZM267.239 45.4931C267.239 44.1283 266.385 43.1426 264.986 43.1426C263.588 43.1426 262.656 44.1283 262.656 45.4931C262.656 46.8579 263.511 47.8436 264.986 47.8436C266.462 47.8436 267.239 46.9337 267.239 45.4931Z" fill="#CCD1DC"/>
<path d="M271.206 38.7461C271.749 38.7461 272.138 39.201 272.138 39.656C272.138 40.1867 271.672 40.5658 271.206 40.5658C270.74 40.5658 270.273 40.1109 270.273 39.656C270.273 39.201 270.662 38.7461 271.206 38.7461ZM270.506 42.1581H271.827V48.9821H270.506V42.1581Z" fill="#CCD1DC"/>
<path d="M278.813 43.9011C278.347 43.3703 277.804 43.1429 277.105 43.1429C275.629 43.1429 274.929 44.2802 274.929 45.5692C274.929 46.8582 275.784 47.8438 277.182 47.8438C277.881 47.8438 278.425 47.6164 278.891 47.0856L279.823 47.9955C279.124 48.7537 278.192 49.057 277.182 49.057C275.007 49.057 273.531 47.6164 273.531 45.4934C273.531 43.3703 275.007 41.9297 277.182 41.9297C278.192 41.9297 279.202 42.3088 279.823 42.9912L278.813 43.9011Z" fill="#CCD1DC"/>
<path d="M281.534 38.7461C282.077 38.7461 282.466 39.201 282.466 39.656C282.466 40.1867 282 40.5658 281.534 40.5658C280.99 40.5658 280.602 40.1109 280.602 39.656C280.602 39.201 281.068 38.7461 281.534 38.7461ZM280.912 42.1581H282.233V48.9821H280.912V42.1581Z" fill="#CCD1DC"/>
<path d="M284.172 42.1555H285.492V43.2171C285.803 42.5347 286.735 42.0039 287.823 42.0039C289.143 42.0039 290.309 42.7621 290.309 44.5819V48.9796H288.988V44.961C288.988 43.672 288.211 43.2171 287.434 43.2171C286.347 43.2171 285.492 43.8995 285.492 45.4917V48.9796H284.172V42.1555Z" fill="#CCD1DC"/>
<path d="M293.265 46.0225C293.265 47.2357 294.431 47.9939 295.596 47.9939C296.373 47.9939 296.994 47.6148 297.538 47.0082L298.548 47.7664C297.849 48.6763 296.761 49.1312 295.44 49.1312C293.265 49.1312 291.867 47.6148 291.867 45.5676C291.867 43.5204 293.343 42.0039 295.44 42.0039C297.926 42.0039 298.858 43.8236 298.858 45.5676V46.0225H293.265ZM297.46 44.961C297.46 43.8236 296.761 42.9896 295.44 42.9896C294.12 42.9896 293.265 44.0511 293.265 44.961H297.46Z" fill="#CCD1DC"/>
<path d="M300.337 50.8019H299.094L300.104 47.2383H301.502L300.337 50.8019Z" fill="#CCD1DC"/>
<path d="M305.305 38.7461H306.703V48.9063H305.305V38.7461Z" fill="#CCD1DC"/>
<path d="M308.953 42.1555H310.196V43.2171C310.351 42.838 311.206 42.0039 312.449 42.0039C313.459 42.0039 314.158 42.4588 314.624 43.2929C315.09 42.4588 316.022 42.0039 316.799 42.0039C318.974 42.0039 319.44 43.5204 319.44 45.0368V48.9796H318.119V45.1885C318.119 44.1269 317.886 43.2171 316.643 43.2171C315.401 43.2171 314.857 44.0511 314.857 45.2643V48.9796H313.536V45.4159C313.536 44.1269 313.381 43.2171 312.06 43.2171C311.128 43.2171 310.274 43.8995 310.274 45.4917V48.9796H308.953V42.1555Z" fill="#CCD1DC"/>
<path d="M321.383 42.1555H322.703V43.1412C323.247 42.383 324.179 42.0039 325.111 42.0039C327.286 42.0039 328.685 43.5962 328.685 45.5676C328.685 47.6148 327.286 49.1312 325.111 49.1312C324.102 49.1312 323.169 48.6763 322.703 47.9939V52.9982H321.383V42.1555ZM322.703 45.4917C322.703 46.8566 323.558 47.8422 324.956 47.8422C326.354 47.8422 327.286 46.8566 327.286 45.4917C327.286 44.1269 326.432 43.1412 324.956 43.1412C323.558 43.1412 322.703 44.1269 322.703 45.4917Z" fill="#CCD1DC"/>
<path d="M330.164 42.1555H331.485V43.2171C331.795 42.5347 332.727 42.0039 333.582 42.0039C333.815 42.0039 333.97 42.0039 334.203 42.0797L334.126 43.4445C333.893 43.3687 333.66 43.3687 333.504 43.3687C332.184 43.3687 331.485 44.0511 331.485 45.5676V48.9796H330.164V42.1555Z" fill="#CCD1DC"/>
<path d="M338.315 41.9297C340.412 41.9297 342.043 43.522 342.043 45.4934C342.043 47.4647 340.412 49.057 338.315 49.057C336.217 49.057 334.586 47.4647 334.586 45.4934C334.586 43.522 336.217 41.9297 338.315 41.9297ZM338.315 47.9197C339.713 47.9197 340.645 46.934 340.645 45.5692C340.645 44.2044 339.79 43.2187 338.315 43.2187C336.916 43.2187 336.062 44.2044 336.062 45.5692C336.062 46.934 336.916 47.9197 338.315 47.9197Z" fill="#CCD1DC"/>
<path d="M342.438 42.1562H343.991L346.088 47.388L348.108 42.1562H349.506L346.788 48.9803H345.312L342.438 42.1562Z" fill="#CCD1DC"/>
<path d="M351.213 38.7461C351.757 38.7461 352.146 39.201 352.146 39.656C352.146 40.1867 351.679 40.5658 351.213 40.5658C350.747 40.5658 350.281 40.1109 350.281 39.656C350.281 39.201 350.747 38.7461 351.213 38.7461ZM350.592 42.1581H351.913V48.9821H350.592V42.1581Z" fill="#CCD1DC"/>
<path d="M353.852 42.1555H355.172V43.2171C355.483 42.5347 356.415 42.0039 357.502 42.0039C358.823 42.0039 360.066 42.7621 360.066 44.5819V48.9796H358.745V44.961C358.745 43.672 357.969 43.2171 357.192 43.2171C356.104 43.2171 355.25 43.8995 355.25 45.4917V48.9796H353.929L353.852 42.1555Z" fill="#CCD1DC"/>
<path d="M368.614 48.8279C368.614 50.8752 367.06 52.3158 364.808 52.3158C363.487 52.3158 362.4 52.0125 361.39 51.1026L362.322 50.0411C363.021 50.7235 363.798 51.1784 364.808 51.1784C366.75 51.1784 367.293 49.9653 367.293 48.8279V47.8422H367.216C366.75 48.6763 365.74 49.0554 364.808 49.0554C362.788 49.0554 361.234 47.539 361.234 45.5676C361.234 43.5204 362.633 42.0039 364.808 42.0039C365.74 42.0039 366.75 42.4588 367.216 43.1412V42.1555H368.536L368.614 48.8279ZM362.71 45.4917C362.71 46.8566 363.565 47.7664 364.963 47.7664C366.361 47.7664 367.293 46.8566 367.293 45.4917C367.293 44.1269 366.439 43.1412 364.963 43.1412C363.565 43.1412 362.71 44.1269 362.71 45.4917Z" fill="#CCD1DC"/>
<path d="M373.898 38.7461H375.296V47.6173H380.035V48.9063H373.82V38.7461H373.898Z" fill="#CCD1DC"/>
<path d="M381.815 38.7461C382.359 38.7461 382.825 39.201 382.825 39.656C382.825 40.1867 382.359 40.5658 381.815 40.5658C381.271 40.5658 380.883 40.1109 380.883 39.656C380.883 39.201 381.271 38.7461 381.815 38.7461ZM381.194 42.1581H382.514V48.9821H381.194V42.1581Z" fill="#CCD1DC"/>
<path d="M383.68 42.1562H385.233L387.331 47.388L389.35 42.1562H390.749L388.03 48.9803H386.554L383.68 42.1562Z" fill="#CCD1DC"/>
<path d="M392.695 46.0225C392.695 47.2357 393.86 47.9939 395.026 47.9939C395.802 47.9939 396.424 47.6148 396.968 47.0082L397.977 47.7664C397.278 48.6763 396.191 49.1312 394.87 49.1312C392.695 49.1312 391.297 47.6148 391.297 45.5676C391.297 43.5204 392.773 42.0039 394.87 42.0039C397.356 42.0039 398.288 43.8236 398.288 45.5676V46.0225H392.695ZM396.89 44.961C396.89 43.8236 396.191 42.9896 394.87 42.9896C393.55 42.9896 392.695 44.0511 392.695 44.961H396.89Z" fill="#CCD1DC"/>
<path d="M403.491 43.8269C403.18 43.4477 402.714 43.1445 402.093 43.1445C401.471 43.1445 400.928 43.4477 400.928 43.9027C400.928 44.7367 402.093 44.8125 402.714 44.9642C403.88 45.2675 404.734 45.6466 404.734 46.9356C404.734 48.452 403.258 49.0586 401.938 49.0586C400.772 49.0586 399.918 48.7553 399.219 47.8455L400.229 47.0114C400.617 47.3905 401.161 47.8455 401.938 47.8455C402.637 47.8455 403.336 47.5422 403.336 47.0114C403.336 46.2532 402.248 46.1015 401.627 45.9499C400.462 45.6466 399.529 45.3433 399.529 43.9785C399.529 42.5379 400.85 41.8555 402.171 41.8555C403.103 41.8555 404.035 42.1588 404.579 42.9928L403.491 43.8269Z" fill="#CCD1DC"/>
<path d="M21.3858 1.36328H28.9207L50.0496 49.1315H40.1066L35.5235 38.2131H14.3169L9.88919 49.1315H0.101562L21.3858 1.36328ZM32.4163 30.9341L24.8814 11.5235L17.1911 30.9341H32.4163Z" fill="#CCD1DC"/>
<path d="M84.5424 12.5107C80.9692 8.79542 77.629 7.80973 74.2111 7.80973C64.1127 7.80973 57.4323 15.392 57.4323 24.8698C57.4323 35.03 64.1127 42.6123 74.2111 42.6123C78.1727 42.6123 81.979 40.8684 85.2416 36.774L92.4658 41.7783C88.038 47.6924 81.4353 50.2704 74.2111 50.2704C59.1412 50.2704 48.3438 40.2618 48.3438 25.3247C48.3438 10.0086 59.1412 0 74.2111 0C80.8138 0 86.5621 2.12303 91.3783 7.58226L84.5424 12.5107Z" fill="#CCD1DC"/>
<path d="M96.6562 1.36328H113.124C122.601 1.36328 131.146 4.62365 131.146 15.163C131.146 27.143 121.98 29.3418 111.571 29.3418H105.356V49.1315H96.6562V1.36328ZM110.639 22.0629C115.61 22.0629 122.057 21.7596 122.057 15.3146C122.057 9.4763 116.309 8.64225 111.648 8.64225H105.434V22.0629H110.639Z" fill="#CCD1DC"/>
<path d="M411.568 13.8008C414.054 13.8008 415.996 15.7722 415.996 18.1227C415.996 20.549 413.976 22.4446 411.568 22.4446C409.083 22.4446 407.141 20.4732 407.141 18.1227C407.141 15.7722 409.16 13.8008 411.568 13.8008ZM411.568 21.7622C413.588 21.7622 415.219 20.1699 415.219 18.1985C415.219 16.2271 413.588 14.6348 411.568 14.6348C409.549 14.6348 407.917 16.2271 407.917 18.1985C407.917 20.1699 409.549 21.7622 411.568 21.7622ZM409.859 15.6963H411.801C413.044 15.6963 413.588 16.2271 413.588 17.2128C413.588 18.0468 413.044 18.5018 412.345 18.5776L413.666 20.7006H412.656L411.413 18.6534H410.714V20.7006H409.782L409.859 15.6963ZM410.792 17.8194H411.491C412.034 17.8194 412.734 17.8194 412.734 17.137C412.734 16.4546 412.112 16.4546 411.491 16.4546H410.792V17.8194Z" fill="#CCD1DC"/>
</svg>
