<svg width="91" height="110" viewBox="0 0 91 110" fill="none" xmlns="http://www.w3.org/2000/svg">
<path d="M20.2188 44.517V43.8427C20.5215 43.6741 20.8243 43.5055 21.127 43.1684C21.2784 43.1684 21.2784 42.9998 21.2784 42.8312C21.4298 42.3255 21.4298 41.8198 21.4298 41.3141C21.4298 40.134 21.4298 39.4597 21.4298 39.1226V32.0425C21.4298 30.8625 21.4298 29.6825 21.4298 28.5025C21.4298 27.9967 21.4298 27.491 21.2784 26.9853C21.127 26.8167 20.9757 26.6482 20.8243 26.6482C20.2188 26.4796 19.6133 26.4796 19.0078 26.4796V25.6367C20.9757 25.6367 22.1866 25.6367 22.6408 25.6367C23.0949 25.6367 24.3059 25.6367 26.1223 25.6367V26.4796C25.5168 26.4796 24.9113 26.4796 24.3059 26.6482C24.1545 26.6482 24.0031 26.8167 23.8517 26.9853C23.7004 27.3225 23.7004 27.8282 23.7004 28.3339C23.7004 28.5025 23.7004 29.6825 23.7004 32.0425V40.8083C23.7004 41.6512 23.7004 42.4941 23.7004 42.9998C24.6086 42.9998 24.76 42.9998 25.6682 42.9998C27.3333 42.9998 28.9984 42.9998 30.6635 42.4941C30.8149 42.1569 30.8149 41.8198 30.9662 41.6512L31.4204 39.4597H32.1772C32.0259 40.8083 31.8745 42.3255 31.5717 44.0112C31.269 44.0112 30.9662 44.1798 30.8149 44.1798C30.3608 44.1798 29.7553 44.1798 28.847 44.1798H22.338C21.7325 44.3484 20.9757 44.3484 20.2188 44.517Z" fill="#CCD1DC"/>
<path d="M41.1096 43.6741V44.517C39.4445 44.517 38.2336 44.517 37.6281 44.517H33.8438V43.6741C34.4492 43.6741 35.0547 43.6741 35.5088 43.5055C35.6602 43.5055 35.8116 43.3369 35.963 43.1684C36.1143 42.8312 36.1143 42.3255 36.1143 41.8198C36.1143 41.6512 36.1143 40.4712 36.1143 38.1112V32.0425C36.1143 30.8625 36.1143 29.6825 36.1143 28.5025C36.1143 27.9967 36.1143 27.491 35.963 26.9853C35.8116 26.8167 35.6602 26.6482 35.5088 26.6482C34.9034 26.4796 34.2979 26.4796 33.8438 26.4796V25.6367C35.3575 25.6367 36.5685 25.6367 37.4767 25.6367C38.2336 25.6367 39.4445 25.6367 41.1096 25.6367V26.4796C40.5041 26.4796 39.8987 26.4796 39.2932 26.6482C39.1418 26.6482 38.9904 26.8167 38.839 26.9853C38.6877 27.3225 38.6877 27.8282 38.6877 28.3339C38.6877 28.5025 38.6877 29.6825 38.6877 32.0425V38.1112C38.6877 39.2912 38.6877 40.4712 38.6877 41.6512C38.6877 42.1569 38.6877 42.6626 38.839 43.1684C38.9904 43.3369 39.1418 43.5055 39.2932 43.5055C39.8987 43.6741 40.5041 43.6741 41.1096 43.6741ZM38.839 28.5025C38.839 28.671 38.839 29.8511 38.839 32.2111V38.2797" fill="#CCD1DC"/>
<path d="M43.8281 44.5157V43.6729C44.4336 43.6729 45.0391 43.6729 45.4932 43.5043C45.6446 43.5043 45.6446 43.3357 45.796 43.3357C45.9473 42.83 45.9473 42.4929 45.9473 41.9871C45.9473 40.8071 45.9473 39.7957 45.9473 38.9528V28.3327C45.9473 28.1641 45.9473 27.9955 45.9473 27.827C45.796 27.6584 45.6446 27.4898 45.4932 27.3212C45.3419 27.1527 45.1905 27.1527 45.0391 26.9841C44.585 26.9841 44.1309 26.9841 43.8281 26.9841V26.1412C45.1905 26.1412 46.0987 26.1412 46.5528 26.1412C47.1583 26.1412 47.7638 26.1412 48.3693 26.1412C49.1262 27.1527 49.5803 27.827 49.883 28.3327L52.4564 31.7042L56.0893 36.4242C57.3003 37.9414 58.2085 39.1214 58.9654 39.9643C59.4195 40.47 59.7222 40.9757 60.1764 41.3128V31.7042C60.1764 30.8613 60.1764 29.8498 60.1764 28.6698C60.1764 28.1641 60.1764 27.827 60.025 27.3212C60.025 27.1527 59.8736 27.1527 59.7222 26.9841C59.1168 26.8155 58.6626 26.8155 58.0571 26.8155V25.9727C58.9654 25.9727 60.025 25.9727 60.9332 25.9727C61.8415 25.9727 62.7497 25.9727 63.5066 25.9727V26.8155C62.9011 26.8155 62.2956 26.8155 61.8415 26.9841C61.6901 26.9841 61.6901 27.1527 61.5387 27.3212C61.3873 27.827 61.3873 28.1641 61.3873 28.6698C61.3873 29.8498 61.3873 30.8613 61.3873 31.7042V37.7728C61.3873 39.1214 61.3873 41.4814 61.3873 44.8529H59.8736L59.5709 44.5157L59.4195 44.3472C59.2681 44.1786 59.1168 44.01 58.9654 43.8414C58.3599 42.9986 57.7544 42.3243 57.4517 41.9871L55.9379 39.7957L47.3097 28.5013V38.6157C47.3097 39.4585 47.3097 40.47 47.4611 41.65C47.4611 42.1557 47.4611 42.4929 47.6124 42.9986C47.6124 43.1672 47.7638 43.1672 47.9152 43.3357C48.5207 43.5043 48.9748 43.5043 49.5803 43.5043V44.5157C48.8234 44.5157 48.0666 44.5157 47.1583 44.5157C45.9473 44.3472 45.0391 44.3472 43.8281 44.5157Z" fill="#CCD1DC"/>
<path d="M72.4456 43.6741V44.517C70.7805 44.517 69.5695 44.517 68.964 44.517H65.1797V43.6741C65.7852 43.6741 66.3907 43.6741 66.9962 43.5055C67.1475 43.5055 67.2989 43.3369 67.4503 43.1684C67.6016 42.8312 67.6016 42.3255 67.6016 41.8198C67.6016 41.6512 67.6016 40.4712 67.6016 38.1112V32.0425C67.6016 30.8625 67.6016 29.6825 67.6016 28.5025C67.6016 27.9967 67.6016 27.491 67.4503 26.9853C67.2989 26.8167 67.1475 26.6482 66.9962 26.6482C66.3907 26.4796 65.7852 26.4796 65.1797 26.4796V25.6367C66.6934 25.6367 67.9044 25.6367 68.8126 25.6367C69.5695 25.6367 70.7805 25.6367 72.4456 25.6367V26.4796C71.8401 26.4796 71.2346 26.4796 70.6291 26.6482C70.4777 26.6482 70.3264 26.8167 70.175 26.9853C70.0236 27.3225 70.0236 27.8282 70.0236 28.3339C70.0236 28.5025 70.0236 29.6825 70.0236 32.0425V38.1112C70.0236 39.2912 70.0236 40.4712 70.0236 41.6512C70.0236 42.1569 70.0236 42.6626 70.175 43.1684C70.3264 43.3369 70.4777 43.5055 70.6291 43.5055C71.386 43.6741 71.9915 43.6741 72.4456 43.6741Z" fill="#CCD1DC"/>
<path d="M90.0045 42.1562L89.5504 43.3362C88.6421 43.8419 87.7339 44.1791 86.6743 44.5162C85.6147 44.6848 84.7064 44.8534 83.6468 44.8534C82.4359 44.8534 81.2249 44.6848 80.1653 44.3476C79.1057 44.0105 78.1974 43.5048 77.2892 42.8305C75.7755 41.6505 74.7159 40.1333 74.1104 38.1104C73.8076 37.099 73.6562 36.0875 73.6562 35.0761C73.6562 32.3789 74.5645 29.8503 76.381 28.1646C78.5002 26.3103 81.0735 25.2988 83.7982 25.4674C84.5551 25.4674 85.1606 25.4674 85.9174 25.636C86.6743 25.8046 87.4312 25.9731 88.188 26.1417C89.0963 26.4788 89.7017 26.4788 89.8531 26.6474C89.7017 27.1531 89.5504 27.4903 89.399 27.996C89.2476 28.8389 89.0963 29.6817 89.0963 30.5246H88.6421V29.0074C88.4908 28.1646 88.0366 27.3217 87.2798 27.1531C86.2202 26.6474 85.0092 26.4788 83.7982 26.4788C82.7386 26.4788 81.8304 26.6474 80.7708 26.9846C80.0139 27.3217 79.257 27.8274 78.6515 28.3332C78.0461 29.0074 77.4406 29.8503 77.1378 30.8618C76.6837 32.0418 76.5323 33.3904 76.5323 34.5704C76.381 36.9304 77.2892 39.2904 78.8029 40.9762C80.468 42.6619 82.5872 43.5048 84.8578 43.3362C85.9174 43.3362 86.977 43.1676 88.0366 42.8305C88.7935 42.6619 89.399 42.1562 90.0045 41.819V42.1562Z" fill="#CCD1DC"/>
<path d="M17.192 42.1556L16.7379 43.3356C15.8296 43.8413 14.9214 44.1785 13.8618 44.5156C12.8022 44.6842 11.8939 44.8528 10.8343 44.8528C9.62336 44.8528 8.41238 44.6842 7.35277 44.347C6.29316 44.0099 5.38493 43.5042 4.47669 42.8299C3.71983 42.3242 2.96297 41.4813 2.50885 40.6384C2.05473 39.7955 1.60061 38.9527 1.29787 38.1098C0.995123 37.2669 0.84375 36.2555 0.84375 35.2441C0.84375 32.5469 1.75199 30.0183 3.56846 28.3325C5.68767 26.4782 8.261 25.4668 10.9857 25.6354C11.7426 25.6354 12.3481 25.6354 13.1049 25.8039C13.8618 25.9725 14.6187 26.1411 15.3755 26.3097C16.2838 26.6468 16.8892 26.6468 17.0406 26.8154C16.8892 27.3211 16.7379 27.6583 16.5865 28.164C16.4351 29.0068 16.2837 29.8497 16.2837 30.6926H15.6783V29.1754C15.5269 28.3325 15.0728 27.4897 14.3159 27.3211C13.2563 26.8154 12.0453 26.6468 10.8343 26.6468C9.77473 26.6468 8.8665 26.8154 7.80689 27.1525C7.05002 27.4897 6.29316 27.9954 5.68767 28.5011C5.08218 29.1754 4.47669 30.0183 4.17395 31.0297C3.71983 32.2097 3.56846 33.5583 3.56846 34.7383C3.41708 37.0984 4.32532 39.4584 5.83904 41.1441C7.50414 42.8299 9.62336 43.6727 11.8939 43.5042C12.9536 43.5042 14.0132 43.3356 15.0728 42.9984C15.8296 42.8299 16.4351 42.3242 17.0406 41.987L17.192 42.1556Z" fill="#CCD1DC"/>
<path d="M7.95312 2.03427V1.19141C8.86136 1.19141 9.61822 1.35998 10.3751 1.35998C11.1319 1.35998 11.8888 1.35998 12.6457 1.19141C13.4025 2.87714 14.008 4.3943 14.6135 5.74289L19.3061 15.8573L23.5445 6.58576C24.7555 4.05716 25.5123 2.20285 25.8151 1.19141C26.7233 1.19141 27.4802 1.35998 28.0857 1.35998C28.6912 1.35998 29.448 1.35998 30.8104 1.19141V2.03427C30.2049 2.03427 29.5994 2.03427 28.9939 2.20285C28.8425 2.20285 28.6912 2.37142 28.5398 2.53999C28.3884 2.87714 28.3884 3.38286 28.3884 3.72001C28.3884 3.88858 28.3884 5.0686 28.3884 7.42863V13.4973C28.3884 14.6773 28.3884 15.8573 28.3884 16.8687C28.3884 17.3745 28.3884 17.8802 28.5398 18.3859C28.6912 18.5545 28.8425 18.7231 28.9939 18.7231C29.5994 18.8916 30.2049 18.8916 30.8104 18.8916V19.7345C29.1453 19.7345 27.9343 19.5659 27.3288 19.5659C26.7233 19.5659 25.5123 19.5659 23.6959 19.7345V18.8916C24.3014 18.8916 24.9068 18.8916 25.5123 18.7231C25.6637 18.7231 25.8151 18.5545 25.9665 18.3859C26.1178 18.0488 26.1178 17.543 26.1178 17.2059C26.1178 17.0373 26.1178 15.8573 26.1178 13.4973V3.88858L21.8794 13.3287C21.2739 14.8459 20.6684 16.0259 20.3657 16.8687C20.0629 17.543 19.7602 18.5545 19.1547 19.9031H18.7006C18.5492 19.5659 18.5492 19.3973 18.3978 19.0602L17.4896 17.2059L11.4347 4.22573V13.3287C11.4347 14.5087 11.4347 15.6887 11.5861 16.8687C11.5861 17.3745 11.5861 17.8802 11.7374 18.3859C11.8888 18.5545 12.0402 18.7231 12.1916 18.7231C12.797 18.8916 13.4025 18.8916 14.008 18.8916V19.7345L10.9806 19.5659L7.95312 19.7345V18.8916C8.55862 18.8916 9.16411 18.8916 9.7696 18.7231C9.92097 18.7231 10.0723 18.5545 10.2237 18.3859C10.3751 18.0488 10.3751 17.543 10.3751 17.2059C10.3751 17.0373 10.3751 15.8573 10.3751 13.4973V7.42863C10.3751 6.24861 10.3751 5.0686 10.3751 4.05716C10.3751 3.55144 10.3751 3.04571 10.2237 2.53999C9.92097 2.37142 9.7696 2.20285 9.61822 2.20285C9.01273 2.03427 8.40724 2.03427 7.95312 2.03427Z" fill="#CCD1DC"/>
<path d="M33.9981 19.5671C34.755 19.5671 35.6632 19.5671 37.177 19.7357V18.8928C36.5715 18.8928 36.1174 18.8928 35.5119 18.7243C35.3605 18.7243 35.2091 18.5557 35.0578 18.5557C35.0578 18.5557 34.9064 18.3871 34.9064 18.2185C34.9064 17.7128 35.0578 17.3757 35.2091 16.87L36.5715 13.4985H43.686L45.1997 17.5442C45.3511 17.7128 45.3511 18.05 45.3511 18.2185C45.3511 18.3871 45.3511 18.3871 45.1997 18.5557C45.0483 18.7243 44.897 18.7243 44.7456 18.7243C44.1401 18.7243 43.686 18.8928 43.0805 18.8928V19.7357L47.0162 19.5671C47.4703 19.5671 48.3785 19.5671 49.7409 19.7357V18.8928C49.2868 18.8928 48.8327 18.8928 48.5299 18.7243C48.3785 18.5557 48.0758 18.3871 48.0758 18.05C47.773 17.5442 47.1676 16.1957 46.4107 14.0042L41.1127 0.855469H40.3558C39.2962 3.72122 38.5393 5.40695 38.2366 6.24982L35.2091 13.6671C34.3009 15.8585 33.6954 17.0385 33.544 17.3757C33.3927 17.7128 33.2413 18.05 32.9385 18.3871C32.7872 18.5557 32.6358 18.5557 32.4844 18.7243C32.0303 18.7243 31.7276 18.8928 31.2734 18.8928V19.7357C32.333 19.5671 33.2413 19.5671 33.9981 19.5671ZM40.3558 4.56409L43.3832 12.487H37.177L40.3558 4.56409Z" fill="#CCD1DC"/>
<path d="M60.1802 3.88858C60.4829 3.38286 60.7857 2.87714 60.937 2.37142C60.937 2.20285 60.7857 2.03427 60.6343 2.03427C60.0288 1.8657 59.4233 1.8657 58.8178 1.8657V1.19141C60.3315 1.19141 61.2398 1.19141 62.148 1.19141C62.9049 1.19141 63.359 1.19141 65.0241 1.19141V2.03427C64.57 2.03427 63.9645 2.03427 63.5104 2.20285C63.359 2.20285 63.0562 2.37142 62.9049 2.53999C62.6021 2.87714 62.148 3.38286 61.9966 3.88858L58.3637 9.45151C57.9096 10.1258 57.6068 10.9687 57.1527 11.643C57.0013 11.8115 57.0013 12.1487 57.0013 12.4858V13.4973C57.0013 14.6773 57.0013 15.8573 57.0013 16.8687C57.0013 17.3745 57.0013 17.8802 57.1527 18.3859C57.3041 18.5545 57.4555 18.7231 57.6068 18.7231C58.2123 18.8916 58.8178 18.8916 59.2719 18.8916V19.7345C57.9096 19.7345 56.85 19.5659 55.7904 19.5659C54.8821 19.5659 53.6711 19.5659 52.1574 19.7345V18.8916C52.7629 18.8916 53.3684 18.8916 53.9739 18.7231C54.1253 18.7231 54.2766 18.5545 54.428 18.3859C54.5794 18.0488 54.5794 17.543 54.5794 17.2059C54.5794 17.0373 54.5794 15.8573 54.5794 13.4973V11.8115C54.428 11.4744 54.2766 11.1372 54.1253 10.8001C53.9739 10.6315 53.5198 9.78866 52.9143 8.60864L49.7355 3.72001C49.5841 3.21429 49.2813 2.70857 48.9786 2.37142C48.8272 2.20285 48.5245 2.03427 48.3731 2.03427C47.919 1.8657 47.3135 1.8657 46.8594 1.8657V1.19141C48.5245 1.19141 48.9786 1.19141 49.7355 1.19141C50.6437 1.19141 52.7629 1.19141 54.2766 1.19141V2.03427C53.6711 2.03427 52.9143 2.03427 52.3088 2.20285C52.1574 2.20285 52.006 2.37142 52.006 2.53999C52.1574 3.04572 52.3088 3.55144 52.6115 4.05716L56.2445 10.6315L60.1802 3.88858Z" fill="#CCD1DC"/>
<path d="M67.6049 5.40756C68.059 4.22754 68.8158 3.38468 69.8754 2.71038C70.935 2.03609 72.146 1.69894 73.357 1.86751C74.2652 1.86751 75.0221 2.03609 75.9303 2.37324C76.6872 2.54181 77.2927 3.04753 77.7468 3.38468C78.2009 3.8904 78.655 4.39612 78.9578 4.90184C79.2605 5.57613 79.5633 6.08185 79.866 6.75615C80.1688 7.93616 80.3202 9.28475 80.3202 10.6333C80.3202 12.1505 80.1688 13.4991 79.5633 14.8477C79.1092 16.0277 78.3523 17.0391 77.4441 17.7134C76.3845 18.3877 75.1735 18.7249 73.9625 18.7249C73.0543 18.7249 72.146 18.5563 71.3892 18.2191C70.6323 17.882 69.8754 17.3763 69.27 16.702C68.6645 16.0277 68.059 15.0162 67.7562 14.0048C67.4535 13.3305 67.3021 12.4876 67.1507 11.8134C66.9994 10.9705 66.848 10.1276 66.848 9.28475C66.848 7.93616 67.1507 6.58757 67.6049 5.40756ZM64.8801 14.1734C65.1829 15.3534 65.7884 16.5334 66.6966 17.3763C67.4535 18.2191 68.5131 18.8934 69.5727 19.3992C70.7837 19.9049 71.9947 20.0735 73.2056 20.0735C75.779 20.242 78.3523 19.062 80.1688 17.2077C81.9853 15.3534 83.0449 12.6562 82.8935 9.95904C82.8935 9.11618 82.7421 8.27331 82.5907 7.43044C82.4394 6.75615 82.1366 5.91328 81.8339 5.40756C81.3798 4.56469 80.7743 3.8904 80.1688 3.2161C79.4119 2.54181 78.5037 1.86751 77.4441 1.69894C76.2331 0.856074 75.0221 0.6875 73.8111 0.6875C72.4488 0.6875 71.2378 0.856073 69.8754 1.36179C68.8158 1.86751 67.7562 2.54181 66.848 3.38468C65.9398 4.22754 65.3343 5.40756 64.8801 6.58757C64.1233 9.11618 64.1233 11.6448 64.8801 14.1734Z" fill="#CCD1DC"/>
<path d="M63.5193 53.457H50.3499V69.9772C50.3499 77.563 52.7719 82.7888 56.8589 86.4974V84.1374C54.437 80.7659 53.0746 76.383 53.3774 72.0001V67.6172H58.3727V86.666C58.3727 93.5775 56.7076 102.343 45.6574 107.906C35.2127 102.68 33.0934 94.4204 32.9421 87.846C37.9374 84.1374 40.8134 78.5745 40.8134 70.1458V67.7858H48.8362V64.4143H40.8134H37.786H29.6119V84.306C29.6119 84.9803 29.6119 85.6546 29.6119 86.3289C30.6715 85.486 31.7311 84.6431 32.6393 83.6317V67.9544H37.4832V72.3373C37.4832 78.0688 36.575 85.1489 27.3413 89.7003C18.1076 85.1489 17.1993 78.0688 17.1993 72.3373V57.1656H37.4832V63.0657H40.5107V53.7942H14.1719V70.3144C14.1719 81.4402 19.1672 87.5089 27.3413 91.0489C28.2495 90.7118 29.1578 90.2061 29.9146 89.7003C31.277 99.8147 37.0291 105.715 45.3546 109.255C53.8315 105.715 59.4323 99.8147 60.7946 89.7003C61.5515 90.2061 62.4597 90.5432 63.2166 90.8804C71.3907 87.5089 76.386 81.2717 76.386 70.1458V53.6256L63.5193 53.457ZM73.6613 72.0001C73.6613 77.7316 72.7531 84.8117 63.5193 89.3632C62.7625 89.026 62.0056 88.5203 61.2487 88.0146C61.4001 86.666 61.4001 85.3174 61.4001 83.9688V64.4143H53.3774V56.9971H73.6613V72.0001Z" fill="#CCD1DC"/>
</svg>
