<svg width="16" height="16" viewBox="0 0 16 16" fill="none" xmlns="http://www.w3.org/2000/svg">
<g clip-path="url(#clip0_14920_5360)">
<path d="M15.9994 6.94106C15.9828 5.38378 15.3735 3.92303 14.2823 2.82775C13.1875 1.72728 11.729 1.12109 10.1734 1.12109H5.82597C2.61375 1.12169 0 3.73484 0 6.94622C0 10.1579 2.61375 12.7716 5.82597 12.7725H9.03878C9.12328 12.7725 9.16784 12.8082 9.19013 12.8382C9.24434 12.9107 9.22038 13.0123 9.21181 13.0412C9.17809 13.1608 9.093 13.3272 8.92688 13.5973C8.79894 13.8092 8.68016 13.9877 8.65503 14.0257C8.47572 14.2946 8.41406 14.5225 8.48088 14.6675C8.53113 14.7769 8.65731 14.8443 8.85491 14.8677C8.92172 14.8754 9.01422 14.8805 9.10219 14.8805C9.14844 14.8805 9.19297 14.8791 9.23238 14.876C9.64241 14.8408 10.1963 14.7757 10.8439 14.5813C11.7878 14.2975 13.1407 13.6959 14.2274 12.4407C15.3901 11.1018 16.0034 9.24503 16 7.07072L15.9994 6.94106ZM14.196 10.5833C13.6186 11.7328 12.7135 12.6094 11.5057 13.1893C11.0974 13.3843 10.66 13.54 10.2048 13.6519L10.0878 13.6807L10.1637 13.5145C10.1917 13.4546 10.2197 13.3949 10.242 13.3323C10.2842 13.2038 10.3259 13.0628 10.3276 12.8795C10.3276 12.727 10.2939 12.5728 10.23 12.4338C10.1272 12.2093 9.93075 12.0117 9.68916 11.8918C9.44359 11.7685 9.15353 11.7085 8.80284 11.7085H5.82591C4.55472 11.7085 3.35894 11.2131 2.45834 10.3137C1.55891 9.41372 1.06384 8.21762 1.06325 6.94616C1.06384 5.67553 1.55894 4.47975 2.45834 3.57919C3.35891 2.68006 4.55472 2.18463 5.82591 2.18463H10.1734C11.4401 2.18491 12.6318 2.68003 13.5284 3.57859C14.4222 4.47687 14.9218 5.67494 14.9355 6.95159L14.9367 7.07066C14.9355 8.42269 14.6866 9.6045 14.196 10.5833Z" fill="#374161"/>
</g>
<defs>
<clipPath id="clip0_14920_5360">
<rect width="16" height="16" fill="white"/>
</clipPath>
</defs>
</svg>
