<svg width="22" height="22" viewBox="0 0 22 22" fill="none" xmlns="http://www.w3.org/2000/svg">
<path d="M11.9609 14.4375L14.6422 18.4937L15.6047 16.225H18.0797L15.5359 12.375" stroke="#374161" stroke-miterlimit="10"/>
<path d="M10.0367 14.4375L7.35547 18.4937L6.39297 16.225H3.91797L6.46172 12.375" stroke="#374161" stroke-miterlimit="10"/>
<path d="M11.8234 3.02344L13.0609 3.91719L14.5734 4.12344C15.1922 4.19219 15.6734 4.67344 15.7422 5.29219L16.0172 6.80469L16.9109 8.04219C17.2547 8.52344 17.2547 9.21094 16.9109 9.76094L16.0172 10.9984L15.8109 12.5109C15.7422 13.1297 15.2609 13.6109 14.6422 13.6797L13.0609 13.9547L11.8234 14.8484C11.3422 15.1922 10.6547 15.1922 10.1047 14.8484L8.93594 13.9547L7.42344 13.7484C6.80469 13.6797 6.32344 13.1984 6.25469 12.5797L5.97969 10.9984L5.08594 9.76094C4.74219 9.27969 4.74219 8.59219 5.08594 8.04219L5.97969 6.87344L6.18594 5.36094C6.32344 4.74219 6.80469 4.26094 7.42344 4.12344L8.93594 3.91719L10.1734 3.02344C10.6547 2.67969 11.3422 2.67969 11.8234 3.02344Z" stroke="#374161" stroke-miterlimit="10"/>
</svg>
