<svg width="18" height="18" viewBox="0 0 18 18" fill="none" xmlns="http://www.w3.org/2000/svg">
<path d="M17.6912 3.79581C17.5016 3.70863 17.2766 3.74181 17.1191 3.88131L14.2836 6.42831L11.7236 3.802L14.2583 0.87475C14.3961 0.715563 14.4298 0.496188 14.3438 0.30325C14.2577 0.110312 14.0687 -0.0078125 13.86 -0.0078125H13.7076C12.141 -0.0078125 9.4365 0.126625 8.22937 1.35175L7.98581 1.59362C6.69769 2.90819 6.46875 5.06312 7.14769 6.70169L0.656438 13.3268C-0.218812 14.2144 -0.218812 15.6528 0.656438 16.5404L1.449 17.3436C1.88662 17.7869 2.46038 18.0091 3.03413 18.0091C3.60788 18.0091 4.18162 17.7869 4.61869 17.3436L11.2056 10.7039C11.8283 11.0408 12.6821 11.2602 13.3988 11.2602C14.5479 11.2602 15.6375 10.7967 16.4666 9.95519L16.7068 9.71162C18.018 8.38188 17.9983 5.54012 18.0039 4.29025C18.0045 4.07762 17.8824 3.88469 17.6923 3.79638L17.6912 3.79581ZM15.921 8.94719L15.7123 9.19075C15.084 9.82863 14.2622 10.1341 13.3982 10.1341C12.9707 10.1341 12.3947 10.0536 12.0054 9.89162C11.6539 9.74594 11.3271 9.535 11.0351 9.26894L3.825 16.5392C3.6135 16.7541 3.33225 16.8722 3.033 16.8722C2.73375 16.8722 2.4525 16.7541 2.24044 16.5392L1.44844 15.7366C1.01138 15.2933 1.01138 14.5722 1.44788 14.1295L8.49262 6.94244C8.25637 6.59875 8.0955 6.22356 7.99931 5.83544C7.72819 4.73856 7.88569 3.22319 8.73731 2.35413L8.97975 2.10944C9.70988 1.36862 11.6066 1.14925 12.6568 1.08456L10.5936 3.46731C10.4091 3.6805 10.4186 4.00169 10.6149 4.20363L13.8763 7.54937C14.0743 7.753 14.3938 7.76481 14.607 7.57581L16.9031 5.50806C16.8345 6.62181 16.6185 8.23956 15.9199 8.94775L15.921 8.94719Z" fill="#7C838F"/>
</svg>
