<svg width="26" height="26" viewBox="0 0 26 26" fill="none" xmlns="http://www.w3.org/2000/svg">
<path d="M18.306 13.0001C18.306 15.7529 16.0446 17.9845 13.2551 17.9845C10.4656 17.9845 8.20423 15.7529 8.20423 13.0001C8.20423 10.2473 10.4656 8.01569 13.2551 8.01569C16.0446 8.01569 18.306 10.2473 18.306 13.0001ZM18.306 13.0001V14.8693C18.306 16.5898 19.7194 17.9845 21.4628 17.9845C23.2062 17.9845 24.6196 16.5898 24.6196 14.8693V13.0001C24.6196 6.80627 19.5316 1.78516 13.2551 1.78516C6.97868 1.78516 1.89062 6.80627 1.89062 13.0001C1.89062 19.194 6.97868 24.2151 13.2551 24.2151H18.306" stroke="#8B8787" stroke-width="2" stroke-linecap="round" stroke-linejoin="round"/>
</svg>
