<svg width="20" height="21" viewBox="0 0 20 21" fill="none" xmlns="http://www.w3.org/2000/svg">
<path d="M8 7.21818C8 6.80823 8.1173 6.40749 8.3371 6.06663C8.5568 5.72577 8.8692 5.46011 9.2346 5.30323C9.6001 5.14635 10.0022 5.1053 10.3902 5.18528C10.7781 5.26525 11.1345 5.46266 11.4142 5.75254C11.6939 6.04241 11.8844 6.41174 11.9616 6.81381C12.0387 7.21588 11.9991 7.63264 11.8478 8.01138C11.6964 8.39009 11.44 8.71385 11.1111 8.94154C10.7822 9.16934 10.3956 9.2909 10 9.2909V10.3273M12.25 17.5818L10.8 19.5854C10.4 20.1382 9.6 20.1382 9.2 19.5854L7.75 17.5818H5C2.79086 17.5818 1 15.7258 1 13.4364V5.14545C1 2.85598 2.79086 1 5 1H15C17.2091 1 19 2.85598 19 5.14545V13.4364C19 15.7258 17.2091 17.5818 15 17.5818H12.25Z" stroke="#374161" stroke-linecap="round" stroke-linejoin="round"/>
</svg>
