<svg width="16" height="16" viewBox="0 0 16 16" fill="none" xmlns="http://www.w3.org/2000/svg">
<path fill-rule="evenodd" clip-rule="evenodd" d="M5.71483 5.14184H8.87638V6.76264H8.92212C9.3624 5.97276 10.439 5.14184 12.0444 5.14184C15.3828 5.14184 16.0003 7.21941 16.0003 9.92211V15.4276H12.7032V10.5472C12.7032 9.38381 12.679 7.88616 10.9888 7.88616C9.27203 7.88616 9.00893 9.15261 9.00893 10.4625V15.4276H5.7148V5.14184H5.71483ZM3.42908 2.28471C3.42908 3.23109 2.66105 3.99911 1.71467 3.99911C0.7683 3.99911 0 3.23109 0 2.28471C0 1.33834 0.7683 0.570312 1.71467 0.570312C2.66105 0.570312 3.42908 1.33834 3.42908 2.28471ZM0 5.14184H3.42908V15.4276H0V5.14184Z" fill="white"/>
</svg>
