<svg width="22" height="22" viewBox="0 0 22 22" fill="none" xmlns="http://www.w3.org/2000/svg">
<g clip-path="url(#clip0_16897_27507)">
<path d="M11.0013 3.66797C9.55091 3.66797 8.13308 4.09806 6.92712 4.90386C5.72116 5.70966 4.78123 6.85497 4.22619 8.19496C3.67115 9.53495 3.52592 11.0094 3.80888 12.432C4.09184 13.8545 4.79027 15.1612 5.81586 16.1868C6.84144 17.2123 8.14812 17.9108 9.57064 18.1937C10.9932 18.4767 12.4677 18.3315 13.8077 17.7764C15.1476 17.2214 16.293 16.2814 17.0987 15.0755C17.9045 13.8695 18.3346 12.4517 18.3346 11.0013C18.3346 9.05638 17.562 7.19112 16.1868 5.81585C14.8115 4.44059 12.9462 3.66797 11.0013 3.66797ZM11.0013 17.1124C9.79264 17.1124 8.61112 16.754 7.60615 16.0825C6.60119 15.411 5.81791 14.4566 5.35537 13.3399C4.89284 12.2233 4.77182 10.9945 5.00762 9.80908C5.24342 8.62364 5.82544 7.53475 6.6801 6.68009C7.53475 5.82544 8.62365 5.24341 9.80909 5.00761C10.9945 4.77182 12.2233 4.89284 13.3399 5.35537C14.4566 5.81791 15.411 6.60118 16.0825 7.60615C16.754 8.61112 17.1124 9.79264 17.1124 11.0013C17.1124 11.8038 16.9543 12.5985 16.6472 13.3399C16.3401 14.0814 15.89 14.755 15.3225 15.3225C14.755 15.89 14.0814 16.3401 13.3399 16.6472C12.5985 16.9543 11.8038 17.1124 11.0013 17.1124Z" fill="#6474A6"/>
<path d="M11.0015 12.2634C10.7908 12.2634 10.5887 12.1797 10.4397 12.0307C10.2907 11.8817 10.207 11.6796 10.207 11.4689V7.80226C10.207 7.59156 10.2907 7.38949 10.4397 7.2405C10.5887 7.09151 10.7908 7.00781 11.0015 7.00781C11.2122 7.00781 11.4142 7.09151 11.5632 7.2405C11.7122 7.38949 11.7959 7.59156 11.7959 7.80226V11.4689C11.7959 11.6796 11.7122 11.8817 11.5632 12.0307C11.4142 12.1797 11.2122 12.2634 11.0015 12.2634Z" fill="#6474A6"/>
<path d="M10.9714 14.9857C11.4776 14.9857 11.888 14.5753 11.888 14.069C11.888 13.5627 11.4776 13.1523 10.9714 13.1523C10.4651 13.1523 10.0547 13.5627 10.0547 14.069C10.0547 14.5753 10.4651 14.9857 10.9714 14.9857Z" fill="#6474A6"/>
</g>
<defs>
<clipPath id="clip0_16897_27507">
<rect width="22" height="22" fill="white"/>
</clipPath>
</defs>
</svg>
