<svg width="16" height="16" viewBox="0 0 16 16" fill="none" xmlns="http://www.w3.org/2000/svg">
<g clip-path="url(#clip0_15248_24805)">
<path d="M14.9998 9.27344V13.7268C14.998 14.0639 14.8633 14.3868 14.6249 14.6252C14.3865 14.8636 14.0636 14.9984 13.7265 15.0001C13.3898 14.9966 13.068 14.8614 12.8299 14.6233C12.5919 14.3853 12.4566 14.0634 12.4531 13.7268V9.27344H14.9998Z" stroke="#374161" stroke-miterlimit="10"/>
<path d="M13.7267 15H2.27333C1.93616 14.9982 1.6133 14.8635 1.37489 14.6251C1.13647 14.3867 1.00175 14.0638 1 13.7267V1H12.4533V13.7267C12.4568 14.0633 12.5921 14.3852 12.8301 14.6232C13.0682 14.8613 13.39 14.9965 13.7267 15Z" stroke="#374161" stroke-miterlimit="10"/>
<path d="M9.91354 3.54688H3.54688V6.72688H9.91354V3.54688Z" stroke="#374161" stroke-miterlimit="10"/>
<path d="M2.90625 9.27344H5.45292" stroke="#374161" stroke-miterlimit="10"/>
<path d="M2.90625 11.8203H5.45292" stroke="#374161" stroke-miterlimit="10"/>
<path d="M9.91385 9.27344H7.36719V11.8201H9.91385V9.27344Z" stroke="#374161" stroke-miterlimit="10"/>
</g>
<defs>
<clipPath id="clip0_15248_24805">
<rect width="16" height="16" fill="white"/>
</clipPath>
</defs>
</svg>
