<svg width="51" height="51" viewBox="0 0 51 51" fill="none" xmlns="http://www.w3.org/2000/svg">
<path d="M46.0625 46.0625L37.25 37.25M19.6256 49H11.391C8.10709 49 6.46265 49 5.20716 48.3602C4.10169 47.7971 3.20358 46.8973 2.64035 45.792C2 44.5353 2 42.8909 2 39.6006V11.4006C2 8.11026 2 6.46388 2.64035 5.20716C3.20358 4.10169 4.10169 3.20358 5.20716 2.64035C6.46388 2 8.11026 2 11.4006 2H39.6006C42.8909 2 44.5338 2 45.7905 2.64035C46.8959 3.20358 47.7971 4.10169 48.3602 5.20716C49 6.46265 49 8.10703 49 11.3909V19.6256M29.9062 40.1875C24.2281 40.1875 19.625 35.5844 19.625 29.9062C19.625 24.2281 24.2281 19.625 29.9062 19.625C35.5844 19.625 40.1875 24.2281 40.1875 29.9062C40.1875 35.5844 35.5844 40.1875 29.9062 40.1875Z" stroke="#CCD1DC" stroke-width="3" stroke-linecap="round" stroke-linejoin="round"/>
</svg>
