<?xml version="1.0" encoding="utf-8"?>
<!-- Generator: Adobe Illustrator 27.0.1, SVG Export Plug-In . SVG Version: 6.00 Build 0)  -->
<svg version="1.1" id="Capa_1" xmlns="http://www.w3.org/2000/svg" xmlns:xlink="http://www.w3.org/1999/xlink" x="0px" y="0px"
	 viewBox="0 0 18 18" style="enable-background:new 0 0 18 18;" xml:space="preserve">
<style type="text/css">
	.st0{fill:#7C838F;}
</style>
<g>
	<g>
		<path class="st0" d="M9,8.4c-2.3,0-4.2-1.8-4.2-4.1c0-2.2,1.9-4.1,4.2-4.1c2.3,0,4.2,1.8,4.2,4.1C13.2,6.5,11.3,8.4,9,8.4z M9,1.4
			c-1.7,0-3.1,1.3-3.1,2.9c0,1.6,1.3,2.9,3.1,2.9c1.7,0,3.1-1.3,3.1-2.9S10.7,1.4,9,1.4z"/>
	</g>
	<g>
		<path class="st0" d="M15.1,17.8c-0.3,0-0.6-0.3-0.6-0.6c0-3.1-2.5-5.5-5.5-5.5c-3.1,0-5.5,2.5-5.5,5.5c0,0.3-0.3,0.6-0.6,0.6
			s-0.6-0.3-0.6-0.6c0-3.7,3-6.7,6.7-6.7s6.7,3,6.7,6.7C15.7,17.5,15.4,17.8,15.1,17.8z"/>
	</g>
</g>
</svg>
