<svg width="17" height="17" viewBox="0 0 17 17" fill="none" xmlns="http://www.w3.org/2000/svg">
<path fill-rule="evenodd" clip-rule="evenodd" d="M4.95964 1.23828C5.25303 1.23828 5.49089 1.47613 5.49089 1.76953V2.30979C5.95982 2.30077 6.47646 2.30077 7.04467 2.30078H9.95792C10.5261 2.30077 11.0428 2.30077 11.5117 2.30979V1.76953C11.5117 1.47613 11.7496 1.23828 12.043 1.23828C12.3364 1.23828 12.5742 1.47613 12.5742 1.76953V2.35539C12.7583 2.36943 12.9327 2.38707 13.0977 2.40925C13.9281 2.5209 14.6003 2.75615 15.1305 3.28624C15.6605 3.81634 15.8957 4.4885 16.0074 5.31898C16.0431 5.58438 16.067 5.87403 16.0831 6.18958C16.1043 6.24695 16.1159 6.30896 16.1159 6.3737C16.1159 6.4228 16.1092 6.47034 16.0968 6.51548C16.1159 7.08352 16.1159 7.7286 16.1159 8.45875V9.95531C16.1159 11.2571 16.1159 12.2881 16.0074 13.0951C15.8957 13.9255 15.6605 14.5977 15.1305 15.1278C14.6003 15.6579 13.9281 15.8931 13.0977 16.0048C12.2907 16.1133 11.2597 16.1133 9.95792 16.1133H7.04468C5.74293 16.1133 4.71185 16.1133 3.90491 16.0048C3.07445 15.8931 2.40228 15.6579 1.87218 15.1278C1.34209 14.5977 1.10684 13.9255 0.995193 13.0951C0.886698 12.2881 0.886705 11.2571 0.886719 9.95531V8.45875C0.886712 7.72853 0.886705 7.08352 0.905851 6.51548C0.893384 6.47035 0.886719 6.4228 0.886719 6.3737C0.886719 6.30897 0.898293 6.24694 0.919494 6.18957C0.935559 5.87403 0.959507 5.58437 0.995193 5.31898C1.10684 4.48851 1.34209 3.81634 1.87218 3.28624C2.40228 2.75615 3.07445 2.5209 3.90491 2.40925C4.0699 2.38707 4.24426 2.36943 4.42839 2.35539V1.76953C4.42839 1.47613 4.66624 1.23828 4.95964 1.23828ZM1.95849 6.90495C1.94945 7.36728 1.94922 7.89378 1.94922 8.4987V9.91536C1.94922 11.266 1.95035 12.2256 2.04822 12.9535C2.14402 13.6661 2.32371 14.0768 2.62348 14.3765C2.92326 14.6763 3.33384 14.856 4.04649 14.9518C4.77441 15.0496 5.73397 15.0508 7.08464 15.0508H9.91797C11.2686 15.0508 12.2282 15.0496 12.9562 14.9518C13.6687 14.856 14.0794 14.6763 14.3791 14.3765C14.6789 14.0768 14.8586 13.6661 14.9544 12.9535C15.0523 12.2256 15.0534 11.266 15.0534 9.91536V8.4987C15.0534 7.89378 15.0532 7.36728 15.0441 6.90495H1.95849ZM14.9955 5.84245H2.00708C2.01842 5.7083 2.03199 5.58124 2.04822 5.46055C2.14402 4.7479 2.32371 4.33732 2.62348 4.03754C2.92326 3.73777 3.33384 3.55809 4.04649 3.46228C4.77441 3.36441 5.73397 3.36328 7.08464 3.36328H9.91797C11.2686 3.36328 12.2282 3.36441 12.9562 3.46228C13.6687 3.55809 14.0794 3.73777 14.3791 4.03754C14.6789 4.33732 14.8586 4.7479 14.9544 5.46055C14.9706 5.58124 14.9842 5.7083 14.9955 5.84245Z" fill="#6474A6"/>
</svg>
