<svg width="18" height="18" viewBox="0 0 18 18" fill="none" xmlns="http://www.w3.org/2000/svg">
<path fill-rule="evenodd" clip-rule="evenodd" d="M9.0013 2.33464C5.3194 2.33464 2.33464 5.3194 2.33464 9.0013C2.33464 12.6832 5.3194 15.668 9.0013 15.668C12.6832 15.668 15.668 12.6832 15.668 9.0013C15.668 5.3194 12.6832 2.33464 9.0013 2.33464ZM0.667969 9.0013C0.667969 4.39893 4.39893 0.667969 9.0013 0.667969C13.6036 0.667969 17.3346 4.39893 17.3346 9.0013C17.3346 13.6036 13.6036 17.3346 9.0013 17.3346C4.39893 17.3346 0.667969 13.6036 0.667969 9.0013ZM8.8583 4.63243C9.31855 4.63243 9.69163 5.00553 9.69163 5.46577V9.60505L12.6307 10.7224C13.061 10.8859 13.2771 11.3672 13.1136 11.7974C12.9501 12.2276 12.4687 12.4438 12.0386 12.2802L8.56222 10.9588C8.2388 10.8358 8.02497 10.5258 8.02497 10.1798V5.46577C8.02497 5.00553 8.39805 4.63243 8.8583 4.63243Z" fill="#575757"/>
</svg>
