<svg width="22" height="22" viewBox="0 0 22 22" fill="none" xmlns="http://www.w3.org/2000/svg">
<path d="M11.9609 14.4375L14.6422 18.4937L15.6047 16.225H18.0797L15.5359 12.375" stroke="#374161" stroke-miterlimit="10"/>
<path d="M10.0367 14.4375L7.35547 18.4937L6.39297 16.225H3.91797L6.46172 12.375" stroke="#374161" stroke-miterlimit="10"/>
<path d="M11.8234 3.02539L13.0609 3.91914L14.5734 4.12539C15.1922 4.19414 15.6734 4.67539 15.7422 5.29414L16.0172 6.80664L16.9109 8.04414C17.2547 8.52539 17.2547 9.21289 16.9109 9.76289L16.0172 11.0004L15.8109 12.5129C15.7422 13.1316 15.2609 13.6129 14.6422 13.6816L13.0609 13.9566L11.8234 14.8504C11.3422 15.1941 10.6547 15.1941 10.1047 14.8504L8.93594 13.9566L7.42344 13.7504C6.80469 13.6816 6.32344 13.2004 6.25469 12.5816L5.97969 11.0004L5.08594 9.76289C4.74219 9.28164 4.74219 8.59414 5.08594 8.04414L5.97969 6.87539L6.18594 5.36289C6.32344 4.74414 6.80469 4.26289 7.42344 4.12539L8.93594 3.91914L10.1734 3.02539C10.6547 2.68164 11.3422 2.68164 11.8234 3.02539Z" stroke="#374161" stroke-miterlimit="10"/>
</svg>
