<svg width="22" height="16" viewBox="0 0 22 16" fill="none" xmlns="http://www.w3.org/2000/svg">
<path d="M1.26217 0H20.7378C21.0707 0.00331385 21.3889 0.138403 21.6234 0.376004C21.858 0.613605 21.9901 0.934585 21.991 1.26941V14.7306C21.9929 14.9874 21.9167 15.2387 21.7726 15.4508C21.7467 15.5188 21.7064 15.5802 21.6544 15.6309C21.6195 15.6644 21.5796 15.6924 21.5363 15.7137C21.3104 15.9054 21.0244 16.0106 20.7288 16.0108H1.26217C0.930794 16.0075 0.613917 15.8737 0.37959 15.638C0.145263 15.4023 0.0121761 15.0837 0.00891113 14.7504V1.26941C0.00983663 0.934585 0.141891 0.613605 0.376467 0.376004C0.611044 0.138403 0.929254 0.00331385 1.26217 0ZM1.20846 14.1958L7.79342 7.31398L1.20846 1.71776V14.1958ZM8.78528 8.17286L1.74915 15.0259H20.1899L13.4671 8.17286L11.4977 9.83119C11.4109 9.90368 11.3016 9.94335 11.1888 9.94335C11.076 9.94335 10.9668 9.90368 10.88 9.83119L8.78528 8.17286ZM14.4428 7.30137L20.7915 14.2516V1.65654L14.4428 7.30137ZM1.82792 0.974117L11.17 8.58879L20.1004 0.974117H1.82792Z" fill="#95A295"/>
</svg>
