<svg width="22" height="22" viewBox="0 0 22 22" fill="none" xmlns="http://www.w3.org/2000/svg">
<path d="M20.68 11.2292C20.68 10.5142 20.6158 9.82669 20.4967 9.16669H11V13.0717H16.4267C16.1883 14.3275 15.4733 15.3909 14.4008 16.1059V18.645H17.6733C19.58 16.885 20.68 14.3 20.68 11.2292Z" fill="#4285F4"/>
<path d="M10.9997 21.0833C13.7222 21.0833 16.0047 20.185 17.673 18.645L14.4005 16.1058C13.5022 16.7108 12.3564 17.0775 10.9997 17.0775C8.37805 17.0775 6.15055 15.3083 5.35305 12.925H1.99805V15.5283C3.65721 18.8192 7.05805 21.0833 10.9997 21.0833Z" fill="#34A853"/>
<path d="M5.35268 12.9158C5.15102 12.3108 5.03185 11.6692 5.03185 11C5.03185 10.3308 5.15102 9.68917 5.35268 9.08417V6.48083H1.99768C1.31018 7.8375 0.916016 9.36834 0.916016 11C0.916016 12.6317 1.31018 14.1625 1.99768 15.5192L4.61018 13.4842L5.35268 12.9158Z" fill="#FBBC05"/>
<path d="M10.9997 4.93169C12.4847 4.93169 13.8047 5.44502 14.8589 6.43502L17.7464 3.54752C15.9955 1.91585 13.7222 0.916687 10.9997 0.916687C7.05805 0.916687 3.65721 3.18085 1.99805 6.48085L5.35305 9.08419C6.15055 6.70085 8.37805 4.93169 10.9997 4.93169Z" fill="#EA4335"/>
</svg>
