<?xml version="1.0" encoding="utf-8"?>
<!-- Generator: Adobe Illustrator 27.0.1, SVG Export Plug-In . SVG Version: 6.00 Build 0)  -->
<svg version="1.1" id="Capa_1" xmlns="http://www.w3.org/2000/svg" xmlns:xlink="http://www.w3.org/1999/xlink" x="0px" y="0px"
	 viewBox="0 0 16 17" style="enable-background:new 0 0 16 17;" xml:space="preserve">
<style type="text/css">
	.st0{fill-rule:evenodd;clip-rule:evenodd;}
</style>
<path class="st0" d="M6.3,1.5c1-0.9,2.5-0.9,3.5,0l4.7,4.1c0.7,0.6,1.1,1.6,1.1,2.5v6c0,1.5-1.2,2.7-2.7,2.7H3
	c-1.5,0-2.7-1.2-2.7-2.7v-6c0-1,0.4-1.9,1.1-2.5L6.3,1.5z M9.1,2.3C8.4,1.8,7.6,1.8,7,2.3L2.2,6.5c-0.5,0.4-0.8,1-0.8,1.7v6
	c0,0.9,0.7,1.6,1.6,1.6h10c0.9,0,1.6-0.7,1.6-1.6v-6c0-0.7-0.3-1.3-0.8-1.7L9.1,2.3z"/>
</svg>
