<svg width="19" height="19" viewBox="0 0 19 19" fill="none" xmlns="http://www.w3.org/2000/svg">
<path d="M9.50155 0C6.9209 0 6.59619 0.0108236 5.58342 0.0572103C4.79547 0.0732251 4.01594 0.222752 3.278 0.49943C2.64374 0.736561 2.06941 1.1103 1.5957 1.59416C1.11228 2.06883 0.73771 2.64282 0.497884 3.27645C0.221098 4.01485 0.0720765 4.79499 0.0572103 5.58342C0.0123698 6.59619 0 6.91935 0 9.5C0 12.0806 0.0108236 12.4023 0.0572103 13.4166C0.0732251 14.2045 0.222752 14.9841 0.49943 15.722C0.73773 16.3557 1.11131 16.9298 1.59416 17.4043C2.06842 17.8882 2.64252 18.2629 3.27645 18.5021C4.01505 18.7782 4.79506 18.9272 5.58342 18.9428C6.59619 18.9892 6.91935 19 9.5 19C12.0806 19 12.4023 18.9892 13.4166 18.9428C14.2049 18.9272 14.985 18.7782 15.7236 18.5021C16.3554 18.257 16.9292 17.883 17.4084 17.4038C17.8876 16.9246 18.2617 16.3507 18.5068 15.7189C18.782 14.9806 18.9314 14.2013 18.949 13.4135C18.9938 12.4007 19.0062 12.0776 19.0062 9.49691C19.0062 6.91626 18.9938 6.5931 18.949 5.58032C18.9314 4.79204 18.782 4.01226 18.5068 3.27336C18.2681 2.6395 17.894 2.06538 17.4105 1.59106C16.9371 1.10685 16.3627 0.733059 15.7282 0.496338C14.9876 0.22003 14.2054 0.0715416 13.415 0.0572103C12.4007 0.0108236 12.0791 0 9.49845 0H9.50155ZM8.64803 1.71167H9.50155C12.0374 1.71167 12.3373 1.72095 13.3393 1.76733C13.9417 1.77419 14.5385 1.88455 15.1035 2.09359C15.516 2.24598 15.8891 2.48905 16.1952 2.80485C16.5103 3.11144 16.7533 3.48433 16.9064 3.89648C17.1155 4.46153 17.2258 5.0583 17.2327 5.66073C17.2791 6.66113 17.2883 6.96265 17.2883 9.49845C17.2883 12.0343 17.2791 12.3342 17.2327 13.3362C17.226 13.9381 17.1156 14.5344 16.9064 15.0989C16.7482 15.5083 16.506 15.88 16.1955 16.1903C15.885 16.5005 15.513 16.7423 15.1035 16.9002C14.5389 17.1109 13.9419 17.2218 13.3393 17.228C12.3389 17.2744 12.0374 17.2837 9.50155 17.2837C6.96574 17.2837 6.66423 17.2744 5.66227 17.228C5.05975 17.2207 4.46298 17.1098 3.89803 16.9002C3.48509 16.7485 3.11151 16.506 2.80485 16.1905C2.4896 15.8843 2.24708 15.5113 2.09513 15.0989C1.88557 14.5339 1.77469 13.9372 1.76733 13.3346C1.72249 12.3327 1.71322 12.0327 1.71322 9.49536C1.71322 6.95801 1.72249 6.65959 1.76733 5.65763C1.77376 5.05502 1.88467 4.45809 2.09513 3.89339C2.24708 3.48101 2.4896 3.10797 2.80485 2.80176C3.11175 2.48625 3.48523 2.24325 3.89803 2.0905C4.46316 1.88158 5.05982 1.77072 5.66227 1.7627C6.53898 1.72404 6.8776 1.71167 8.64803 1.71012V1.71167ZM14.5716 3.28882C14.3459 3.28882 14.1252 3.35578 13.9375 3.48124C13.7498 3.60669 13.6035 3.785 13.5172 3.9936C13.4309 4.20221 13.4084 4.43173 13.4525 4.65312C13.4967 4.87452 13.6055 5.07784 13.7653 5.23737C13.925 5.39689 14.1285 5.50545 14.3499 5.54931C14.5714 5.59316 14.8009 5.57034 15.0094 5.48374C15.2179 5.39713 15.396 5.25063 15.5212 5.06277C15.6464 4.87492 15.713 4.65414 15.7127 4.42839C15.7127 4.27861 15.6832 4.13029 15.6258 3.99194C15.5685 3.85358 15.4844 3.72788 15.3784 3.62204C15.2724 3.5162 15.1466 3.4323 15.0082 3.37512C14.8697 3.31794 14.7214 3.28862 14.5716 3.28882ZM9.50155 4.62166C8.5367 4.62166 7.59353 4.90777 6.79129 5.44381C5.98905 5.97985 5.36378 6.74174 4.99455 7.63314C4.62532 8.52454 4.52871 9.50541 4.71695 10.4517C4.90518 11.398 5.36979 12.2673 6.05204 12.9495C6.73429 13.6318 7.60353 14.0964 8.54983 14.2846C9.49613 14.4728 10.477 14.3762 11.3684 14.007C12.2598 13.6378 13.0217 13.0125 13.5577 12.2103C14.0938 11.408 14.3799 10.4648 14.3799 9.5C14.3795 8.20631 13.8654 6.96572 12.9506 6.05095C12.0358 5.13617 10.7952 4.62207 9.50155 4.62166ZM9.50155 6.33333C10.1281 6.33242 10.7407 6.51736 11.2621 6.86476C11.7835 7.21216 12.1901 7.7064 12.4305 8.28495C12.6709 8.8635 12.7342 9.50036 12.6126 10.1149C12.4909 10.7295 12.1897 11.2942 11.747 11.7375C11.3043 12.1809 10.7401 12.4829 10.1257 12.6055C9.51128 12.728 8.87433 12.6656 8.29543 12.4261C7.71653 12.1865 7.22169 11.7806 6.87352 11.2598C6.52536 10.7389 6.33952 10.1265 6.33952 9.5C6.34115 8.66202 6.67487 7.85886 7.26756 7.26646C7.86024 6.67407 8.66357 6.34074 9.50155 6.33952V6.33333Z" fill="white"/>
</svg>
