<svg width="18" height="18" viewBox="0 0 18 18" fill="none" xmlns="http://www.w3.org/2000/svg">
<path d="M1 9C1 2.412 2.412 1 9 1C15.588 1 17 2.412 17 9C17 15.588 15.588 17 9 17C2.412 17 1 15.588 1 9Z" stroke="#575757" stroke-width="1.2"/>
<path d="M10.037 9C10.037 9.19778 9.97622 9.39112 9.86227 9.55557C9.74831 9.72002 9.58635 9.84819 9.39686 9.92388C9.20736 9.99957 8.99885 10.0194 8.79768 9.98079C8.59652 9.9422 8.41174 9.84696 8.2667 9.70711C8.12167 9.56725 8.0229 9.38907 7.98289 9.19509C7.94288 9.00111 7.96341 8.80004 8.0419 8.61732C8.12039 8.43459 8.25331 8.27841 8.42385 8.16853C8.59439 8.05865 8.79489 8 9 8C9.27496 8.00026 9.53857 8.1057 9.733 8.29318C9.92742 8.48066 10.0368 8.73486 10.037 9ZM6.03704 8C5.83193 8 5.63143 8.05865 5.46089 8.16853C5.29035 8.27841 5.15743 8.43459 5.07894 8.61732C5.00045 8.80004 4.97991 9.00111 5.01993 9.19509C5.05994 9.38907 5.15871 9.56725 5.30374 9.70711C5.44877 9.84696 5.63356 9.9422 5.83472 9.98079C6.03589 10.0194 6.2444 9.99957 6.43389 9.92388C6.62339 9.84819 6.78535 9.72002 6.8993 9.55557C7.01325 9.39112 7.07407 9.19778 7.07407 9C7.0738 8.73486 6.96446 8.48066 6.77003 8.29318C6.57561 8.1057 6.31199 8.00026 6.03704 8ZM11.963 8C11.7579 8 11.5574 8.05865 11.3868 8.16853C11.2163 8.27841 11.0834 8.43459 11.0049 8.61732C10.9264 8.80004 10.9058 9.00111 10.9459 9.19509C10.9859 9.38907 11.0846 9.56725 11.2297 9.70711C11.3747 9.84696 11.5595 9.9422 11.7606 9.98079C11.9618 10.0194 12.1703 9.99957 12.3598 9.92388C12.5493 9.84819 12.7113 9.72002 12.8252 9.55557C12.9392 9.39112 13 9.19778 13 9C12.9997 8.73486 12.8904 8.48066 12.696 8.29318C12.5015 8.1057 12.2379 8.00026 11.963 8Z" fill="#575757"/>
</svg>
