<svg width="19" height="19" viewBox="0 0 19 19" fill="none" xmlns="http://www.w3.org/2000/svg">
<g clip-path="url(#clip0_17852_14731)">
<path d="M9.4996 0C4.25359 0 0 4.25359 0 9.4996C0 14.7456 4.25359 19 9.4996 19C14.7456 19 19 14.7456 19 9.4996C19 4.25359 14.7456 0 9.4996 0ZM11.4772 14.7231C10.9882 14.9161 10.599 15.0625 10.307 15.1638C10.0159 15.2651 9.67733 15.3158 9.29211 15.3158C8.70019 15.3158 8.23936 15.171 7.91124 14.8823C7.58311 14.5936 7.41985 14.2277 7.41985 13.7829C7.41985 13.61 7.43191 13.4331 7.45604 13.253C7.48097 13.0728 7.52038 12.8701 7.57426 12.6425L8.18629 10.4808C8.24017 10.2733 8.28681 10.0762 8.32381 9.89287C8.3608 9.70789 8.3785 9.5382 8.3785 9.38379C8.3785 9.10874 8.3214 8.91572 8.208 8.80715C8.09299 8.69858 7.87666 8.6455 7.55416 8.6455C7.39653 8.6455 7.23407 8.66883 7.0676 8.71788C6.90273 8.76855 6.75958 8.81439 6.64216 8.85943L6.80381 8.19352C7.20432 8.03026 7.58794 7.89033 7.95386 7.77452C8.31979 7.6571 8.66561 7.5992 8.99132 7.5992C9.57922 7.5992 10.0328 7.74235 10.3521 8.02544C10.6698 8.30933 10.8298 8.67848 10.8298 9.13206C10.8298 9.22616 10.8185 9.39183 10.7968 9.62827C10.7751 9.86552 10.7341 10.0819 10.6746 10.2805L10.0658 12.4359C10.0159 12.6088 9.97168 12.8066 9.93147 13.0278C9.89206 13.2489 9.87276 13.4178 9.87276 13.5312C9.87276 13.8175 9.9363 14.013 10.065 14.1167C10.192 14.2204 10.4148 14.2727 10.7301 14.2727C10.8789 14.2727 11.0453 14.2462 11.2335 14.1947C11.4201 14.1432 11.5552 14.0974 11.6405 14.058L11.4772 14.7231ZM11.3694 5.97465C11.0855 6.23843 10.7437 6.37033 10.344 6.37033C9.94514 6.37033 9.60093 6.23843 9.31462 5.97465C9.02993 5.71086 8.88597 5.38997 8.88597 5.0152C8.88597 4.64123 9.03073 4.31953 9.31462 4.05333C9.60093 3.78633 9.94514 3.65363 10.344 3.65363C10.7437 3.65363 11.0863 3.78633 11.3694 4.05333C11.6533 4.31953 11.7957 4.64123 11.7957 5.0152C11.7957 5.39077 11.6533 5.71086 11.3694 5.97465Z" fill="#E6E6ED"/>
</g>
<defs>
<clipPath id="clip0_17852_14731">
<rect width="19" height="19" fill="white"/>
</clipPath>
</defs>
</svg>
