<svg width="18" height="18" viewBox="0 0 18 18" fill="none" xmlns="http://www.w3.org/2000/svg">
<path d="M6.75 16.5H11.25C15 16.5 16.5 15 16.5 11.25V6.75C16.5 3 15 1.5 11.25 1.5H6.75C3 1.5 1.5 3 1.5 6.75V11.25C1.5 15 3 16.5 6.75 16.5Z" stroke="#374161" stroke-linecap="round" stroke-linejoin="round"/>
<path d="M7.54834 9.39062V13H6.62646V7H7.51709V7.9375H7.59521C7.73584 7.63281 7.94938 7.38802 8.23584 7.20313C8.5223 7.01563 8.89209 6.92188 9.34522 6.92188C9.75146 6.92188 10.1069 7.00521 10.4116 7.17187C10.7163 7.33594 10.9533 7.58594 11.1226 7.92187C11.2918 8.25521 11.3765 8.67708 11.3765 9.1875V13H10.4546V9.25C10.4546 8.77865 10.3322 8.41146 10.0874 8.14844C9.84261 7.88281 9.50667 7.75 9.07959 7.75C8.78532 7.75 8.5223 7.8138 8.29053 7.94141C8.06136 8.06901 7.88037 8.25521 7.74756 8.5C7.61475 8.74479 7.54834 9.04167 7.54834 9.39062ZM7.79834 6.28125L7.07959 6.25C7.07959 5.85156 7.19287 5.52604 7.41943 5.27344C7.6486 5.01823 7.93115 4.89062 8.26709 4.89062C8.41553 4.89062 8.54704 4.91667 8.66162 4.96875C8.7762 5.01823 8.88558 5.07552 8.98975 5.14062C9.09391 5.20573 9.20068 5.26432 9.31006 5.31641C9.42204 5.36589 9.54834 5.39062 9.68897 5.39062C9.8374 5.39062 9.9624 5.33333 10.064 5.21875C10.1681 5.10156 10.2202 4.96094 10.2202 4.79687L10.9233 4.85938C10.9233 5.26562 10.8088 5.58854 10.5796 5.82812C10.353 6.06771 10.0718 6.1875 9.73584 6.1875C9.55615 6.1875 9.40771 6.16276 9.29053 6.11328C9.17334 6.0612 9.06917 6.0026 8.97803 5.9375C8.88688 5.8724 8.79053 5.8151 8.68897 5.76562C8.5874 5.71354 8.4624 5.6875 8.31396 5.6875C8.16553 5.6875 8.04183 5.74609 7.94287 5.86328C7.84652 5.97786 7.79834 6.11719 7.79834 6.28125Z" fill="#374161"/>
</svg>
