<?xml version="1.0" encoding="utf-8"?>
<!-- Generator: Adobe Illustrator 27.0.1, SVG Export Plug-In . SVG Version: 6.00 Build 0)  -->
<svg version="1.1" id="Capa_1" xmlns="http://www.w3.org/2000/svg" xmlns:xlink="http://www.w3.org/1999/xlink" x="0px" y="0px"
	 viewBox="0 0 20 19" style="enable-background:new 0 0 20 19;" xml:space="preserve">
<style type="text/css">
	.st0{fill:none;stroke:#000000;stroke-linecap:round;stroke-linejoin:round;}
</style>
<path class="st0" d="M12.7,1H7.3C2.8,1,1,2.7,1,7.1v5.2c0,3.3,1,5.1,3.5,5.7c0.2-2.3,2.6-4,5.5-4s5.3,1.8,5.5,4
	c2.4-0.7,3.5-2.5,3.5-5.7V7.1C19,2.7,17.2,1,12.7,1z M10,11.5c-1.8,0-3.2-1.4-3.2-3.1c0-1.7,1.4-3.1,3.2-3.1s3.2,1.4,3.2,3.1
	C13.2,10.1,11.8,11.5,10,11.5z"/>
</svg>
