<svg width="300" height="94" viewBox="0 0 300 94" fill="none" xmlns="http://www.w3.org/2000/svg">
<path d="M0 92.2046V4.324H36.2972C56.0292 4.324 67.7223 14.799 67.7223 32.4604V32.5822C67.7223 44.1535 61.5713 53.7759 51.827 57.6127L70.341 92.2046H49.5128L33.1303 60.3532H18.3922V92.2046H0ZM18.3922 46.4068H34.2875C43.4227 46.4068 48.9038 41.2302 48.9038 32.5822V32.4604C48.9038 24.056 43.1181 18.6967 34.0438 18.6967H18.3922V46.4068Z" fill="#043147"/>
<path d="M107.491 93.5445C87.5152 93.5445 75.3959 80.5725 75.3959 59.6833V59.6224C75.3959 38.8551 87.637 25.5786 106.76 25.5786C125.883 25.5786 137.881 38.5506 137.881 58.2826V63.7637H92.9354C93.1181 74.1778 98.782 80.268 107.856 80.268C115.164 80.268 119.61 76.2485 120.889 72.5944L121.011 72.229H137.333L137.15 72.8989C135.14 82.5213 126.127 93.5445 107.491 93.5445ZM107.065 38.8551C99.7564 38.8551 94.2753 43.7272 93.1181 52.5579H120.828C119.732 43.5445 114.434 38.8551 107.065 38.8551Z" fill="#043147"/>
<path d="M185.749 93.5445C176.37 93.5445 169.184 88.7942 165.652 81.0597H165.286V92.2046H147.503V4.324H165.286V38.246H165.652C169.245 30.3289 176.492 25.5786 185.81 25.5786C202.192 25.5786 212.363 38.246 212.363 59.5006V59.5615C212.363 80.7552 202.192 93.5445 185.749 93.5445ZM179.842 78.8063C188.672 78.8063 194.275 71.4373 194.275 59.5615V59.5006C194.275 47.5639 188.672 40.3167 179.842 40.3167C171.255 40.3167 165.286 47.7467 165.286 59.5006V59.5615C165.286 71.3764 171.194 78.8063 179.842 78.8063Z" fill="#043147"/>
<path d="M230.755 18.514C225.396 18.514 221.255 14.3118 221.255 9.257C221.255 4.20219 225.396 0 230.755 0C236.114 0 240.256 4.20219 240.256 9.257C240.256 14.3118 236.114 18.514 230.755 18.514ZM221.864 92.2046V26.9184H239.647V92.2046H221.864Z" fill="#043147"/>
<path d="M252.01 92.2046V4.324H269.793V92.2046H252.01Z" fill="#043147"/>
<path d="M282.217 92.2046V4.324H300V92.2046H282.217Z" fill="#043147"/>
</svg>
