<svg width="20" height="20" viewBox="0 0 20 20" fill="none" xmlns="http://www.w3.org/2000/svg">
<g clip-path="url(#clip0_1021_9782)">
<path fill-rule="evenodd" clip-rule="evenodd" d="M19.5238 2.01009V3.72559C19.5238 3.93555 19.3305 4.10807 19.0941 4.10807H12.435C11.9814 5.07161 11.015 5.7373 9.89528 5.7373C8.77717 5.7373 7.8108 5.07161 7.35717 4.10807H0.429674C0.194871 4.10807 0 3.93555 0 3.72559V2.01009C0 1.80013 0.193273 1.6276 0.429674 1.6276H7.35717C7.8108 0.664062 8.77717 0 9.89528 0C11.0134 0 11.9798 0.66569 12.4334 1.6276H19.0925C19.3305 1.6276 19.5238 1.80013 19.5238 2.01009ZM7.91782 18.3724C7.46419 19.3359 6.49782 20 5.37811 20C4.26 20 3.29363 19.3359 2.84 18.3724H0.429674C0.193273 18.3724 0 18.1999 0 17.9899V16.2744C0 16.0645 0.193273 15.8919 0.429674 15.8919H2.84C3.29363 14.9284 4.26 14.2627 5.37811 14.2627C6.49622 14.2627 7.46259 14.9284 7.91622 15.8919H19.0925C19.3289 15.8919 19.5222 16.0645 19.5222 16.2744V17.9899C19.5222 18.1999 19.3273 18.3724 19.0925 18.3724H7.91782ZM16.6311 11.3493C16.1775 12.3128 15.2111 12.9785 14.093 12.9785C12.9749 12.9785 12.0085 12.3128 11.5533 11.3493H0.429674C0.194871 11.3493 0 11.1768 0 10.9668V9.25293C0 9.04297 0.193273 8.87044 0.429674 8.87044H11.5533C12.0069 7.9069 12.9733 7.24284 14.0914 7.24284C15.2095 7.24284 16.1759 7.90853 16.6295 8.87044H19.0925C19.3289 8.87044 19.5222 9.04297 19.5222 9.25293V10.9668C19.5222 11.1768 19.3289 11.3493 19.0925 11.3493H16.6311Z" fill="black"/>
</g>
<defs>
<clipPath id="clip0_1021_9782">
<rect width="19.5238" height="20" fill="white"/>
</clipPath>
</defs>
</svg>
