<svg width="23" height="22" viewBox="0 0 23 22" fill="none" xmlns="http://www.w3.org/2000/svg">
<path d="M22 16C22 19.31 19.31 22 16 22V20.5C18.48 20.5 20.5 18.48 20.5 16H22ZM0 6C0 2.69 2.69 0 6 0V1.5C3.52 1.5 1.5 3.52 1.5 6H0ZM7.9 2.43L2.42 7.91C-0.8 11.13 -0.8 16.35 2.42 19.58C5.64 22.81 10.86 22.8 14.09 19.58L22.04 11.63L20.27 9.86L14.97 15.16L14.26 14.45L21.68 7.03L19.91 5.26L13.19 11.98L12.48 11.27L20.26 3.49L18.5 1.73L10.72 9.51L10.02 8.8L16.38 2.44L14.61 0.67L6.1 9.18C6.69664 9.94963 6.99227 10.9104 6.93153 11.8823C6.87078 12.8542 6.45783 13.7706 5.77 14.46L5.06 13.75C5.6218 13.1875 5.93736 12.425 5.93736 11.63C5.93736 10.835 5.6218 10.0725 5.06 9.51L4.71 9.16L9.66 4.21L7.9 2.43Z" fill="#392C35"/>
</svg>
