<svg width="21" height="15" viewBox="0 0 21 15" fill="none" xmlns="http://www.w3.org/2000/svg">
<path fill-rule="evenodd" clip-rule="evenodd" d="M8.38786 10.2139V4.32145C10.4797 5.30575 12.0998 6.25661 14.0159 7.28175C12.4355 8.1582 10.4797 9.1416 8.38786 10.2139ZM20.0456 1.39089C19.6847 0.915488 19.0697 0.545431 18.415 0.422917C16.4905 0.0574643 4.48453 0.0564248 2.56111 0.422917C2.03606 0.521344 1.56853 0.759256 1.1669 1.1289C-0.525381 2.69959 0.00489949 11.1227 0.412805 12.4871C0.584333 13.0777 0.806075 13.5037 1.08533 13.7832C1.44512 14.1529 1.93774 14.4074 2.50358 14.5215C4.08813 14.8493 12.2514 15.0325 18.3815 14.5707C18.9463 14.4723 19.4462 14.2096 19.8405 13.8243C21.4052 12.2598 21.2986 3.36368 20.0456 1.39089Z" fill="white"/>
</svg>
