<svg width="129" height="119" viewBox="0 0 129 119" fill="none" xmlns="http://www.w3.org/2000/svg">
<path d="M30.1251 34.159L30.6161 34.4548C32.0525 35.3209 33.922 36.7726 32.3361 39.4045C30.9455 41.7101 29.198 41.3227 27.2797 40.1669L20.9454 36.3486C19.0058 35.1806 18.2464 33.5338 19.4267 31.5789C20.8357 29.2428 22.6655 29.7399 24.4069 30.789L24.968 31.1275L23.8091 33.0519L23.0193 32.5761C22.1836 32.0729 21.592 31.9815 21.1894 32.6463C20.793 33.302 21.1223 33.7899 21.9824 34.3084L28.6246 38.3127C29.445 38.8067 30.18 39.0294 30.6192 38.3005C31.037 37.6082 30.5948 37.0897 29.6585 36.5255L28.9571 36.1016L30.1281 34.159H30.1251Z" fill="#CCD1DC"/>
<path d="M32.8607 27.4372L30.7595 29.8434L34.2392 32.884L36.6637 30.1088L38.0452 31.6916L34.3337 35.9398L23.2877 26.2875L26.9809 22.0605L28.5606 23.4421L26.3435 25.9825L29.195 28.4741L31.2962 26.0679L32.8638 27.4372H32.8607Z" fill="#CCD1DC"/>
<path d="M36.2246 24.673L40.302 29.8087L38.5454 31.2024L29.4268 19.7172L31.8604 17.7867C33.5927 16.4113 35.1724 16.2985 36.8132 18.3662L37.1608 18.8023C38.5607 20.5681 38.2008 21.5867 37.905 22.1204C38.8199 21.9069 39.5823 22.0899 40.8205 23.6483C41.589 24.615 43.0529 26.4937 43.7269 27.0944L42.0312 28.4424C41.3298 27.8691 39.8629 25.9569 39.2011 25.1213C38.088 23.7215 37.6549 23.5415 36.6363 24.3497L36.2276 24.673H36.2246ZM35.0626 23.2091L35.4652 22.8889C36.3954 22.1509 36.4564 21.5257 35.4652 20.2783L35.1511 19.8849C34.4466 18.9974 33.8336 18.601 32.8394 19.3909L32.3423 19.7843L35.0626 23.2091Z" fill="#CCD1DC"/>
<path d="M40.11 14.7915L38.0392 15.8711L37.0663 14.0108L43.2054 10.8086L44.1752 12.6689L42.0923 13.7546L47.9081 24.8983L45.9197 25.9352L40.1039 14.7915H40.11Z" fill="#CCD1DC"/>
<path d="M47.6671 9.19336L52.6229 22.9994L50.5125 23.7558L45.5567 9.94969L47.6671 9.19336Z" fill="#CCD1DC"/>
<path d="M51.0645 8.11058L56.615 6.98828L57.0328 9.04684L53.6812 9.72693L54.4466 13.5086L57.6397 12.862L58.0575 14.9206L54.8645 15.5671L56.1758 22.0447L53.977 22.49L51.0676 8.11363L51.0645 8.11058Z" fill="#CCD1DC"/>
<path d="M61.5311 6.54688L62.632 21.1733L60.3966 21.3411L59.2957 6.71461L61.5311 6.54688Z" fill="#CCD1DC"/>
<path d="M70.6742 17.1045L70.6345 17.6748C70.5186 19.3491 70.0795 21.673 67.0145 21.4625C64.3277 21.2765 63.8764 19.5443 64.0319 17.3119L64.5412 9.93461C64.6967 7.67782 65.816 6.25055 68.0941 6.40609C70.8145 6.59517 71.2079 8.4494 71.0676 10.4775L71.0218 11.1331L68.7803 10.9776L68.8443 10.0566C68.9114 9.08374 68.7254 8.51649 67.9477 8.46159C67.1853 8.40975 66.9017 8.92515 66.8315 9.92546L66.2948 17.6626C66.2277 18.6172 66.3649 19.3735 67.2158 19.4314C68.024 19.4863 68.2832 18.8581 68.3594 17.7693L68.4143 16.952L70.6742 17.1075V17.1045Z" fill="#CCD1DC"/>
<path d="M74.1142 18.387L72.5832 22.0345L70.3844 21.4307L76.5326 7.9082L79.5884 8.74688L78.0422 23.535L75.7824 22.9128L76.2704 18.9787L74.1142 18.387ZM76.5662 16.9049C76.9077 14.4133 77.228 12.0497 77.5055 10.409L77.4262 10.3876C77.045 11.5343 75.7916 14.4498 74.9376 16.4596L76.5662 16.9079V16.9049Z" fill="#CCD1DC"/>
<path d="M86.1088 22.7168L85.8556 23.2292C85.1085 24.7327 83.8123 26.712 81.0615 25.3427C78.6492 24.1441 78.8962 22.3692 79.8934 20.3655L83.1871 13.7415C84.1935 11.7135 85.7733 10.8229 87.8197 11.8416C90.2625 13.0553 89.9148 14.9218 89.0091 16.7424L88.7163 17.331L86.7035 16.3307L87.1152 15.5043C87.5482 14.632 87.594 14.0343 86.8956 13.6866C86.2094 13.3451 85.752 13.7141 85.3036 14.6137L81.8483 21.558C81.4214 22.4149 81.2597 23.1652 82.0222 23.5433C82.748 23.9032 83.2268 23.4213 83.7147 22.4424L84.0807 21.7074L86.1088 22.7168Z" fill="#CCD1DC"/>
<path d="M94.9193 16.3822L86.6028 28.4621L84.7546 27.1904L93.0712 15.1074L94.9193 16.3792V16.3822Z" fill="#CCD1DC"/>
<path d="M100.119 26.002L95.4317 30.9974C93.5074 33.0468 91.7355 33.2085 89.9392 31.522C88.2161 29.9056 88.3716 28.1825 90.2472 26.188L94.9712 21.1529C96.8925 19.1035 98.7925 19.131 100.372 20.6131C101.979 22.1227 102.05 23.9465 100.116 26.005L100.119 26.002ZM96.7797 22.5649L91.7324 27.9447C90.8968 28.8321 90.8236 29.5488 91.4152 30.1039C92.0496 30.6985 92.6992 30.5766 93.5836 29.6372L98.6217 24.2697C99.4177 23.4219 99.6007 22.7083 98.9389 22.0861C98.3503 21.5341 97.6336 21.6622 96.7858 22.568L96.7797 22.5649ZM105.136 20.8175L101.589 20.546L100.061 19.1096L103.126 18.9297L105.136 20.8175Z" fill="#CCD1DC"/>
<path d="M93.3427 34.551L105.374 26.1582L106.859 28.2869C105.493 29.946 100.546 35.5117 99.9972 36.082L100.012 36.1033C101.434 34.9871 103.123 33.8008 105.099 32.4223L108.222 30.2418L109.406 31.9405L97.3744 40.3333L95.9441 38.2839C97.1183 36.9054 102.611 30.7145 103.032 30.2418L103.019 30.2235C101.623 31.3275 99.988 32.4589 97.8228 33.9655L94.5321 36.2619L93.3366 34.548L93.3427 34.551Z" fill="#CCD1DC"/>
<path d="M76.005 59.3759C76.8254 59.3759 77.2768 58.8605 77.2768 57.5888V56.2744C77.2768 55.2771 77.0023 54.5391 75.9806 54.5391C74.959 54.5391 74.6815 55.3076 74.6815 56.2774V57.6406C74.6815 58.7294 75.1694 59.3759 76.005 59.3759Z" fill="#CCD1DC"/>
<path d="M126.356 43.1537H121.357C114.319 18.3443 91.461 0.119141 64.4283 0.119141C37.3956 0.119141 14.538 18.3443 7.49926 43.1537H2.64715C1.18634 43.1537 0 44.34 0 45.8009V75.5783C0 77.0391 1.18634 78.2255 2.64715 78.2255H8.37147C16.2885 101.586 38.4234 118.448 64.4253 118.448C90.4272 118.448 112.565 101.586 120.479 78.2255H126.353C127.814 78.2255 129 77.0391 129 75.5783V45.8009C129 44.34 127.814 43.1537 126.353 43.1537H126.356ZM64.4283 117.228C39.1096 117.228 17.5328 100.903 9.6676 78.2255H37.3133C43.3029 86.7738 53.2237 92.3731 64.4283 92.3731C75.633 92.3731 85.5537 86.7738 91.5434 78.2255H119.189C111.324 100.903 89.7471 117.228 64.4283 117.228ZM16.5478 56.5633V51.9277H19.0882V69.7838H16.0202C15.456 67.6521 13.0802 57.8594 12.9034 57.1092H12.8759C13.007 59.2715 12.9948 61.6899 12.9948 64.9012V69.7838H10.43V51.9277H13.62C14.3306 54.4468 16.4624 63.2605 16.6515 64.2059H16.682C16.5539 62.0101 16.5478 59.4971 16.5478 56.5633ZM25.1632 54.1754C24.2239 54.1754 23.9189 54.825 23.9189 56.0479V65.4898C23.9189 66.6548 24.1507 67.5606 25.1968 67.5606C26.2428 67.5606 26.4532 66.7738 26.4532 65.4441V64.4468H29.2376V65.1422C29.2376 67.1855 28.8991 70.0461 25.1205 70.0461C21.8146 70.0461 21.1132 67.9784 21.1132 65.255V56.2522C21.1132 53.4983 22.3636 51.6685 25.1663 51.6685C28.5149 51.6685 29.1553 53.8887 29.1553 56.362V57.1611H26.3953V56.0388C26.3953 54.8524 26.1178 54.1754 25.1602 54.1754H25.1632ZM36.5692 58.9756V51.9277H39.3231V69.7838H36.5692V61.51H33.6048V69.7838H30.8509V51.9277H33.6048V58.9756H36.5692ZM94.5046 67.4142L94.1326 69.7808H86.3832V69.4514C86.4076 66.1577 87.7038 64.026 89.4696 61.5222C90.906 59.5032 91.4092 58.8689 91.4092 56.9415C91.4092 55.1909 91.214 54.4895 90.2106 54.4895C89.3262 54.4895 88.9786 55.1513 88.9786 56.5267V57.4325H86.4381V56.4505C86.4381 54.4468 87.0877 52.1931 90.3326 52.1931C93.3122 52.1931 94.1661 54.0442 94.1661 56.7737C94.1661 59.5032 93.2726 60.7109 91.8209 62.6658C90.5919 64.3218 89.5855 66.0205 89.4513 67.4112H94.4985L94.5046 67.4142ZM48.3014 54.4895C47.417 54.4895 47.0693 55.1513 47.0693 56.5267V57.4325H44.5289V56.4505C44.5289 54.4468 45.1785 52.1931 48.4234 52.1931C51.403 52.1931 52.2569 54.0442 52.2569 56.7737C52.2569 59.5032 51.3633 60.7109 49.9117 62.6658C48.6826 64.3218 47.6762 66.0205 47.542 67.4112H52.5893L52.2173 69.7777H44.4679V69.4484C44.4923 66.1547 45.7885 64.0229 47.5542 61.5191C48.9907 59.5002 49.4939 58.8658 49.4939 56.9384C49.4939 55.1879 49.2987 54.4865 48.2953 54.4865L48.3014 54.4895ZM90.0399 78.2255C84.2271 86.0632 74.9102 91.1532 64.4283 91.1532C53.9465 91.1532 44.6265 86.0632 38.8168 78.2255H90.0429H90.0399ZM53.5683 54.825V52.4065H61.3817V54.4926C59.3628 58.3687 57.7434 63.6448 57.0206 69.7808H54.2179C54.8461 64.029 56.7461 58.2956 58.5973 54.825H53.5713H53.5683ZM66.3954 54.4895C65.511 54.4895 65.1633 55.1513 65.1633 56.5267V57.4325H62.626V56.4505C62.626 54.4468 63.2755 52.1931 66.5204 52.1931C69.5 52.1931 70.3539 54.0442 70.3539 56.7737C70.3539 59.5032 69.4604 60.7109 68.0087 62.6658C66.7797 64.3218 65.7733 66.0205 65.6391 67.4112H70.6864L70.3143 69.7777H62.565V69.4484C62.5894 66.1547 63.8855 64.0229 65.6513 61.5191C67.0877 59.5002 67.5909 58.8658 67.5909 56.9384C67.5909 55.1879 67.3957 54.4865 66.3924 54.4865L66.3954 54.4895ZM72.0923 57.1489V56.4627C72.0923 53.541 73.6476 52.2175 76.0844 52.2175C78.21 52.2175 79.8935 53.294 79.8935 56.5267V57.1306C79.8935 59.2593 79.1951 60.0125 78.3899 60.5066C79.4329 61.0525 80.1283 61.9583 80.1283 63.9253V65.4227C80.1283 68.8567 78.5333 69.9973 75.9288 69.9973C73.7818 69.9973 71.8483 69.1617 71.8483 65.6149V63.9101C71.8483 61.7692 72.7602 61.0738 73.6049 60.531C72.6504 59.9089 72.0923 59.0427 72.0923 57.1519V57.1489ZM84.6144 65.8223V69.7808H82.0953V65.8223H84.6144ZM82.0953 60.5859V56.6274H84.6144V60.5859H82.0953ZM36.9534 43.1537C42.4978 33.7423 52.7388 27.4141 64.4283 27.4141C76.1179 27.4141 86.3589 33.7423 91.9032 43.1537H36.9534ZM95.694 65.1788V57.0055C95.694 53.9924 96.9902 52.1931 99.8264 52.1931C102.663 52.1931 103.852 53.9436 103.852 56.8134V65.1483C103.852 67.7802 103.062 69.9943 99.677 69.9943C96.548 69.9943 95.6971 67.8107 95.6971 65.1788H95.694ZM105.026 55.6454V53.5624C106.142 53.4557 107.027 52.9128 107.521 52.3212H109.534V69.7808H106.78V55.5691C106.298 55.6362 105.42 55.6545 105.026 55.6423V55.6454ZM119.729 64.6634C119.729 67.7497 118.802 69.9943 115.478 69.9943C112.44 69.9943 111.4 68.0729 111.4 65.6423V65.2428H114.133V65.865C114.133 66.7616 114.401 67.7405 115.478 67.7405C116.63 67.7405 116.88 66.9171 116.88 65.0019V62.9616C116.88 61.2904 116.606 60.5432 115.505 60.5432C114.55 60.5432 114.239 61.1013 114.053 62.19L111.611 61.94C111.858 59.4697 112.202 54.8219 112.349 52.4035H119.326L119.049 54.8219H114.743C114.66 56.2736 114.52 58.0485 114.425 59.0275C114.794 58.5487 115.575 58.2407 116.508 58.2407C118.832 58.2407 119.732 59.9333 119.732 62.8579V64.6603L119.729 64.6634ZM93.3122 43.1537C87.6428 33.0439 76.8224 26.1942 64.4283 26.1942C52.0343 26.1942 41.2139 33.0439 35.5445 43.1537H8.77099C15.7731 19.0274 38.0727 1.33903 64.4283 1.33903C90.784 1.33903 113.084 19.0274 120.086 43.1537H93.3092H93.3122Z" fill="#CCD1DC"/>
<path d="M101.116 65.4234V56.6097C101.116 55.4081 100.738 54.6914 99.7715 54.6914C98.8048 54.6914 98.4022 55.3257 98.4022 56.6798V65.5027C98.4022 66.8018 98.7926 67.5033 99.7746 67.5033C100.757 67.5033 101.116 66.7744 101.116 65.4264V65.4234Z" fill="#CCD1DC"/>
<path d="M75.9776 67.6544C76.9321 67.6544 77.3804 67.1085 77.3804 65.7757V63.5525C77.3804 62.1862 76.8529 61.7227 75.9593 61.7227C75.0657 61.7227 74.5808 62.3204 74.5808 63.525V65.791C74.5808 66.9224 75.0047 67.6544 75.9776 67.6544Z" fill="#CCD1DC"/>
<path d="M35.0383 85.4551L37.5238 87.4374C39.9879 89.4014 39.5732 91.155 37.8623 93.302L34.3216 97.7424C32.9096 99.5112 31.0523 101.216 28.2892 99.0141L25.8068 97.0349L35.0383 85.4551ZM28.8138 96.9434L29.3871 97.4008C30.5643 98.3401 31.3481 97.7271 32.3027 96.5286L36.1484 91.7039C36.9962 90.6396 37.3499 89.807 36.1697 88.8677L35.6055 88.4194L28.8107 96.9434H28.8138Z" fill="#CCD1DC"/>
<path d="M42.3088 100.006L39.4512 98.4234L37.1913 102.504L40.485 104.328L39.2133 106.023L34.1691 103.227L41.3481 90.2715L46.3679 93.0528L45.3402 94.907L42.324 93.2358L40.4698 96.5814L43.3274 98.1642L42.3088 100.003V100.006Z" fill="#CCD1DC"/>
<path d="M52.6657 106.129L52.501 106.681C52.0161 108.303 51.0646 110.496 48.0545 109.596C45.4165 108.806 45.3494 106.998 45.9959 104.833L48.1368 97.678C48.7925 95.4883 50.2228 94.3355 52.4583 95.0034C55.1298 95.8024 55.1115 97.7176 54.5229 99.6847L54.3339 100.319L52.132 99.6603L52.4003 98.7667C52.6809 97.8243 52.6199 97.2205 51.8575 96.9918C51.1072 96.7661 50.7108 97.2114 50.4211 98.1812L48.1765 105.683C47.8989 106.608 47.8684 107.385 48.7041 107.632C49.497 107.87 49.8935 107.309 50.2106 106.251L50.4485 105.458L52.6687 106.123L52.6657 106.129Z" fill="#CCD1DC"/>
<path d="M57.0511 107.311L56.063 111.184L53.7483 110.906L57.8807 96.4844L61.0951 96.8686L61.8056 111.87L59.4269 111.587L59.3171 107.582L57.0481 107.311H57.0511ZM59.3018 105.463C59.2622 102.925 59.2225 100.516 59.253 98.8327L59.1707 98.8235C58.9633 100.028 58.1429 103.124 57.5909 105.258L59.3049 105.463H59.3018Z" fill="#CCD1DC"/>
<path d="M63.8824 97.0533L66.1727 96.9648L66.6698 109.722L70.4057 109.575L70.2898 111.622L64.4588 111.851L63.8824 97.0502V97.0533Z" fill="#CCD1DC"/>
<path d="M72.4979 96.2891L74.7974 110.919L72.5345 111.275L70.235 96.6459L72.4979 96.2891Z" fill="#CCD1DC"/>
<path d="M73.8306 96.1423L76.8742 95.2274C79.8935 94.3186 81.0951 95.6574 81.888 98.2893L83.5257 103.727C84.1783 105.895 84.5229 108.393 81.1377 109.412L78.0972 110.327L73.8306 96.1454V96.1423ZM79.7318 107.804L80.4363 107.594C81.8788 107.161 81.8209 106.167 81.3787 104.7L79.6007 98.7925C79.2073 97.4872 78.7254 96.7248 77.2799 97.1579L76.5906 97.3653L79.7318 107.804Z" fill="#CCD1DC"/>
<path d="M88.1033 102.496L89.4178 106.268L87.3348 107.318L82.8212 93.0114L85.7154 91.5566L94.5901 103.673L92.4492 104.75L90.1466 101.471L88.1033 102.499V102.496ZM88.9634 99.7146C87.53 97.6195 86.1668 95.6341 85.264 94.2129L85.1878 94.2495C85.6788 95.3688 86.7035 98.4032 87.4233 100.489L88.9634 99.7146Z" fill="#CCD1DC"/>
<path d="M87.9844 90.3258L90.5309 88.4227C93.0561 86.535 94.645 87.3797 96.2918 89.5816L99.6922 94.1318C101.049 95.9464 102.227 98.1727 99.3964 100.289L96.8529 102.189L87.9844 90.3258ZM97.5239 99.2614L98.1125 98.8223C99.3202 97.9196 98.9268 97.0077 98.0088 95.7787L94.3156 90.8351C93.5013 89.7433 92.7846 89.1913 91.5769 90.094L91.0006 90.527L97.5269 99.2614H97.5239Z" fill="#CCD1DC"/>
</svg>
