<svg width="279" height="87" viewBox="0 0 279 87" fill="none" xmlns="http://www.w3.org/2000/svg">
<path d="M208.561 0.810556C200.319 1.59413 193.594 6.18364 190.124 13.2358C186.87 19.9522 187.087 28.6835 190.774 35.1759C197.716 47.2654 215.285 50.2877 226.456 41.2207C229.71 38.5341 232.421 34.5043 233.723 30.2506C234.482 27.5641 234.807 22.4148 234.265 19.5044C232.313 7.41498 221.359 -0.420776 208.561 0.810556ZM215.177 9.76571C221.684 11.5567 225.697 18.385 224.721 25.885C223.962 31.4819 220.817 35.5118 215.828 37.3028C213.333 38.1983 209.103 38.1983 206.609 37.3028C200.535 35.064 197.173 29.3551 197.716 22.3029C198.149 16.1462 201.62 11.5567 207.151 9.76571C208.67 9.20601 213.333 9.20601 215.177 9.76571Z" fill="#CCD1DC"/>
<path d="M258.983 0.812474C249.439 1.70799 243.474 7.52884 244.125 15.3646C244.45 20.2899 247.378 23.76 252.584 25.663C253.777 26.1108 257.139 27.0063 260.068 27.9018C267.226 29.8048 268.744 30.7003 268.961 33.3868C269.178 35.1779 268.31 36.5211 266.358 37.5286C265.056 38.3122 264.731 38.3122 260.393 38.3122C256.163 38.3122 255.621 38.2002 253.452 37.5286C252.15 37.0808 249.981 36.1853 248.68 35.5137L246.402 34.2823L244.775 37.9763L243.148 41.6703L244.125 42.4539C245.643 43.4614 249.114 45.0285 251.933 45.7002C262.887 48.4986 273.299 45.8121 276.987 39.3196C278.722 36.1853 279.047 31.5958 277.746 28.5734C276.878 26.5585 274.275 24.0959 271.998 22.9765C271.022 22.5287 268.419 21.6332 266.358 21.0735C256.272 18.275 254.862 17.7153 253.994 16.2601C252.909 14.3571 253.669 11.8945 255.729 10.4393C258.658 8.42435 266.033 8.87211 271.347 11.3348C272.54 11.8945 273.624 12.2303 273.733 12.1183C273.95 11.7825 276.553 5.29005 276.553 4.95423C276.553 4.73035 273.733 3.27514 271.781 2.6035C268.419 1.03635 263.213 0.476656 258.983 0.812474Z" fill="#CCD1DC"/>
<path d="M99.66 1.2583C90.9836 3.16127 84.5847 9.20599 82.4156 17.7134C81.6564 20.7357 81.5479 26.1088 82.3071 29.1312C83.934 35.9595 89.2483 42.2281 95.7556 44.8027C99.1177 46.146 100.961 46.4818 105.3 46.4818C109.963 46.3699 112.458 45.8102 116.145 44.0191C120.7 41.7803 124.279 38.0863 126.34 33.6088C127.967 30.1386 128.401 28.2357 128.401 23.5342C128.401 20.0641 128.292 19.0567 127.75 17.2656C125.256 8.98211 118.965 3.16127 110.831 1.37024C107.577 0.698601 102.588 0.698601 99.66 1.2583ZM108.553 9.65375C114.518 11.109 118.531 16.482 118.64 23.3104C118.64 26.4447 118.206 28.5715 117.013 30.9222C112.132 40.549 97.7078 40.3251 93.0442 30.6983C89.899 23.982 91.6343 15.6985 96.9486 11.8925C100.202 9.54181 104.757 8.75823 108.553 9.65375Z" fill="#CCD1DC"/>
<path d="M0 5.51285V9.6546H9.43564H18.8713V27.9007V46.1468H23.8602H28.8492V23.647V1.37109H14.3161H0V5.51285Z" fill="#CCD1DC"/>
<path d="M42.625 5.51285V9.65461H46.6379C51.8437 9.65461 54.3382 9.99042 56.1819 10.9979C58.8933 12.565 60.3033 15.8113 59.5441 19.1694C59.1103 21.5202 58.0257 22.9754 55.965 24.0948C54.3382 24.9903 54.1213 24.9903 50.2169 25.1022C47.9393 25.2142 46.204 25.3261 46.204 25.3261C46.204 25.4381 54.2298 37.4156 58.4595 43.4603L60.0864 45.811L65.2922 45.923C68.4374 45.923 70.4981 45.923 70.4981 45.6991C70.4981 45.5871 68.4374 42.3409 65.943 38.6469C63.4485 34.9529 61.3878 31.8186 61.3878 31.7067C61.3878 31.5947 62.147 31.035 63.0147 30.4753C67.3529 27.9007 69.8474 23.1993 69.8474 17.6023C69.8474 9.87848 65.5091 4.39346 58.0257 2.26661C56.182 1.81885 54.772 1.59497 49.3492 1.48303L42.8419 1.37109V5.51285H42.625Z" fill="#CCD1DC"/>
<path d="M141.102 5.51151V9.65326H151.188C157.261 9.65326 161.817 9.7652 162.684 9.98908C164.745 10.4368 166.48 11.6682 167.456 13.3473C168.215 14.5786 168.215 15.0264 168.215 17.3771C168.215 19.5039 168.107 20.2875 167.565 21.183C166.697 22.7502 165.613 23.7576 163.66 24.5412C162.142 25.1009 161.491 25.2128 151.622 25.2128H141.102V35.3993V45.6977H145.982H150.863V39.5411V33.3844L157.804 33.2725C163.118 33.1605 165.07 33.0486 166.372 32.6008C174.072 30.362 178.193 25.1009 178.302 17.601C178.41 11.2204 175.807 6.6309 170.493 3.83242C166.48 1.70557 165.504 1.59363 152.706 1.36975L141.21 1.25781V5.51151H141.102Z" fill="#CCD1DC"/>
<path d="M0.110702 57.5649C0.110702 57.7888 0.0022469 59.5799 0.110702 61.7067L0.219158 65.5126L51.1933 65.6246L102.167 65.7365L104.228 67.6395C105.421 68.7589 110.518 73.4603 115.724 78.2737C120.822 83.0871 125.16 86.8931 125.377 86.7811C125.485 86.6692 125.594 81.8558 125.594 76.0349V65.6246H202.055H278.625L278.516 61.4828L278.408 57.3411H197.934H117.46L117.351 62.8261C117.351 65.8485 117.243 68.3111 117.134 68.3111C117.026 68.3111 114.314 65.8485 110.952 62.7142L104.879 57.1172H52.6032C9.8717 57.1172 0.219158 57.2291 0.110702 57.5649Z" fill="#CCD1DC"/>
<path d="M251.065 67.8627L249.547 69.4298H250.848C252.041 69.4298 252.367 69.206 253.994 67.8627C254.97 67.0791 255.837 66.2955 255.837 66.2955C255.837 66.1836 255.078 66.1836 254.21 66.1836C252.692 66.2955 252.584 66.2955 251.065 67.8627Z" fill="#CCD1DC"/>
<path d="M153.129 70.6622C151.502 71.11 150.743 71.5577 149.55 72.6771C147.706 74.3562 147.164 75.8114 147.164 78.498C147.164 81.1845 147.706 82.6397 149.55 84.3188C151.285 85.886 152.478 86.3337 155.081 86.4457C160.07 86.4457 163.215 83.4233 163.215 78.498C163.215 73.9085 160.396 70.8861 155.732 70.5503C154.756 70.4383 153.563 70.5503 153.129 70.6622ZM157.576 74.0204C159.203 75.1398 159.853 76.3711 159.853 78.498C159.853 80.6248 159.203 81.8561 157.576 82.9755C156.383 83.7591 154.539 83.8711 153.129 83.1994C149.767 81.6323 149.767 75.5875 153.021 73.9085C154.431 73.1249 156.383 73.1249 157.576 74.0204Z" fill="#CCD1DC"/>
<path d="M225.908 70.5503C224.064 70.9981 223.305 71.4458 222.112 72.5652C220.159 74.4682 219.617 75.6995 219.617 78.498C219.617 81.1845 220.159 82.5278 222.003 84.3188C224.606 87.0054 229.161 87.2293 232.415 85.1024L233.825 84.2069L232.74 83.0875L231.656 81.9681L230.68 82.7517C229.27 83.8711 227.101 83.983 225.582 83.1994C223.955 82.3039 223.088 80.8487 223.088 78.6099C223.088 76.4831 223.955 74.9159 225.582 74.0204C227.209 73.1249 228.836 73.2368 230.463 74.2443L231.764 75.0279L232.849 74.0204C234.15 72.901 234.042 72.5652 231.764 71.4458C230.246 70.6622 227.209 70.2145 225.908 70.5503Z" fill="#CCD1DC"/>
<path d="M249.543 70.6622C247.916 71.11 247.157 71.5577 245.964 72.6771C244.12 74.3562 243.578 75.8114 243.578 78.498C243.578 81.1845 244.12 82.6397 245.964 84.3188C247.699 85.886 248.892 86.3337 251.495 86.4457C256.484 86.4457 259.63 83.4233 259.63 78.498C259.63 73.9085 256.81 70.8861 252.146 70.5503C251.17 70.4383 249.977 70.5503 249.543 70.6622ZM253.99 74.0204C255.617 75.1398 256.267 76.3711 256.267 78.498C256.267 80.6248 255.617 81.8561 253.99 82.9755C252.797 83.7591 250.953 83.8711 249.543 83.1994C246.181 81.6323 246.181 75.5875 249.435 73.9085C250.845 73.1249 252.797 73.1249 253.99 74.0204Z" fill="#CCD1DC"/>
<path d="M133.609 78.3865V86.1104H135.345H136.972L137.08 83.1999L137.188 80.4014L140.659 80.2895L144.13 80.1776V79.0582V77.7149H140.551H136.972L137.08 75.5881L137.188 73.4612L141.093 73.3493L144.997 73.2373V71.8941V70.5508H139.358H133.718V78.3865H133.609Z" fill="#CCD1DC"/>
<path d="M166.358 78.3865V86.1104H168.094H169.721L169.829 83.9835L169.937 81.8567L171.456 81.7447L172.974 81.6328L174.493 83.8716L176.011 86.1104H177.855H179.698L177.963 83.6477L176.228 81.297L177.204 80.6253C179.698 78.9462 180.024 74.6925 177.855 72.4537C176.445 70.9985 174.601 70.5508 170.046 70.5508H166.25V78.3865H166.358ZM174.276 73.797C175.469 74.4687 176.119 75.588 175.903 76.9313C175.577 78.6104 174.818 79.0582 172.107 79.1701L169.721 79.282V76.4836C169.721 74.9164 169.829 73.5731 169.937 73.5731C170.371 73.1254 173.3 73.3493 174.276 73.797Z" fill="#CCD1DC"/>
<path d="M182.843 78.384V86.2197H184.578H186.205L186.313 81.8541L186.422 77.4885L188.483 80.9586C190.326 83.9809 190.652 84.4287 191.302 84.4287C192.17 84.5406 192.278 84.3168 194.339 80.7347L196.508 76.9288V81.5183V86.1078H198.027H199.545V78.384V70.6602H198.244H196.834L194.122 75.4736C192.604 78.1601 191.302 80.175 191.194 80.0631C191.085 79.9511 189.784 77.8243 188.374 75.3616L185.771 70.884L184.253 70.7721L182.734 70.6602V78.384H182.843Z" fill="#CCD1DC"/>
<path d="M207.91 71.8928C207.585 72.5645 206.175 76.0346 204.657 79.5047C203.138 82.9748 201.945 85.9972 201.945 85.9972C201.945 86.1091 202.705 86.2211 203.572 86.2211H205.199L205.85 84.6539L206.5 83.0868H210.079H213.659L214.418 84.6539L215.068 86.2211H216.804C217.78 86.2211 218.539 86.1091 218.431 85.9972C218.431 85.8852 216.912 82.3032 215.068 78.2734L211.815 70.7734H210.188H208.561L207.91 71.8928ZM211.381 77.3779C211.923 78.7211 212.357 79.9525 212.357 80.0644C212.357 80.1763 211.381 80.2883 210.079 80.2883C208.453 80.2883 207.802 80.1763 207.802 79.9525C207.802 79.1689 209.863 74.3555 210.079 74.6913C210.296 74.8033 210.839 76.0346 211.381 77.3779Z" fill="#CCD1DC"/>
<path d="M236.648 78.384V86.1078H238.384H240.119V78.384V70.6602H238.384H236.648V78.384Z" fill="#CCD1DC"/>
<path d="M262.78 78.384V86.1078H264.516H266.251L266.359 81.4063L266.468 76.7049L270.155 81.4063L273.843 86.1078H275.253H276.554V78.384V70.6602H275.036H273.301L273.192 75.3616L273.084 80.175L269.396 75.4736L265.709 70.7721H264.19H262.672V78.384H262.78Z" fill="#CCD1DC"/>
</svg>
